<?xml version="1.0" encoding="UTF-8" standalone="no" ?>
<!DOCTYPE svg PUBLIC "-//W3C//DTD SVG 1.1//EN" "http://www.w3.org/Graphics/SVG/1.1/DTD/svg11.dtd">
<svg xmlns="http://www.w3.org/2000/svg" xmlns:xlink="http://www.w3.org/1999/xlink" version="1.1" width="1080" height="1080" viewBox="0 0 1080 1080" xml:space="preserve">
<desc>Created with Fabric.js 5.2.4</desc>
<defs>
</defs>
<g transform="matrix(1 0 0 1 540 540)" id="618cd4b3-ae98-45c6-8c34-c6760900b6e8"  >
<rect style="stroke: none; stroke-width: 1; stroke-dasharray: none; stroke-linecap: butt; stroke-dashoffset: 0; stroke-linejoin: miter; stroke-miterlimit: 4; fill: rgb(255,255,255); fill-rule: nonzero; opacity: 1; visibility: hidden;" vector-effect="non-scaling-stroke"  x="-540" y="-540" rx="0" ry="0" width="1080" height="1080" />
</g>
<g transform="matrix(1 0 0 1 540 540)" id="7f6dc48d-6138-41f0-b672-3a700aff9446"  >
</g>
<g transform="matrix(5.03 0 0 5.03 540 540)"  >
<g style="" vector-effect="non-scaling-stroke"   >
		<g transform="matrix(5.8 0 0 5.69 0 0)" id="path3230-2-7"  >
<path style="stroke: rgb(84,191,54); stroke-width: 3; stroke-dasharray: none; stroke-linecap: round; stroke-dashoffset: 0; stroke-linejoin: round; stroke-miterlimit: 4; fill: rgb(84,191,54); fill-rule: nonzero; opacity: 1;" vector-effect="non-scaling-stroke"  transform=" translate(-21.57, -29.29)" d="M 39.936842 29.287827 C 39.936842 39.626815 31.715082 48.008221 21.573027 48.008221 C 11.430972 48.008221 3.2092112999999998 39.626815 3.2092112999999998 29.287827 C 3.2092112999999998 18.948838000000002 11.430972 10.567432 21.573027 10.567432 C 31.715082 10.567432 39.936842 18.948838000000002 39.936842 29.287827 z" stroke-linecap="round" />
</g>
		<g transform="matrix(5.58 0 0 5.58 36.7 -62.23)" id="path3262"  >
<path style="stroke: rgb(255,255,255); stroke-width: 0.05; stroke-dasharray: none; stroke-linecap: round; stroke-dashoffset: 0; stroke-linejoin: round; stroke-miterlimit: 4; fill: rgb(255,255,255); fill-rule: nonzero; opacity: 1;" vector-effect="non-scaling-stroke"  transform=" translate(-385.02, -18.41)" d="M 386.12805 18.563945 L 386.08995 18.240012 L 385.98515 18.030409 L 385.82318 17.811277 L 385.67073999999997 17.696948 L 385.49924999999996 17.601678 L 385.2039 17.544518 L 384.48933999999997 17.535018 L 384.04155 17.487378 L 383.90817 17.430208 L 384.07013 17.592174 L 384.17493 17.763668 L 384.29879 18.011381999999998 L 384.33689 18.268622999999998 L 384.32689 18.535390999999997 L 384.24119 18.725939999999998 L 384.21259000000003 18.878379 L 384.26979000000006 19.0594 L 384.4793900000001 19.192784 L 384.7556900000001 19.316641 L 385.0891500000001 19.383331000000002 L 385.6798500000001 19.297581 L 385.9275600000001 19.135614 L 386.0609500000001 18.973648 L 386.1085500000001 18.792627 z" stroke-linecap="round" />
</g>
		<g transform="matrix(5.58 0 0 5.58 2.25 -66.43)" id="path4032"  >
<path style="stroke: rgb(255,255,255); stroke-width: 0.05; stroke-dasharray: none; stroke-linecap: round; stroke-dashoffset: 0; stroke-linejoin: round; stroke-miterlimit: 4; fill: rgb(255,255,255); fill-rule: nonzero; opacity: 1;" vector-effect="non-scaling-stroke"  transform=" translate(-378.84, -17.65)" d="M 374.58079 18.62111 L 374.87613999999996 18.506780000000003 L 374.99999999999994 18.344814000000003 L 375.0761999999999 18.192375000000002 L 375.0952999999999 17.992299000000003 L 375.0571999999999 17.782695000000004 L 374.97149999999993 17.525454000000003 L 374.85716999999994 17.115774000000002 L 374.7999699999999 16.934753 L 374.7899699999999 16.639402 L 374.8661699999999 16.429799 L 375.0185999999999 16.334519 L 375.2186799999999 16.248769 L 375.4378099999999 16.201128999999998 L 375.6855299999999 16.220188999999998 L 375.91417999999993 16.315468999999997 L 376.1333199999999 16.467907999999998 L 376.3524499999999 16.582237 L 376.6382699999999 16.696566 L 376.9336199999999 16.677506 L 377.1432199999999 16.591756 L 377.36234999999994 16.420262 L 377.6386499999999 16.086802000000002 L 377.8196699999999 15.848616000000002 L 378.0387999999999 15.639012000000001 L 378.25792999999993 15.505628000000002 L 378.5532799999999 15.457988000000002 L 378.8295799999999 15.496098000000002 L 379.3440599999999 15.686647000000002 L 379.6489399999999 15.772397000000003 L 379.9347599999999 15.810507000000003 L 380.13483999999994 15.810507000000003 L 380.43971999999997 15.696178000000003 L 380.77317999999997 15.581849000000004 L 381.21144 15.496099000000003 L 381.51632 15.515149000000003 L 381.83072 15.639005000000003 L 382.15466 15.810499000000002 L 382.39284 16.058213000000002 L 382.68818999999996 16.448838000000002 L 382.90731999999997 16.791825000000003 L 383.09786999999994 17.172923000000004 L 382.90731999999997 17.134813000000005 L 382.32615 17.115753000000005 L 382.00221999999997 17.134813000000005 L 381.70687 17.172923000000004 L 381.38293 17.239613000000006 L 380.99231 17.382525000000005 L 380.68742999999995 17.506381000000005 L 380.56356999999997 17.649293000000004 L 380.49686999999994 17.858897000000002 L 380.49686999999994 18.039918000000004 L 380.55406999999997 18.249522000000002 L 380.68744999999996 18.668729000000003 L 380.19201999999996 18.468653000000003 L 379.77281999999997 18.278104000000003 L 379.27738999999997 18.039918000000004 L 378.74384999999995 17.830314000000005 L 378.40086999999994 17.715985000000003 L 377.92448999999993 17.639765000000004 L 377.5815099999999 17.658815000000004 L 377.2766299999999 17.820782000000005 L 377.0384399999999 18.058968000000004 L 376.9431399999999 18.392428000000002 L 376.86693999999994 18.935492000000004 L 376.77163999999993 19.373754000000005 L 376.6096799999999 19.764379000000005 L 376.4000699999999 19.850129000000006 L 376.1142499999999 19.812019000000006 L 375.7712599999999 19.650052000000006 L 375.30441999999994 19.326119000000006 L 374.80898999999994 18.859275000000007 z" stroke-linecap="round" />
</g>
		<g transform="matrix(5.58 0 0 5.58 -35.08 -53.57)" id="path3283"  >
<path style="stroke: rgb(255,255,255); stroke-width: 0.05; stroke-dasharray: none; stroke-linecap: round; stroke-dashoffset: 0; stroke-linejoin: round; stroke-miterlimit: 4; fill: rgb(255,255,255); fill-rule: nonzero; opacity: 1;" vector-effect="non-scaling-stroke"  transform=" translate(-372.15, -19.96)" d="M 372.85523 20.883718 L 372.85523 20.297033999999996 L 372.92953 19.832996999999995 L 373.30384 19.261707999999995 L 373.47639999999996 18.916599999999995 C 373.50629999999995 18.844879999999996 373.5155 18.738653999999997 373.50579999999997 18.600869999999997 C 373.4172 18.449567 373.29965999999996 18.413921999999996 373.18564 18.36425 L 372.67771 18.206737999999998 C 372.47891 18.221107999999997 372.25813 18.188298 372.12023 18.275757999999996 C 371.80658 18.414741999999997 371.85791 18.480730999999995 371.78539 18.571488999999996 L 371.54381 19.158173999999995 L 371.37126 19.434259999999995 L 371.12968 19.572303999999995 L 370.81412 19.656193999999996 C 370.79462 19.710833999999995 370.74522 19.759324999999997 370.82442 19.789281999999996 L 371.13502 20.134389999999996 C 371.28965 20.301833999999996 371.41626 20.483294999999995 371.43978 20.716295999999996 L 371.44577999999996 21.027069999999995 C 371.42168 21.225850999999995 371.32042999999993 21.378310999999997 371.23357999999996 21.539423999999993 L 371.06102999999996 21.711978999999992 L 371.47515999999996 21.608445999999994 L 371.96858 21.505089999999992 L 372.40695 21.332358999999993 L 372.71755 21.15980499999999 z" stroke-linecap="round" />
</g>
		<g transform="matrix(5.58 0 0 5.58 0 5.92)" id="path3265"  >
<path style="stroke: rgb(255,255,255); stroke-width: 0.05; stroke-dasharray: none; stroke-linecap: round; stroke-dashoffset: 0; stroke-linejoin: round; stroke-miterlimit: 4; fill: rgb(255,255,255); fill-rule: nonzero; opacity: 1;" vector-effect="non-scaling-stroke"  transform=" translate(-378.44, -30.63)" d="M 374.06958 18.91538 L 373.79094 19.394655 L 373.61384 19.909851 L 373.54944 20.360648 L 373.48504 20.747045 L 373.43674000000004 21.085143 L 373.29184000000004 21.294441 L 373.09864000000005 21.519838999999997 L 372.88935000000004 21.632538999999998 L 372.50295000000006 21.890137 L 372.13265000000007 21.986736999999998 L 371.60136000000006 22.131635999999997 L 371.0378600000001 22.244334999999996 L 370.6514600000001 22.340934999999995 L 370.3777600000001 22.437534999999993 L 370.90906000000007 22.662932999999992 L 371.42426000000006 22.84003199999999 L 372.00385000000006 23.01712999999999 L 372.84105000000005 23.29082799999999 L 373.58164000000005 23.43572699999999 L 373.87144000000006 23.59672599999999 L 374.27394000000004 24.208521999999988 L 374.49933000000004 24.38561999999999 L 374.74083 24.498318999999988 L 375.12723 24.498318999999988 L 375.33653 24.611018999999988 L 375.52973 24.755917999999987 L 375.62633 25.029614999999986 L 375.52973 25.335512999999985 L 375.52973 25.577010999999985 L 375.57802999999996 25.705810999999983 L 375.75512 25.818509999999982 L 375.83561999999995 27.186999999999983 L 375.85171999999994 30.696773999999984 L 375.6746299999999 31.968663999999983 L 375.48142999999993 34.448045999999984 L 375.3365299999999 35.929234999999984 L 375.25602999999995 37.523122999999984 L 375.25602999999995 38.47301599999999 L 375.32042999999993 39.85760599999999 L 375.5136299999999 40.71089999999999 L 375.8195199999999 41.33879499999999 L 376.0932199999999 41.67689299999999 L 376.20591999999994 41.72519299999999 L 376.52791999999994 42.46578799999999 L 376.8982199999999 42.94878399999999 L 377.3490099999999 43.28688199999999 L 377.7032099999999 43.480079999999994 L 377.7193099999999 43.52837999999999 L 378.1701099999999 43.59277999999999 L 378.8140999999999 43.67327999999999 L 379.4419999999999 43.64107999999999 L 379.6995999999999 43.46398099999999 L 379.6995999999999 43.46398099999999 L 380.02158999999995 43.27078299999999 L 380.31138999999996 42.86828599999999 L 380.58509 42.53018799999999 L 380.74609 42.256489999999985 C 380.97145 42.108916999999984 381.11940999999996 42.100678999999985 381.46313999999995 41.740040999999984 L 381.82478 41.11339899999999 L 382.08238 40.45330399999999 L 382.25948 39.60000999999999 L 382.32388 38.762815999999994 L 382.25948 37.34602699999999 L 382.16288 36.00973599999999 L 382.08238 34.93104399999999 L 382.03408 33.88455199999999 L 382.00188 32.41946299999999 L 382.06628 29.698582999999992 L 381.96968 27.38019999999999 L 381.96968 26.06000999999999 L 381.93748 25.045716999999993 L 382.04524 25.02398699999999 L 382.16416 25.133003999999993 L 382.38219999999995 25.202373999999992 L 382.53085999999996 25.232103999999993 L 382.59036 25.17264399999999 L 382.85794999999996 24.82577199999999 L 383.18499999999995 24.47889999999999 L 383.3633899999999 24.25095499999999 L 383.40298999999993 24.11220599999999 L 383.40298999999993 23.97345699999999 L 383.4326899999999 23.87434699999999 L 383.60117999999994 23.58693799999999 L 383.95795999999996 23.27970799999999 L 384.33455999999995 23.02203199999999 L 384.7706299999999 22.80399799999999 L 385.28597999999994 22.595873999999988 L 385.7121399999999 22.34810799999999 L 386.0292799999999 22.13007399999999 L 386.25722999999994 21.95168299999999 L 386.38606999999996 21.812933999999988 L 386.49508 21.674184999999987 L 386.31669 21.674184999999987 L 385.96981999999997 21.614724999999986 L 385.68240999999995 21.525524999999984 L 385.50401999999997 21.406597999999985 L 385.42472 21.277758999999985 L 385.40492 21.059724999999986 L 385.55358 20.742584999999988 L 385.87072 20.30651699999999 L 386.13831 19.97946499999999 L 386.24733 19.80107399999999 L 386.32662999999997 19.65241399999999 L 386.36623 19.55330399999999 L 386.20766 19.63259399999999 L 385.94998999999996 19.71187399999999 L 385.63284999999996 19.79115399999999 L 385.32561999999996 19.81097399999999 L 385.06793999999996 19.83079399999999 L 384.71115999999995 19.81097399999999 L 384.46338999999995 19.75151399999999 C 384.46338999999995 19.75151399999999 384.28499999999997 19.59294399999999 384.28499999999997 19.67222399999999 C 384.28499999999997 19.75151399999999 384.0075 19.50374299999999 384.0075 19.50374299999999 L 383.80929 19.295618999999988 L 383.72008999999997 19.02803199999999 L 383.72008999999997 18.770354999999988 L 383.79938999999996 18.354108999999987 L 383.85889 18.096431999999986 L 383.77959 17.918039999999987 L 383.61111 17.759469999999986 L 383.21468 17.630631999999984 L 382.83808 17.581081999999984 L 382.36237 17.581081999999984 L 381.97585 17.600901999999984 L 381.65871 17.660361999999985 L 381.39112 17.779289999999985 L 381.23255 18.036965999999985 L 381.22255 18.433391999999987 L 381.27215 18.760442999999988 L 381.20275000000004 19.028029999999987 L 381.01445 19.097399999999986 L 380.69731 19.067669999999985 L 380.2216 18.919009999999986 L 379.7558 18.760439999999985 L 379.2008 18.542405999999986 L 378.69536 18.354103999999985 L 378.34848999999997 18.274813999999985 L 378.10071999999997 18.245083999999984 L 377.90250999999995 18.254983999999983 L 377.60518999999994 18.334263999999983 L 377.4168899999999 18.542387999999985 L 377.3573899999999 18.879348999999984 L 377.2780899999999 19.305506999999984 L 377.2185899999999 19.622646999999983 L 377.1095799999999 19.880323999999984 L 376.9510099999999 20.098357999999983 L 376.7329699999999 20.266838999999983 L 376.4852099999999 20.326298999999985 L 376.1482499999999 20.326298999999985 L 375.8211899999999 20.237098999999983 L 375.41485999999986 19.999243999999983 L 374.96887999999984 19.70192499999998 L 374.64182999999986 19.404604999999982 L 374.40396999999984 19.186570999999983 L 374.1562099999998 18.98835899999998 z" stroke-linecap="round" />
</g>
		<g transform="matrix(5.58 0 0 5.58 14.16 10.35)" id="path4036"  >
<path style="stroke: rgb(84,191,54); stroke-width: 0.05; stroke-dasharray: none; stroke-linecap: round; stroke-dashoffset: 0; stroke-linejoin: round; stroke-miterlimit: 4; fill: rgb(84,191,54); fill-rule: nonzero; opacity: 1;" vector-effect="non-scaling-stroke"  transform=" translate(-380.97, -31.42)" d="M 380.7073 23.051765 L 380.628 22.070611 L 380.5884 21.257939 L 380.54879999999997 21.049815 L 380.43978 21.327313 L 380.35058 21.634543 L 380.28118 21.931862000000002 L 380.23158 22.258913000000003 L 380.22158 22.526501000000003 L 380.25128 22.903105000000004 L 380.28098 23.616671000000004 L 380.26118 24.320326000000005 L 380.23148000000003 25.360944000000003 L 380.31078 25.351044000000005 L 380.30078000000003 25.846576000000006 L 380.34048 26.599785000000004 L 380.37018 27.055674000000003 L 380.42968 27.888168000000004 L 380.57834 30.336096000000005 L 380.53874 31.396534000000006 L 380.50904 32.238938000000005 L 380.52884 32.96241500000001 L 380.51884 33.358841000000005 L 380.53864 35.132845 L 380.64766 36.698726 L 380.69725999999997 37.580773 L 380.74685999999997 38.056484 L 380.92524999999995 40.712534999999995 L 380.95494999999994 41.01976499999999 L 380.91534999999993 41.39636899999999 L 380.86574999999993 41.60449199999999 L 380.85574999999994 41.79279499999999 L 381.07377999999994 41.62431399999999 L 381.2521699999999 41.43601199999999 L 381.3413699999999 41.297262999999994 L 381.43056999999993 41.13869199999999 L 381.53957999999994 40.78190899999999 L 381.63867999999997 40.18727099999999 L 381.72787999999997 38.70067499999999 L 381.72787999999997 37.66005799999999 L 381.67828 36.39149599999999 L 381.60888 35.06346999999999 L 381.55928 34.17151299999999 L 381.47998 33.07143199999999 L 381.44038 32.69482799999999 L 381.44038 31.733495999999988 L 381.42058000000003 30.96046599999999 L 381.39088000000004 30.10815099999999 L 381.32148000000007 26.302464999999987 L 381.32148000000007 25.133009999999988 L 381.28188000000006 24.776226999999988 L 381.23228000000006 24.350068999999987 L 381.19268000000005 23.904090999999987 L 381.19268000000005 23.577039999999986 L 381.15308000000005 23.339183999999985 L 381.11348000000004 23.220255999999985 L 381.06388000000004 23.150885999999986 L 380.99448000000007 23.131065999999986 L 380.8854600000001 23.101335999999986 L 380.82596000000007 23.101335999999986 z" stroke-linecap="round" />
</g>
		<g transform="matrix(5.58 0 0 5.58 -1.76 14.99)" id="path4038"  >
<path style="stroke: rgb(84,191,54); stroke-width: 0.05; stroke-dasharray: none; stroke-linecap: round; stroke-dashoffset: 0; stroke-linejoin: round; stroke-miterlimit: 4; fill: rgb(84,191,54); fill-rule: nonzero; opacity: 1;" vector-effect="non-scaling-stroke"  transform=" translate(-378.12, -32.25)" d="M 376.00966 21.604811 L 376.44572 21.832756 L 376.83224 21.991326 L 377.07009 22.060706 L 377.34758999999997 22.080526 L 377.51606999999996 21.991325999999997 L 377.53586999999993 21.803023999999997 L 377.45656999999994 21.584989999999998 L 377.48626999999993 21.525529999999996 L 377.73403999999994 21.842670999999996 L 378.08090999999996 22.318380999999995 L 378.68546 23.190517999999994 L 379.01250999999996 23.705870999999995 L 379.4684 24.359972999999997 L 379.62697 24.786130999999997 L 379.75581 25.192466999999997 L 379.80541 25.539339 L 379.88471 25.569069 L 379.88471 25.985315999999997 L 379.91441 26.391651999999997 L 379.95401 27.462000999999997 L 379.88461 29.553145999999998 L 379.80531 32.278572 L 379.91433 33.844452999999994 L 380.10263000000003 36.98612599999999 L 380.19183000000004 38.53218499999999 L 380.23143000000005 40.42511699999999 L 380.15213000000006 41.416180999999995 L 379.90437000000003 42.14956899999999 L 379.71607 42.446887999999994 L 379.42866 42.684743 L 379.02232 42.882956 L 378.71509 42.982066 L 378.28893 42.982066 L 377.95197 42.833407 L 377.48617 42.466713 L 377.12939 41.911716999999996 L 376.85189 41.089133999999994 L 376.78249000000005 40.187265999999994 L 376.80229 39.46378899999999 L 376.82209 38.38352999999999 L 376.87159 37.83844499999999 L 376.95089 36.32211699999999 L 377.16892 34.587754999999994 L 377.40678 32.655179999999994 L 377.53561 31.228047999999994 L 377.56531 30.435196999999995 L 377.57531 30.088324999999994 L 377.57531 29.761272999999996 L 377.55551 29.295472999999994 L 377.65461000000005 29.999128999999993 L 377.69421000000006 30.67305199999999 L 377.78341000000006 31.525366999999992 L 377.85281000000003 32.18937999999999 L 378.01139 33.93365299999999 L 378.13031 35.340962999999995 L 378.23933 36.738364 L 378.28893 37.293358999999995 L 378.28893 38.185317 L 378.28893 38.720490999999996 L 378.27893 39.562895999999995 L 378.22933 40.425121 L 378.31853 40.563869999999994 L 378.41763000000003 40.623329999999996 L 378.54647000000006 40.613429999999994 L 378.65549000000004 40.54404999999999 L 378.64549000000005 40.47467999999999 L 378.71489 39.027725999999994 L 378.69509000000005 38.16550099999999 L 378.70509000000004 37.77898599999999 L 378.62579000000005 36.29238999999999 L 378.48705000000007 34.53820699999999 L 378.33839000000006 32.95250399999999 L 378.04107000000005 29.97931299999999 L 377.91223 28.35396799999999 L 377.78339 27.18451199999999 L 377.76359 27.09531199999999 L 377.72399 27.08541199999999 L 377.84291 25.75738599999999 L 377.93211 25.78711599999999 L 377.90241000000003 25.68800599999999 L 377.85281000000003 25.53934599999999 L 377.86281 25.30149099999999 L 377.83311000000003 24.83569099999999 L 377.83311000000003 24.57801399999999 L 377.79351 24.18158899999999 L 377.65476 23.705877999999988 L 377.48628 23.299541999999988 L 377.20878000000005 22.833741999999987 L 376.85200000000003 22.358030999999986 L 376.51504000000006 22.040889999999987 L 376.28709000000003 21.832766999999986 z" stroke-linecap="round" />
</g>
		<g transform="matrix(5.58 0 0 5.58 -10.64 14.78)" id="path4040"  >
<path style="stroke: rgb(84,191,54); stroke-width: 0.05; stroke-dasharray: none; stroke-linecap: round; stroke-dashoffset: 0; stroke-linejoin: round; stroke-miterlimit: 4; fill: rgb(84,191,54); fill-rule: nonzero; opacity: 1;" vector-effect="non-scaling-stroke"  transform=" translate(-376.53, -32.22)" d="M 376.11169 40.862333 L 376.07719000000003 39.690324 L 376.14619000000005 37.932309 L 376.62878000000006 34.760988999999995 L 377.0769000000001 31.899905999999994 L 377.1803100000001 30.831308999999994 L 377.1803100000001 30.038478999999995 L 377.1803100000001 29.762711999999997 L 377.24921000000006 25.660679 L 377.04239000000007 24.867849 L 376.87003000000004 24.592082 L 376.65377000000007 24.259713 L 376.36073000000005 23.914965000000002 L 375.91256000000004 23.570218 L 376.06770000000006 24.001152 L 376.24007000000006 24.294188000000002 L 376.41244000000006 24.621698000000002 L 376.41244000000006 24.966445000000004 L 376.42964000000006 25.276718000000002 L 376.3951400000001 25.604228000000003 L 376.3262400000001 25.845551000000004 L 376.3779400000001 26.017925000000005 L 376.42964000000006 26.517808000000006 L 376.44684000000007 27.172828000000006 L 376.49854000000005 28.258783000000005 L 376.51574000000005 29.189601000000003 L 376.46404000000007 30.378979000000005 L 376.46404000000007 30.896100000000004 L 376.2399500000001 33.13695800000001 L 376.08481000000006 34.17120100000001 L 375.99861000000004 35.27439200000001 L 375.92971000000006 35.82598800000001 L 375.87811000000005 37.256690000000006 L 375.84361000000007 38.42883100000001 L 375.8091100000001 39.15280100000001 L 375.84361000000007 39.91124500000001 L 375.89531000000005 40.35941700000001 L 375.99874000000005 40.738639000000006 z" stroke-linecap="round" />
</g>
</g>
</g>
</svg>