<?xml version="1.0" encoding="UTF-8" standalone="no" ?>
<!DOCTYPE svg PUBLIC "-//W3C//DTD SVG 1.1//EN" "http://www.w3.org/Graphics/SVG/1.1/DTD/svg11.dtd">
<svg xmlns="http://www.w3.org/2000/svg" xmlns:xlink="http://www.w3.org/1999/xlink" version="1.1" width="1080" height="1080" viewBox="0 0 1080 1080" xml:space="preserve">
<desc>Created with Fabric.js 5.2.4</desc>
<defs>
</defs>
<g transform="matrix(1 0 0 1 540 540)" id="12cb143a-6d67-4630-a786-b0b5c006e9a3"  >
<rect style="stroke: none; stroke-width: 1; stroke-dasharray: none; stroke-linecap: butt; stroke-dashoffset: 0; stroke-linejoin: miter; stroke-miterlimit: 4; fill: rgb(255,255,255); fill-rule: nonzero; opacity: 1; visibility: hidden;" vector-effect="non-scaling-stroke"  x="-540" y="-540" rx="0" ry="0" width="1080" height="1080" />
</g>
<g transform="matrix(1 0 0 1 540 540)" id="73f3723a-33b1-44c7-b649-4b3d0f637948"  >
</g>
<g transform="matrix(4.97 0 0 4.97 539.03 539.03)"  >
<g style="" vector-effect="non-scaling-stroke"   >
		<g transform="matrix(5.8 0 0 5.69 0 0)" id="path3230-2-8-5"  >
<path style="stroke: rgb(28,182,241); stroke-width: 3; stroke-dasharray: none; stroke-linecap: round; stroke-dashoffset: 0; stroke-linejoin: round; stroke-miterlimit: 4; fill: rgb(28,182,241); fill-rule: nonzero; opacity: 1;" vector-effect="non-scaling-stroke"  transform=" translate(-21.57, -29.29)" d="M 39.936842 29.287827 C 39.936842 39.626815 31.715082 48.008221 21.573027 48.008221 C 11.430972 48.008221 3.2092112999999998 39.626815 3.2092112999999998 29.287827 C 3.2092112999999998 18.948838000000002 11.430972 10.567432 21.573027 10.567432 C 31.715082 10.567432 39.936842 18.948838000000002 39.936842 29.287827 z" stroke-linecap="round" />
</g>
		<g transform="matrix(5.58 0 0 5.58 -0.65 13.63)" id="path4196"  >
<path style="stroke: rgb(255,255,255); stroke-width: 0.05; stroke-dasharray: none; stroke-linecap: butt; stroke-dashoffset: 0; stroke-linejoin: miter; stroke-miterlimit: 4; fill: rgb(255,255,255); fill-rule: nonzero; opacity: 1;" vector-effect="non-scaling-stroke"  transform=" translate(-243.44, -378.1)" d="M 250.21212 378.65597 L 249.97386 380.63213 L 249.72296 381.52521 C 249.63216 381.8825 249.49172 382.21143 249.32823 382.52719 C 249.16825 382.77606000000003 248.86171 382.98305 248.62839 383.21096 L 247.39503 384.10794 L 246.44199 384.7106 L 245.72721 385.06099 L 244.25560000000002 385.07499 L 243.42869000000002 385.04699 C 242.73699000000002 385.08319 241.97389 385.04798999999997 241.24483 385.04699 C 240.46423000000001 384.73094 239.71965 384.16276999999997 238.95779000000002 383.71553 L 237.61232 382.60831 L 237.19508000000002 381.68491 L 236.85871000000003 380.15333 L 236.65927000000002 378.06734 L 236.82746000000003 377.19839 L 237.12730000000002 376.67913000000004 L 237.43012000000002 376.31542 L 237.78050000000002 375.51654 L 238.43922 373.87675 L 238.78961 373.34417 L 239.36424000000002 372.85363 L 240.10705000000002 372.50324 L 240.44342 372.25097 L 240.62562 372.02672 L 240.70972 371.84452 L 240.80782 371.48012 L 240.93395999999998 371.19982 L 241.31237 371.11572 L 241.70479999999998 371.25587 L 242.12525999999997 371.53618 L 242.50367999999997 371.62028 L 242.91011999999998 371.56417999999996 L 243.23707 371.56818 C 243.30767 371.59067999999996 243.28916999999998 371.61318 243.30327 371.63568 L 243.43403 371.65218 L 243.48873 371.69518 L 243.51603 371.62098 L 243.62931 371.62498 L 243.69571 371.56248 L 243.89493 371.55848 L 244.15664999999998 371.59367999999995 L 244.36368 371.58967999999993 L 244.58633999999998 371.5976799999999 L 244.77774999999997 371.5546799999999 L 244.93399999999997 371.48437999999993 L 245.20352999999997 371.3007799999999 L 245.31289999999998 371.2577799999999 L 245.45743 371.2030799999999 L 245.65275 371.1444799999999 L 245.88321 371.15247999999985 L 246.06289999999998 371.27747999999985 L 246.15269999999998 371.5001399999999 L 246.2113 371.92982999999987 L 246.3324 372.0782599999999 L 246.59021 372.3634199999999 L 247.16833000000003 372.6524799999999 L 247.52380000000002 372.82044999999994 L 247.88318 373.07825999999994 L 248.11364 373.31654999999995 L 248.37927 373.7735799999999 L 248.46517 373.94544999999994 L 248.71126 374.43763999999993 L 249.00814 375.16810999999996 L 249.1097 375.43763999999993 L 249.42611 376.16029999999995 L 249.77767 376.68372999999997 L 250.05501 377.15247999999997 L 250.10971 377.30091999999996 L 250.223 377.56264 z" stroke-linecap="round" />
</g>
		<g transform="matrix(5.58 0 0 5.58 -38.39 -34.2)" id="path4198"  >
<path style="stroke: rgb(255,255,255); stroke-width: 0.05; stroke-dasharray: none; stroke-linecap: butt; stroke-dashoffset: 0; stroke-linejoin: miter; stroke-miterlimit: 4; fill: rgb(255,255,255); fill-rule: nonzero; opacity: 1;" vector-effect="non-scaling-stroke"  transform=" translate(-58.46, -22.16)" d="M 58.486527 29.29438 L 58.819111 28.870069 L 58.849161 28.870069 L 58.984377 28.689781 L 59.329930000000004 27.75829 L 59.615387000000005 26.916943999999997 L 58.131173000000004 25.782864999999997 L 58.39844 25.369467999999998 L 58.578728 24.738457999999998 L 58.569828 23.70591 L 58.398399 22.725237 L 59.104527999999995 22.319588 L 60.122052999999994 21.524897 L 61.207893999999996 20.336415 L 61.808854999999994 19.149516 L 62.034215999999994 17.947592999999998 C 62.003555999999996 17.645898999999996 62.013225999999996 17.424847999999997 61.91402399999999 16.986054999999997 L 61.808854999999994 16.520308999999997 L 61.46330199999999 17.151318999999997 L 60.98253299999999 17.932568999999997 L 60.36654799999999 18.638699 L 59.825681999999986 19.224636 L 59.17964899999998 19.750478 L 58.563662999999984 20.156127 L 58.132075999999984 20.381959000000002 L 58.15801599999998 19.525117 L 58.48854499999998 17.737257000000003 L 59.04443399999998 16.309973000000003 L 59.58529999999998 15.017906000000004 L 58.98433799999998 15.468627000000003 L 58.08289599999998 16.039540000000002 L 57.632174999999975 16.385093 L 56.986140999999975 17.031127 L 56.44527599999998 17.722233000000003 L 55.94948199999998 18.428362000000003 L 55.43866499999998 19.510093000000005 L 55.03301599999998 20.937377000000005 L 54.91282399999998 21.913939000000006 L 54.882773999999976 22.680165000000006 L 55.00296599999998 23.791944000000004 L 55.18325399999998 24.498074000000006 L 55.42363899999998 25.234252000000005 L 55.67904799999998 25.669949000000006 L 55.964503999999984 25.940382000000007 L 56.219912999999984 26.135694000000008 L 56.52039399999998 26.661535000000008 L 56.70068199999998 27.022112000000007 L 57.13637899999998 27.848434000000008 L 57.58709999999998 28.419348000000006 L 57.887580999999976 28.779925000000006 L 58.16892799999997 29.075823000000007 L 58.34763299999997 29.250891000000006 C 58.45084799999997 29.230061000000006 58.434512999999974 29.189121000000007 58.48648799999997 29.294381000000005 z" stroke-linecap="round" />
</g>
		<g transform="matrix(5.58 0 0 5.58 -43.89 26.34)" id="path4200"  >
<path style="stroke: rgb(255,255,255); stroke-width: 0.05; stroke-dasharray: none; stroke-linecap: butt; stroke-dashoffset: 0; stroke-linejoin: miter; stroke-miterlimit: 4; fill: rgb(255,255,255); fill-rule: nonzero; opacity: 1;" vector-effect="non-scaling-stroke"  transform=" translate(-57.47, -33.01)" d="M 58.467582 29.374041 L 57.761645 29.146319 L 57.209419000000004 28.964140999999998 L 56.645808 28.816121999999996 L 56.33269 28.747801999999997 L 56.082195999999996 28.702251999999998 L 55.911404999999995 28.730721999999997 L 55.769079 28.787651999999998 L 55.660911 28.878742 L 55.461653999999996 29.049533 L 55.359179 29.129233 L 55.290859 29.260172999999998 L 55.302248999999996 29.402499 L 55.342099 29.57329 L 55.478732 29.789626 L 55.672296 29.966110999999998 L 55.865859 30.119822999999997 L 56.173284 30.353237999999997 L 56.554718 30.558186999999997 L 56.873529 30.711899999999996 L 57.215111 30.865611999999995 L 57.915356 31.150263999999996 L 57.24927 31.247043999999995 L 56.526253000000004 31.355211999999995 L 55.917097000000005 31.423531999999994 L 55.495811 31.491851999999994 L 55.285169 31.594326999999993 L 55.125763000000006 31.759424999999993 L 55.034673000000005 31.987146999999993 L 54.966353000000005 32.226254999999995 L 54.972053 32.448283999999994 L 55.097300000000004 32.64184699999999 L 55.330715000000005 32.78417299999999 L 55.615367000000006 32.88095299999999 L 55.96264300000001 32.96635299999999 L 56.292840000000005 33.00620299999999 L 56.708432 33.02328299999999 L 57.180955000000004 33.017582999999995 L 57.568082000000004 32.983422999999995 L 57.99506100000001 32.943572999999994 L 58.09184100000001 32.92080299999999 L 57.92105000000001 32.983422999999995 L 57.65347700000001 33.074512999999996 L 57.12971700000001 33.313621 L 56.64580800000001 33.643817 L 56.40100700000001 33.843074 L 56.156206000000005 34.070796 L 55.888633000000006 34.37822 L 55.68368300000001 34.685645 L 55.56982200000001 34.930446 L 55.53566200000001 35.232177 L 55.64383000000001 35.459899 L 55.78046300000001 35.613611 L 55.911403000000014 35.699011 L 56.06511500000001 35.784411 L 56.235906000000014 35.829951 L 56.412391000000014 35.795791 L 56.66288500000002 35.704701 L 56.879221000000015 35.602226 L 57.14110100000001 35.442821 L 57.44852500000001 35.249257 L 57.65916800000001 35.129703 L 57.915355000000005 35.015842 L 58.27971000000001 34.867823 L 58.55297600000001 34.793813 L 58.67253000000001 34.759653 L 58.48466000000001 34.873514 L 58.30248200000001 35.01584 L 58.00644400000001 35.289106999999994 L 57.87550400000001 35.47697699999999 L 57.687633000000005 35.76732199999999 L 57.528228000000006 36.09751899999999 L 57.42575300000001 36.37078499999999 L 57.385903000000006 36.53588399999999 L 57.402983000000006 36.74083299999999 L 57.454223000000006 36.98563399999999 L 57.636401000000006 37.14503999999999 L 57.784420000000004 37.20196999999999 L 57.858430000000006 37.207669999999986 L 58.00075700000001 37.275989999999986 L 58.16016200000001 37.32152999999999 L 58.39357700000001 37.24751999999999 L 58.59852600000001 37.09950099999999 L 58.86610000000001 36.82623499999999 L 59.09951500000001 36.66682999999999 L 59.58911600000001 36.37079099999999 L 59.90792700000001 36.22846499999999 L 59.97624700000001 36.18861499999999 L 59.78837600000001 36.040595999999994 L 59.51511000000001 35.818566999999994 L 59.327239000000006 35.607924 L 59.12798300000001 35.351737 L 58.98565700000001 35.124015 L 58.70100400000001 34.463622 L 58.57006400000001 34.030950000000004 L 58.37650100000001 33.205459000000005 L 58.34803100000001 32.94357900000001 L 58.17154700000001 31.71957400000001 L 58.13169700000001 31.13319000000001 L 58.15446700000001 30.35893600000001 L 58.182927000000014 30.17675800000001 L 58.21139700000001 30.13121800000001 L 58.205697000000015 30.07997800000001 L 58.222777000000015 29.88641500000001 L 58.34802400000002 29.61314900000001 L 58.43342400000002 29.442357000000012 z" stroke-linecap="round" />
</g>
		<g transform="matrix(5.58 0 0 5.58 -61.06 -4.29)" id="path4202"  >
<path style="stroke: rgb(255,255,255); stroke-width: 0.05; stroke-dasharray: none; stroke-linecap: butt; stroke-dashoffset: 0; stroke-linejoin: miter; stroke-miterlimit: 4; fill: rgb(255,255,255); fill-rule: nonzero; opacity: 1;" vector-effect="non-scaling-stroke"  transform=" translate(-54.39, -27.52)" d="M 53.694647 27.566885 L 53.760727 27.724978999999998 L 53.914769 27.985256999999997 L 54.084747 28.266782999999997 L 54.238789 28.463318999999995 L 54.403454999999994 28.686414999999997 L 54.520315 28.813898 L 54.615925 28.888267999999997 L 54.759344 28.957317999999997 L 54.876203 28.973247999999998 L 55.035557 28.967948 L 55.189598999999994 28.893578 L 55.34364099999999 28.739536 L 55.42863099999999 28.527064000000003 L 55.43925099999999 28.330527000000004 L 55.354260999999994 28.011819000000003 L 55.19490699999999 27.831218000000003 L 54.881510999999996 27.438145000000002 L 54.53093199999999 26.933524000000002 L 54.291900999999996 26.572322000000003 L 54.148483 26.349226 L 53.978505 26.189872 L 53.856334 26.110192 L 53.681044 26.067702 L 53.500443 26.147382 L 53.378271999999996 26.269553000000002 L 53.346402 26.444842 L 53.378271999999996 26.641379 L 53.431391999999995 26.891034 L 53.521691999999994 27.156624 L 53.574811999999994 27.310666 L 53.640271999999996 27.446583 z" stroke-linecap="round" />
</g>
		<g transform="matrix(5.58 0 0 5.58 -66.74 -19.93)" id="path4204"  >
<path style="stroke: rgb(255,255,255); stroke-width: 0.05; stroke-dasharray: none; stroke-linecap: butt; stroke-dashoffset: 0; stroke-linejoin: miter; stroke-miterlimit: 4; fill: rgb(255,255,255); fill-rule: nonzero; opacity: 1;" vector-effect="non-scaling-stroke"  transform=" translate(-53.37, -24.72)" d="M 53.015625 23.895309 L 52.996095 24.078903 L 52.964845 24.262497 L 52.968745 24.586716 L 52.976545 24.864058999999997 L 52.988265 25.086716 L 53.011705 25.364058999999997 L 53.027335 25.528121999999996 L 53.050775 25.633590999999996 L 53.105465 25.731250999999997 L 53.171875 25.828910999999998 L 53.250005 25.871881 L 53.35938 25.918750999999997 L 53.480474 25.903120999999995 L 53.60938 25.856250999999997 L 53.691410000000005 25.758590999999996 L 53.73828 25.672650999999995 L 53.76953 25.574990999999994 L 53.777330000000006 25.489050999999993 L 53.78513000000001 25.414830999999992 L 53.74997000000001 25.367960999999994 L 53.67966000000001 25.149210999999994 L 53.58591000000001 24.785928999999992 L 53.53513000000001 24.54764799999999 L 53.515600000000006 24.41483599999999 L 53.429660000000005 24.12186699999999 L 53.335910000000005 23.79374199999999 L 53.257780000000004 23.59452299999999 L 53.222620000000006 23.53983299999999 L 53.17575000000001 23.512492999999992 L 53.10934000000001 23.58280299999999 L 53.06247000000001 23.71952199999999 L 53.03903000000001 23.82889699999999 z" stroke-linecap="round" />
</g>
		<g transform="matrix(5.58 0 0 5.58 -74.81 1.83)" id="path4206"  >
<path style="stroke: rgb(255,255,255); stroke-width: 0.05; stroke-dasharray: none; stroke-linecap: butt; stroke-dashoffset: 0; stroke-linejoin: miter; stroke-miterlimit: 4; fill: rgb(255,255,255); fill-rule: nonzero; opacity: 1;" vector-effect="non-scaling-stroke"  transform=" translate(-51.93, -28.62)" d="M 51.617187 27.473434 L 51.566407 27.524214 L 51.523437 27.696089 L 51.499997 27.864057 L 51.480467 28.090619999999998 L 51.468747 28.367963999999997 L 51.472647 28.551556999999995 L 51.480447000000005 28.731244999999994 L 51.511697000000005 28.957806999999995 L 51.56247700000001 29.192181999999995 L 51.62106700000001 29.426556999999995 L 51.671847000000014 29.504686999999997 L 51.71481700000001 29.617969 L 51.77340700000001 29.711719 L 51.86715700000001 29.762499 L 51.99606400000001 29.782028999999998 L 52.09762600000001 29.754689 L 52.13278600000001 29.727349 L 52.27341100000001 29.645319 L 52.33591100000001 29.555479000000002 L 52.35935100000001 29.492979000000002 L 52.38669100000001 29.395319 L 52.35935100000001 29.231257 L 52.285131000000014 29.125788 L 52.097631000000014 28.746882 L 51.98044400000001 28.410944 L 51.847631000000014 27.942194 L 51.76169100000001 27.668757 L 51.70310100000001 27.508601 L 51.67185100000001 27.453910999999998 z" stroke-linecap="round" />
</g>
		<g transform="matrix(5.58 0 0 5.58 -65.98 15.05)" id="path4208"  >
<path style="stroke: rgb(255,255,255); stroke-width: 0.0462801; stroke-dasharray: none; stroke-linecap: butt; stroke-dashoffset: 0; stroke-linejoin: miter; stroke-miterlimit: 4; fill: rgb(255,255,255); fill-rule: nonzero; opacity: 1;" vector-effect="non-scaling-stroke"  transform=" translate(-53.51, -30.99)" d="M 52.959082 31.405046 L 52.787207 31.241061 L 52.595801 31.097154999999997 L 52.404395 30.933169999999997 L 52.306735 30.792610999999997 L 52.216895 30.608546999999998 L 52.142675000000004 30.441214 L 52.13095500000001 30.324081999999997 L 52.133655000000005 30.136385999999998 L 52.222685000000006 30.040105999999998 L 52.316435000000006 29.984185999999998 C 52.38030500000001 29.901415999999998 52.44417000000001 29.905896 52.50803700000001 29.913285999999996 L 52.73604400000001 30.010775999999996 L 53.08511000000001 30.263564999999996 L 53.43071400000001 30.510777999999995 L 53.791945000000005 30.725058999999995 L 54.243840000000006 30.976588999999993 L 54.572374 31.164095999999994 L 54.646594 31.184175999999994 L 54.783313 31.328080999999994 L 54.841903 31.388320999999994 L 54.888773 31.495412999999996 L 54.884873 31.579082999999997 L 54.853623 31.702907999999997 L 54.798933 31.813347999999998 L 54.732523 31.913746999999997 L 54.670023 31.970646999999996 L 54.556742 32.027547 L 54.42393 32.064357 L 54.263774 32.057657 L 54.138774 32.040926999999996 L 53.877055 31.947216999999995 L 53.595805 31.793271999999995 L 53.314555 31.629286999999994 L 53.115336 31.518847999999995 z" stroke-linecap="round" />
</g>
		<g transform="matrix(5.58 0 0 5.58 -57.19 50.7)" id="path3330"  >
<path style="stroke: rgb(255,255,255); stroke-width: 0.05; stroke-dasharray: none; stroke-linecap: butt; stroke-dashoffset: 0; stroke-linejoin: miter; stroke-miterlimit: 4; fill: rgb(255,255,255); fill-rule: nonzero; opacity: 1;" vector-effect="non-scaling-stroke"  transform=" translate(-55.09, -37.38)" d="M 55.505118 37.437317 L 55.840554000000004 36.690201 C 55.896224000000004 36.602531 55.975702000000005 36.554544 55.954942 36.339492 C 55.901752 36.169901 55.902882000000005 36.151678 55.840597 36.049752 C 55.756727000000005 35.882003 55.672865 35.884935999999996 55.589000000000006 35.813387999999996 C 55.419867 35.697644999999994 55.324743000000005 35.76692799999999 55.205253000000006 35.775287999999996 C 54.973257000000004 35.905891 54.92389000000001 35.999967999999996 54.81644300000001 36.105661 L 54.41235900000001 37.129816 L 54.27514500000001 37.732123 L 54.214135000000006 38.418269 L 54.346284000000004 38.814716000000004 L 54.610582 39.012939 L 54.86218 38.954499000000006 L 55.001925 38.76133900000001 L 55.301832 37.95068100000001 z" stroke-linecap="round" />
</g>
		<g transform="matrix(5.58 0 0 5.58 -56.9 67.07)" id="path4100"  >
<path style="stroke: rgb(255,255,255); stroke-width: 0.05; stroke-dasharray: none; stroke-linecap: butt; stroke-dashoffset: 0; stroke-linejoin: miter; stroke-miterlimit: 4; fill: rgb(255,255,255); fill-rule: nonzero; opacity: 1;" vector-effect="non-scaling-stroke"  transform=" translate(-55.14, -40.32)" d="M 54.472159 39.436293 L 54.584012 39.293935 L 54.665362 39.253265 L 54.770716 39.233135 L 54.929741 39.243134999999995 L 55.06193 39.293974999999996 L 55.12294 39.436333 L 55.14328 39.517683 L 55.20429 39.670209 L 55.24496 39.832903 L 55.31614 40.102763 L 55.427993 40.381997000000005 L 55.57035 40.717555000000004 L 55.66187 40.981934 L 55.773722 41.185302 L 55.824562 41.297154 L 55.824562 41.388674 L 55.722877 41.398844000000004 L 55.550014999999995 41.317494 L 55.397487999999996 41.215810000000005 L 55.15344699999999 41.002273 L 54.960246999999995 40.737895 L 54.706036999999995 40.351495 L 54.59418399999999 40.102766 L 54.48882999999999 39.806071 L 54.45181999999999 39.588865000000006 z" stroke-linecap="round" />
</g>
		<g transform="matrix(5.58 0 0 5.58 -28.08 68.29)" id="path4102"  >
<path style="stroke: rgb(255,255,255); stroke-width: 0.05; stroke-dasharray: none; stroke-linecap: butt; stroke-dashoffset: 0; stroke-linejoin: miter; stroke-miterlimit: 4; fill: rgb(255,255,255); fill-rule: nonzero; opacity: 1;" vector-effect="non-scaling-stroke"  transform=" translate(-60.31, -40.53)" d="M 59.096472 40.314957 L 59.163562 40.241167 L 59.250772 40.174077 L 59.358111 40.102717 L 59.525827 40.10272 L 59.854551 40.20091 L 60.183274 40.30154 L 60.40466 40.36863 L 60.706549 40.45584 L 60.941351000000004 40.5028 L 61.216406000000006 40.56989 L 61.437791000000004 40.63698 L 61.54513000000001 40.737610000000004 L 61.511590000000005 40.79128 L 61.41096100000001 40.83824 L 61.29020500000001 40.87178 L 61.15603200000001 40.89191 L 60.96819000000001 40.93887 L 60.726679000000004 40.959 L 60.558962 40.965700000000005 L 60.304034 40.965700000000005 L 60.082649 40.945570000000004 L 59.814303 40.91874000000001 L 59.606335 40.878490000000006 L 59.344697000000004 40.818110000000004 L 59.176981000000005 40.710771 L 59.069643000000006 40.56989 L 59.069643000000006 40.388756 z" stroke-linecap="round" />
</g>
		<g transform="matrix(5.58 0 0 5.58 -41.17 59.56)" id="path4104"  >
<path style="stroke: rgb(255,255,255); stroke-width: 0.05; stroke-dasharray: none; stroke-linecap: butt; stroke-dashoffset: 0; stroke-linejoin: miter; stroke-miterlimit: 4; fill: rgb(255,255,255); fill-rule: nonzero; opacity: 1;" vector-effect="non-scaling-stroke"  transform=" translate(-57.96, -38.97)" d="M 58.210931 38.805512 L 58.184091 38.624378 L 58.177391 38.443245 L 58.177391 38.31578 L 58.204221 38.181608 L 58.204221 38.094398 L 58.210921 38.013898 L 58.177381 37.873017 L 58.063334 37.705301 L 57.969414 37.604670999999996 L 57.801698 37.537580999999996 L 57.694359 37.470490999999996 L 57.587021 37.470490999999996 L 57.466265 37.490621 L 57.358927 37.557711 L 57.197919 37.658341 L 57.077163999999996 37.839475 L 57.043623999999994 37.966939 L 57.003373999999994 38.201741000000005 L 57.010073999999996 38.45667 L 57.043614 38.758559000000005 L 57.090574 39.020196000000006 L 57.157664 39.275125 L 57.285129 39.556888 L 57.459554 39.805108000000004 L 57.701065 40.102728000000006 L 57.962702 40.247879000000005 L 58.17067 40.382052 L 58.418890000000005 40.449142 L 58.593315000000004 40.469272000000004 L 58.740905000000005 40.429022 L 58.814705000000004 40.335102000000006 L 58.875085000000006 40.22105500000001 L 58.915335000000006 40.10273900000001 L 58.875085000000006 39.90574900000001 L 58.754329000000006 39.72461500000001 L 58.53965300000001 39.456269000000006 L 58.38535400000001 39.248301000000005 L 58.29814400000001 39.09400300000001 L 58.237764000000006 38.94641200000001 z" stroke-linecap="round" />
</g>
		<g transform="matrix(-5.58 0 0 5.58 38.39 -33.3)" id="path4198-9"  >
<path style="stroke: rgb(255,255,255); stroke-width: 0.05; stroke-dasharray: none; stroke-linecap: butt; stroke-dashoffset: 0; stroke-linejoin: miter; stroke-miterlimit: 4; fill: rgb(255,255,255); fill-rule: nonzero; opacity: 1;" vector-effect="non-scaling-stroke"  transform=" translate(-58.46, -22.16)" d="M 58.486527 29.29438 L 58.819111 28.870069 L 58.849161 28.870069 L 58.984377 28.689781 L 59.329930000000004 27.75829 L 59.615387000000005 26.916943999999997 L 58.131173000000004 25.782864999999997 L 58.39844 25.369467999999998 L 58.578728 24.738457999999998 L 58.569828 23.70591 L 58.398399 22.725237 L 59.104527999999995 22.319588 L 60.122052999999994 21.524897 L 61.207893999999996 20.336415 L 61.808854999999994 19.149516 L 62.034215999999994 17.947592999999998 C 62.003555999999996 17.645898999999996 62.013225999999996 17.424847999999997 61.91402399999999 16.986054999999997 L 61.808854999999994 16.520308999999997 L 61.46330199999999 17.151318999999997 L 60.98253299999999 17.932568999999997 L 60.36654799999999 18.638699 L 59.825681999999986 19.224636 L 59.17964899999998 19.750478 L 58.563662999999984 20.156127 L 58.132075999999984 20.381959000000002 L 58.15801599999998 19.525117 L 58.48854499999998 17.737257000000003 L 59.04443399999998 16.309973000000003 L 59.58529999999998 15.017906000000004 L 58.98433799999998 15.468627000000003 L 58.08289599999998 16.039540000000002 L 57.632174999999975 16.385093 L 56.986140999999975 17.031127 L 56.44527599999998 17.722233000000003 L 55.94948199999998 18.428362000000003 L 55.43866499999998 19.510093000000005 L 55.03301599999998 20.937377000000005 L 54.91282399999998 21.913939000000006 L 54.882773999999976 22.680165000000006 L 55.00296599999998 23.791944000000004 L 55.18325399999998 24.498074000000006 L 55.42363899999998 25.234252000000005 L 55.67904799999998 25.669949000000006 L 55.964503999999984 25.940382000000007 L 56.219912999999984 26.135694000000008 L 56.52039399999998 26.661535000000008 L 56.70068199999998 27.022112000000007 L 57.13637899999998 27.848434000000008 L 57.58709999999998 28.419348000000006 L 57.887580999999976 28.779925000000006 L 58.16892799999997 29.075823000000007 L 58.34763299999997 29.250891000000006 C 58.45084799999997 29.230061000000006 58.434512999999974 29.189121000000007 58.48648799999997 29.294381000000005 z" stroke-linecap="round" />
</g>
		<g transform="matrix(-5.58 0 0 5.58 43.89 27.24)" id="path4200-7"  >
<path style="stroke: rgb(255,255,255); stroke-width: 0.05; stroke-dasharray: none; stroke-linecap: butt; stroke-dashoffset: 0; stroke-linejoin: miter; stroke-miterlimit: 4; fill: rgb(255,255,255); fill-rule: nonzero; opacity: 1;" vector-effect="non-scaling-stroke"  transform=" translate(-57.47, -33.01)" d="M 58.467582 29.374041 L 57.761645 29.146319 L 57.209419000000004 28.964140999999998 L 56.645808 28.816121999999996 L 56.33269 28.747801999999997 L 56.082195999999996 28.702251999999998 L 55.911404999999995 28.730721999999997 L 55.769079 28.787651999999998 L 55.660911 28.878742 L 55.461653999999996 29.049533 L 55.359179 29.129233 L 55.290859 29.260172999999998 L 55.302248999999996 29.402499 L 55.342099 29.57329 L 55.478732 29.789626 L 55.672296 29.966110999999998 L 55.865859 30.119822999999997 L 56.173284 30.353237999999997 L 56.554718 30.558186999999997 L 56.873529 30.711899999999996 L 57.215111 30.865611999999995 L 57.915356 31.150263999999996 L 57.24927 31.247043999999995 L 56.526253000000004 31.355211999999995 L 55.917097000000005 31.423531999999994 L 55.495811 31.491851999999994 L 55.285169 31.594326999999993 L 55.125763000000006 31.759424999999993 L 55.034673000000005 31.987146999999993 L 54.966353000000005 32.226254999999995 L 54.972053 32.448283999999994 L 55.097300000000004 32.64184699999999 L 55.330715000000005 32.78417299999999 L 55.615367000000006 32.88095299999999 L 55.96264300000001 32.96635299999999 L 56.292840000000005 33.00620299999999 L 56.708432 33.02328299999999 L 57.180955000000004 33.017582999999995 L 57.568082000000004 32.983422999999995 L 57.99506100000001 32.943572999999994 L 58.09184100000001 32.92080299999999 L 57.92105000000001 32.983422999999995 L 57.65347700000001 33.074512999999996 L 57.12971700000001 33.313621 L 56.64580800000001 33.643817 L 56.40100700000001 33.843074 L 56.156206000000005 34.070796 L 55.888633000000006 34.37822 L 55.68368300000001 34.685645 L 55.56982200000001 34.930446 L 55.53566200000001 35.232177 L 55.64383000000001 35.459899 L 55.78046300000001 35.613611 L 55.911403000000014 35.699011 L 56.06511500000001 35.784411 L 56.235906000000014 35.829951 L 56.412391000000014 35.795791 L 56.66288500000002 35.704701 L 56.879221000000015 35.602226 L 57.14110100000001 35.442821 L 57.44852500000001 35.249257 L 57.65916800000001 35.129703 L 57.915355000000005 35.015842 L 58.27971000000001 34.867823 L 58.55297600000001 34.793813 L 58.67253000000001 34.759653 L 58.48466000000001 34.873514 L 58.30248200000001 35.01584 L 58.00644400000001 35.289106999999994 L 57.87550400000001 35.47697699999999 L 57.687633000000005 35.76732199999999 L 57.528228000000006 36.09751899999999 L 57.42575300000001 36.37078499999999 L 57.385903000000006 36.53588399999999 L 57.402983000000006 36.74083299999999 L 57.454223000000006 36.98563399999999 L 57.636401000000006 37.14503999999999 L 57.784420000000004 37.20196999999999 L 57.858430000000006 37.207669999999986 L 58.00075700000001 37.275989999999986 L 58.16016200000001 37.32152999999999 L 58.39357700000001 37.24751999999999 L 58.59852600000001 37.09950099999999 L 58.86610000000001 36.82623499999999 L 59.09951500000001 36.66682999999999 L 59.58911600000001 36.37079099999999 L 59.90792700000001 36.22846499999999 L 59.97624700000001 36.18861499999999 L 59.78837600000001 36.040595999999994 L 59.51511000000001 35.818566999999994 L 59.327239000000006 35.607924 L 59.12798300000001 35.351737 L 58.98565700000001 35.124015 L 58.70100400000001 34.463622 L 58.57006400000001 34.030950000000004 L 58.37650100000001 33.205459000000005 L 58.34803100000001 32.94357900000001 L 58.17154700000001 31.71957400000001 L 58.13169700000001 31.13319000000001 L 58.15446700000001 30.35893600000001 L 58.182927000000014 30.17675800000001 L 58.21139700000001 30.13121800000001 L 58.205697000000015 30.07997800000001 L 58.222777000000015 29.88641500000001 L 58.34802400000002 29.61314900000001 L 58.43342400000002 29.442357000000012 z" stroke-linecap="round" />
</g>
		<g transform="matrix(-5.58 0 0 5.58 61.06 -3.39)" id="path4202-7"  >
<path style="stroke: rgb(255,255,255); stroke-width: 0.05; stroke-dasharray: none; stroke-linecap: butt; stroke-dashoffset: 0; stroke-linejoin: miter; stroke-miterlimit: 4; fill: rgb(255,255,255); fill-rule: nonzero; opacity: 1;" vector-effect="non-scaling-stroke"  transform=" translate(-54.39, -27.52)" d="M 53.694647 27.566885 L 53.760727 27.724978999999998 L 53.914769 27.985256999999997 L 54.084747 28.266782999999997 L 54.238789 28.463318999999995 L 54.403454999999994 28.686414999999997 L 54.520315 28.813898 L 54.615925 28.888267999999997 L 54.759344 28.957317999999997 L 54.876203 28.973247999999998 L 55.035557 28.967948 L 55.189598999999994 28.893578 L 55.34364099999999 28.739536 L 55.42863099999999 28.527064000000003 L 55.43925099999999 28.330527000000004 L 55.354260999999994 28.011819000000003 L 55.19490699999999 27.831218000000003 L 54.881510999999996 27.438145000000002 L 54.53093199999999 26.933524000000002 L 54.291900999999996 26.572322000000003 L 54.148483 26.349226 L 53.978505 26.189872 L 53.856334 26.110192 L 53.681044 26.067702 L 53.500443 26.147382 L 53.378271999999996 26.269553000000002 L 53.346402 26.444842 L 53.378271999999996 26.641379 L 53.431391999999995 26.891034 L 53.521691999999994 27.156624 L 53.574811999999994 27.310666 L 53.640271999999996 27.446583 z" stroke-linecap="round" />
</g>
		<g transform="matrix(-5.58 0 0 5.58 66.74 -19.03)" id="path4204-7"  >
<path style="stroke: rgb(255,255,255); stroke-width: 0.05; stroke-dasharray: none; stroke-linecap: butt; stroke-dashoffset: 0; stroke-linejoin: miter; stroke-miterlimit: 4; fill: rgb(255,255,255); fill-rule: nonzero; opacity: 1;" vector-effect="non-scaling-stroke"  transform=" translate(-53.37, -24.72)" d="M 53.015625 23.895309 L 52.996095 24.078903 L 52.964845 24.262497 L 52.968745 24.586716 L 52.976545 24.864058999999997 L 52.988265 25.086716 L 53.011705 25.364058999999997 L 53.027335 25.528121999999996 L 53.050775 25.633590999999996 L 53.105465 25.731250999999997 L 53.171875 25.828910999999998 L 53.250005 25.871881 L 53.35938 25.918750999999997 L 53.480474 25.903120999999995 L 53.60938 25.856250999999997 L 53.691410000000005 25.758590999999996 L 53.73828 25.672650999999995 L 53.76953 25.574990999999994 L 53.777330000000006 25.489050999999993 L 53.78513000000001 25.414830999999992 L 53.74997000000001 25.367960999999994 L 53.67966000000001 25.149210999999994 L 53.58591000000001 24.785928999999992 L 53.53513000000001 24.54764799999999 L 53.515600000000006 24.41483599999999 L 53.429660000000005 24.12186699999999 L 53.335910000000005 23.79374199999999 L 53.257780000000004 23.59452299999999 L 53.222620000000006 23.53983299999999 L 53.17575000000001 23.512492999999992 L 53.10934000000001 23.58280299999999 L 53.06247000000001 23.71952199999999 L 53.03903000000001 23.82889699999999 z" stroke-linecap="round" />
</g>
		<g transform="matrix(-5.58 0 0 5.58 74.81 2.73)" id="path4206-9"  >
<path style="stroke: rgb(255,255,255); stroke-width: 0.05; stroke-dasharray: none; stroke-linecap: butt; stroke-dashoffset: 0; stroke-linejoin: miter; stroke-miterlimit: 4; fill: rgb(255,255,255); fill-rule: nonzero; opacity: 1;" vector-effect="non-scaling-stroke"  transform=" translate(-51.93, -28.62)" d="M 51.617187 27.473434 L 51.566407 27.524214 L 51.523437 27.696089 L 51.499997 27.864057 L 51.480467 28.090619999999998 L 51.468747 28.367963999999997 L 51.472647 28.551556999999995 L 51.480447000000005 28.731244999999994 L 51.511697000000005 28.957806999999995 L 51.56247700000001 29.192181999999995 L 51.62106700000001 29.426556999999995 L 51.671847000000014 29.504686999999997 L 51.71481700000001 29.617969 L 51.77340700000001 29.711719 L 51.86715700000001 29.762499 L 51.99606400000001 29.782028999999998 L 52.09762600000001 29.754689 L 52.13278600000001 29.727349 L 52.27341100000001 29.645319 L 52.33591100000001 29.555479000000002 L 52.35935100000001 29.492979000000002 L 52.38669100000001 29.395319 L 52.35935100000001 29.231257 L 52.285131000000014 29.125788 L 52.097631000000014 28.746882 L 51.98044400000001 28.410944 L 51.847631000000014 27.942194 L 51.76169100000001 27.668757 L 51.70310100000001 27.508601 L 51.67185100000001 27.453910999999998 z" stroke-linecap="round" />
</g>
		<g transform="matrix(-5.58 0 0 5.58 65.98 15.94)" id="path4208-4"  >
<path style="stroke: rgb(255,255,255); stroke-width: 0.0462801; stroke-dasharray: none; stroke-linecap: butt; stroke-dashoffset: 0; stroke-linejoin: miter; stroke-miterlimit: 4; fill: rgb(255,255,255); fill-rule: nonzero; opacity: 1;" vector-effect="non-scaling-stroke"  transform=" translate(-53.51, -30.99)" d="M 52.959082 31.405046 L 52.787207 31.241061 L 52.595801 31.097154999999997 L 52.404395 30.933169999999997 L 52.306735 30.792610999999997 L 52.216895 30.608546999999998 L 52.142675000000004 30.441214 L 52.13095500000001 30.324081999999997 L 52.133655000000005 30.136385999999998 L 52.222685000000006 30.040105999999998 L 52.316435000000006 29.984185999999998 C 52.38030500000001 29.901415999999998 52.44417000000001 29.905896 52.50803700000001 29.913285999999996 L 52.73604400000001 30.010775999999996 L 53.08511000000001 30.263564999999996 L 53.43071400000001 30.510777999999995 L 53.791945000000005 30.725058999999995 L 54.243840000000006 30.976588999999993 L 54.572374 31.164095999999994 L 54.646594 31.184175999999994 L 54.783313 31.328080999999994 L 54.841903 31.388320999999994 L 54.888773 31.495412999999996 L 54.884873 31.579082999999997 L 54.853623 31.702907999999997 L 54.798933 31.813347999999998 L 54.732523 31.913746999999997 L 54.670023 31.970646999999996 L 54.556742 32.027547 L 54.42393 32.064357 L 54.263774 32.057657 L 54.138774 32.040926999999996 L 53.877055 31.947216999999995 L 53.595805 31.793271999999995 L 53.314555 31.629286999999994 L 53.115336 31.518847999999995 z" stroke-linecap="round" />
</g>
		<g transform="matrix(-5.58 0 0 5.58 57.19 51.6)" id="path3330-2"  >
<path style="stroke: rgb(255,255,255); stroke-width: 0.05; stroke-dasharray: none; stroke-linecap: butt; stroke-dashoffset: 0; stroke-linejoin: miter; stroke-miterlimit: 4; fill: rgb(255,255,255); fill-rule: nonzero; opacity: 1;" vector-effect="non-scaling-stroke"  transform=" translate(-55.09, -37.38)" d="M 55.505118 37.437317 L 55.840554000000004 36.690201 C 55.896224000000004 36.602531 55.975702000000005 36.554544 55.954942 36.339492 C 55.901752 36.169901 55.902882000000005 36.151678 55.840597 36.049752 C 55.756727000000005 35.882003 55.672865 35.884935999999996 55.589000000000006 35.813387999999996 C 55.419867 35.697644999999994 55.324743000000005 35.76692799999999 55.205253000000006 35.775287999999996 C 54.973257000000004 35.905891 54.92389000000001 35.999967999999996 54.81644300000001 36.105661 L 54.41235900000001 37.129816 L 54.27514500000001 37.732123 L 54.214135000000006 38.418269 L 54.346284000000004 38.814716000000004 L 54.610582 39.012939 L 54.86218 38.954499000000006 L 55.001925 38.76133900000001 L 55.301832 37.95068100000001 z" stroke-linecap="round" />
</g>
		<g transform="matrix(-5.58 0 0 5.58 56.9 67.97)" id="path4100-2"  >
<path style="stroke: rgb(255,255,255); stroke-width: 0.05; stroke-dasharray: none; stroke-linecap: butt; stroke-dashoffset: 0; stroke-linejoin: miter; stroke-miterlimit: 4; fill: rgb(255,255,255); fill-rule: nonzero; opacity: 1;" vector-effect="non-scaling-stroke"  transform=" translate(-55.14, -40.32)" d="M 54.472159 39.436293 L 54.584012 39.293935 L 54.665362 39.253265 L 54.770716 39.233135 L 54.929741 39.243134999999995 L 55.06193 39.293974999999996 L 55.12294 39.436333 L 55.14328 39.517683 L 55.20429 39.670209 L 55.24496 39.832903 L 55.31614 40.102763 L 55.427993 40.381997000000005 L 55.57035 40.717555000000004 L 55.66187 40.981934 L 55.773722 41.185302 L 55.824562 41.297154 L 55.824562 41.388674 L 55.722877 41.398844000000004 L 55.550014999999995 41.317494 L 55.397487999999996 41.215810000000005 L 55.15344699999999 41.002273 L 54.960246999999995 40.737895 L 54.706036999999995 40.351495 L 54.59418399999999 40.102766 L 54.48882999999999 39.806071 L 54.45181999999999 39.588865000000006 z" stroke-linecap="round" />
</g>
		<g transform="matrix(-5.58 0 0 5.58 28.08 69.19)" id="path4102-2"  >
<path style="stroke: rgb(255,255,255); stroke-width: 0.05; stroke-dasharray: none; stroke-linecap: butt; stroke-dashoffset: 0; stroke-linejoin: miter; stroke-miterlimit: 4; fill: rgb(255,255,255); fill-rule: nonzero; opacity: 1;" vector-effect="non-scaling-stroke"  transform=" translate(-60.31, -40.53)" d="M 59.096472 40.314957 L 59.163562 40.241167 L 59.250772 40.174077 L 59.358111 40.102717 L 59.525827 40.10272 L 59.854551 40.20091 L 60.183274 40.30154 L 60.40466 40.36863 L 60.706549 40.45584 L 60.941351000000004 40.5028 L 61.216406000000006 40.56989 L 61.437791000000004 40.63698 L 61.54513000000001 40.737610000000004 L 61.511590000000005 40.79128 L 61.41096100000001 40.83824 L 61.29020500000001 40.87178 L 61.15603200000001 40.89191 L 60.96819000000001 40.93887 L 60.726679000000004 40.959 L 60.558962 40.965700000000005 L 60.304034 40.965700000000005 L 60.082649 40.945570000000004 L 59.814303 40.91874000000001 L 59.606335 40.878490000000006 L 59.344697000000004 40.818110000000004 L 59.176981000000005 40.710771 L 59.069643000000006 40.56989 L 59.069643000000006 40.388756 z" stroke-linecap="round" />
</g>
		<g transform="matrix(-5.58 0 0 5.58 41.17 60.46)" id="path4104-2"  >
<path style="stroke: rgb(255,255,255); stroke-width: 0.05; stroke-dasharray: none; stroke-linecap: butt; stroke-dashoffset: 0; stroke-linejoin: miter; stroke-miterlimit: 4; fill: rgb(255,255,255); fill-rule: nonzero; opacity: 1;" vector-effect="non-scaling-stroke"  transform=" translate(-57.96, -38.97)" d="M 58.210931 38.805512 L 58.184091 38.624378 L 58.177391 38.443245 L 58.177391 38.31578 L 58.204221 38.181608 L 58.204221 38.094398 L 58.210921 38.013898 L 58.177381 37.873017 L 58.063334 37.705301 L 57.969414 37.604670999999996 L 57.801698 37.537580999999996 L 57.694359 37.470490999999996 L 57.587021 37.470490999999996 L 57.466265 37.490621 L 57.358927 37.557711 L 57.197919 37.658341 L 57.077163999999996 37.839475 L 57.043623999999994 37.966939 L 57.003373999999994 38.201741000000005 L 57.010073999999996 38.45667 L 57.043614 38.758559000000005 L 57.090574 39.020196000000006 L 57.157664 39.275125 L 57.285129 39.556888 L 57.459554 39.805108000000004 L 57.701065 40.102728000000006 L 57.962702 40.247879000000005 L 58.17067 40.382052 L 58.418890000000005 40.449142 L 58.593315000000004 40.469272000000004 L 58.740905000000005 40.429022 L 58.814705000000004 40.335102000000006 L 58.875085000000006 40.22105500000001 L 58.915335000000006 40.10273900000001 L 58.875085000000006 39.90574900000001 L 58.754329000000006 39.72461500000001 L 58.53965300000001 39.456269000000006 L 58.38535400000001 39.248301000000005 L 58.29814400000001 39.09400300000001 L 58.237764000000006 38.94641200000001 z" stroke-linecap="round" />
</g>
</g>
</g>
</svg>