<?xml version="1.0" encoding="UTF-8" standalone="no" ?>
<!DOCTYPE svg PUBLIC "-//W3C//DTD SVG 1.1//EN" "http://www.w3.org/Graphics/SVG/1.1/DTD/svg11.dtd">
<svg xmlns="http://www.w3.org/2000/svg" xmlns:xlink="http://www.w3.org/1999/xlink" version="1.1" width="1080" height="1080" viewBox="0 0 1080 1080" xml:space="preserve">
<desc>Created with Fabric.js 5.2.4</desc>
<defs>
</defs>
<g transform="matrix(1 0 0 1 540 540)" id="65c74a0a-0b1e-42f5-b997-fa16650f8386"  >
<rect style="stroke: none; stroke-width: 1; stroke-dasharray: none; stroke-linecap: butt; stroke-dashoffset: 0; stroke-linejoin: miter; stroke-miterlimit: 4; fill: rgb(255,255,255); fill-rule: nonzero; opacity: 1; visibility: hidden;" vector-effect="non-scaling-stroke"  x="-540" y="-540" rx="0" ry="0" width="1080" height="1080" />
</g>
<g transform="matrix(1 0 0 1 540 540)" id="6d4c26f7-d22e-4a4a-a95f-a5bbebf57496"  >
</g>
<g transform="matrix(5.03 0 0 5.03 539.47 539.47)"  >
<g style="" vector-effect="non-scaling-stroke"   >
		<g transform="matrix(5.8 0 0 5.69 0 0)" id="path3230-2-8-3"  >
<path style="stroke: rgb(246,141,47); stroke-width: 3; stroke-dasharray: none; stroke-linecap: round; stroke-dashoffset: 0; stroke-linejoin: round; stroke-miterlimit: 4; fill: rgb(246,141,47); fill-rule: nonzero; opacity: 1;" vector-effect="non-scaling-stroke"  transform=" translate(-21.57, -29.29)" d="M 39.936842 29.287827 C 39.936842 39.626815 31.715082 48.008221 21.573027 48.008221 C 11.430972 48.008221 3.2092112999999998 39.626815 3.2092112999999998 29.287827 C 3.2092112999999998 18.948838000000002 11.430972 10.567432 21.573027 10.567432 C 31.715082 10.567432 39.936842 18.948838000000002 39.936842 29.287827 z" stroke-linecap="round" />
</g>
		<g transform="matrix(5.58 0 0 5.58 -50.93 2.76)" id="path4366"  >
<path style="stroke: rgb(254,254,254); stroke-width: 0.05; stroke-dasharray: none; stroke-linecap: butt; stroke-dashoffset: 0; stroke-linejoin: miter; stroke-miterlimit: 4; fill: rgb(254,254,254); fill-rule: nonzero; opacity: 1;" vector-effect="non-scaling-stroke"  transform=" translate(-101.42, -29.13)" d="M 95.369673 28.150133 L 95.82381400000001 26.144343 L 96.31580000000001 24.630537999999998 C 96.55824500000001 24.107276999999996 96.75439000000001 23.515020999999997 97.186238 22.865491999999996 L 98.021557 21.795882999999996 C 98.245444 21.481849999999998 98.621329 21.205815999999995 98.964958 20.921717999999995 L 100.06246999999999 20.467575999999994 C 100.46759999999999 20.397305999999993 100.87272999999999 20.419355999999993 101.27785999999999 20.507355999999994 C 101.70128999999999 20.623172999999994 101.99047999999999 20.752414999999996 102.25747999999999 20.883874999999993 C 102.68622999999998 21.092104999999993 103.01857999999999 21.348533999999994 103.35498999999999 21.602931999999992 L 104.37680999999999 22.700439999999993 C 104.81665 23.138286999999995 105.11851999999999 23.662366999999993 105.43646999999999 24.176398999999993 L 106.04198999999998 25.198216999999993 L 106.57181999999999 26.409259999999993 L 107.13949999999998 27.998754999999992 L 107.51794999999998 29.626094999999992 L 107.63148999999999 30.610066999999994 L 107.63148999999999 31.631884999999993 L 107.48010999999998 32.57801299999999 L 107.29087999999999 33.48629599999999 L 107.02596999999999 34.31888799999999 L 106.42043999999999 35.37855099999999 L 105.77707999999998 36.09760799999999 L 104.98232999999999 36.77881999999999 L 104.0362 37.38434199999999 L 102.7889 37.71286199999999 C 102.21114 37.839584999999985 101.80392 37.753931999999985 101.42489 37.83848299999999 L 99.835395 37.687102999999986 L 98.359436 36.96804599999999 L 97.22408300000001 36.17329799999999 C 96.761492 35.58039099999999 96.342837 34.987484999999985 96.013039 34.39457799999999 L 95.445363 32.95646399999999 L 95.256137 31.89680099999999 L 95.217497 30.280753999999988 L 95.293977 29.20979799999999 z" stroke-linecap="round" />
</g>
		<g transform="matrix(5.58 0 0 5.58 -62.21 -22.05)" id="path4368"  >
<path style="stroke: rgb(246,141,47); stroke-width: 0.05; stroke-dasharray: none; stroke-linecap: butt; stroke-dashoffset: 0; stroke-linejoin: miter; stroke-miterlimit: 4; fill: rgb(246,141,47); fill-rule: nonzero; opacity: 1;" vector-effect="non-scaling-stroke"  transform=" translate(-99.4, -24.68)" d="M 98.963649 26.419631 L 99.288202 25.371076 L 99.712617 24.547210999999997 L 100.36171999999999 23.748312 L 101.03577999999999 23.311415 L 101.23552 23.07424 L 101.31042 22.587403 C 101.29542 22.475590999999998 101.17564999999999 22.328888 100.96091 22.150512999999997 L 100.66132 22.025684999999996 L 100.33677 22.025684999999996 L 99.687661 22.475065999999995 L 99.31317700000001 22.824583999999994 L 98.93869300000001 23.174102999999995 L 98.48931200000001 23.748311999999995 L 98.18972500000001 24.297554999999996 L 97.99000000000001 24.846797999999996 L 97.74034400000001 25.495903999999996 L 97.56558500000001 26.194940999999996 L 97.49068500000001 26.694252999999996 L 97.49068500000001 26.869011999999998 L 97.71537600000002 27.093701999999997 L 97.98999700000002 27.293426999999998 L 98.42688400000002 27.343346999999998 L 98.81386200000001 27.093701 L 98.90125200000001 26.781633 z" stroke-linecap="round" />
</g>
		<g transform="matrix(0.45 5.56 -5.56 0.45 37.48 21.51)" id="path4366-3"  >
<path style="stroke: rgb(254,254,254); stroke-width: 0.05; stroke-dasharray: none; stroke-linecap: butt; stroke-dashoffset: 0; stroke-linejoin: miter; stroke-miterlimit: 4; fill: rgb(254,254,254); fill-rule: nonzero; opacity: 1;" vector-effect="non-scaling-stroke"  transform=" translate(-101.42, -29.13)" d="M 95.369673 28.150133 L 95.82381400000001 26.144343 L 96.31580000000001 24.630537999999998 C 96.55824500000001 24.107276999999996 96.75439000000001 23.515020999999997 97.186238 22.865491999999996 L 98.021557 21.795882999999996 C 98.245444 21.481849999999998 98.621329 21.205815999999995 98.964958 20.921717999999995 L 100.06246999999999 20.467575999999994 C 100.46759999999999 20.397305999999993 100.87272999999999 20.419355999999993 101.27785999999999 20.507355999999994 C 101.70128999999999 20.623172999999994 101.99047999999999 20.752414999999996 102.25747999999999 20.883874999999993 C 102.68622999999998 21.092104999999993 103.01857999999999 21.348533999999994 103.35498999999999 21.602931999999992 L 104.37680999999999 22.700439999999993 C 104.81665 23.138286999999995 105.11851999999999 23.662366999999993 105.43646999999999 24.176398999999993 L 106.04198999999998 25.198216999999993 L 106.57181999999999 26.409259999999993 L 107.13949999999998 27.998754999999992 L 107.51794999999998 29.626094999999992 L 107.63148999999999 30.610066999999994 L 107.63148999999999 31.631884999999993 L 107.48010999999998 32.57801299999999 L 107.29087999999999 33.48629599999999 L 107.02596999999999 34.31888799999999 L 106.42043999999999 35.37855099999999 L 105.77707999999998 36.09760799999999 L 104.98232999999999 36.77881999999999 L 104.0362 37.38434199999999 L 102.7889 37.71286199999999 C 102.21114 37.839584999999985 101.80392 37.753931999999985 101.42489 37.83848299999999 L 99.835395 37.687102999999986 L 98.359436 36.96804599999999 L 97.22408300000001 36.17329799999999 C 96.761492 35.58039099999999 96.342837 34.987484999999985 96.013039 34.39457799999999 L 95.445363 32.95646399999999 L 95.256137 31.89680099999999 L 95.217497 30.280753999999988 L 95.293977 29.20979799999999 z" stroke-linecap="round" />
</g>
		<g transform="matrix(0.45 5.56 -5.56 0.45 61.29 8.25)" id="path4368-7"  >
<path style="stroke: rgb(246,141,47); stroke-width: 0.05; stroke-dasharray: none; stroke-linecap: butt; stroke-dashoffset: 0; stroke-linejoin: miter; stroke-miterlimit: 4; fill: rgb(246,141,47); fill-rule: nonzero; opacity: 1;" vector-effect="non-scaling-stroke"  transform=" translate(-99.4, -24.68)" d="M 98.963649 26.419631 L 99.288202 25.371076 L 99.712617 24.547210999999997 L 100.36171999999999 23.748312 L 101.03577999999999 23.311415 L 101.23552 23.07424 L 101.31042 22.587403 C 101.29542 22.475590999999998 101.17564999999999 22.328888 100.96091 22.150512999999997 L 100.66132 22.025684999999996 L 100.33677 22.025684999999996 L 99.687661 22.475065999999995 L 99.31317700000001 22.824583999999994 L 98.93869300000001 23.174102999999995 L 98.48931200000001 23.748311999999995 L 98.18972500000001 24.297554999999996 L 97.99000000000001 24.846797999999996 L 97.74034400000001 25.495903999999996 L 97.56558500000001 26.194940999999996 L 97.49068500000001 26.694252999999996 L 97.49068500000001 26.869011999999998 L 97.71537600000002 27.093701999999997 L 97.98999700000002 27.293426999999998 L 98.42688400000002 27.343346999999998 L 98.81386200000001 27.093701 L 98.90125200000001 26.781633 z" stroke-linecap="round" />
</g>
		<g transform="matrix(5.58 0 0 5.58 6.15 -42.88)" id="path3388"  >
<path style="stroke: rgb(254,254,254); stroke-width: 0.05; stroke-dasharray: none; stroke-linecap: butt; stroke-dashoffset: 0; stroke-linejoin: miter; stroke-miterlimit: 4; fill: rgb(254,254,254); fill-rule: nonzero; opacity: 1;" vector-effect="non-scaling-stroke"  transform=" translate(-111.66, -20.95)" d="M 105.65214 21.837485 C 105.98138 20.809169 106.44630000000001 19.86226 106.9896 18.962375 C 107.64198999999999 17.935688000000003 108.29588 16.917982000000002 108.99025999999999 16.14327 C 109.57979999999999 15.508662000000001 110.21641 14.934165 111.05523 14.632243 C 111.5944 14.300586000000001 112.13355999999999 14.244140000000002 112.67273 14.252407000000002 C 113.3103 14.380075000000001 113.92682 14.763880000000002 114.47875 15.148488000000002 C 115.08799 15.701728000000003 115.40287000000001 16.124145000000002 115.6288 16.507025000000002 C 116.07848 17.325475 116.52539 18.143925000000003 116.76553 18.962375 L 117.2967 20.989647 C 117.41999 21.777485000000002 117.54327 22.800784 117.66656 23.886383000000002 L 117.66656 24.955012000000004 L 116.17443 24.827933000000005 C 115.36244 24.822833000000006 114.51066 24.797863000000007 113.94531 24.916103000000007 C 112.98941 24.945593000000006 112.23943000000001 25.335465000000006 111.44561 25.64860300000001 L 110.13809 26.509750000000007 L 108.85385000000001 27.647042000000006 L 107.85352 25.237161000000008 C 107.67183 24.808348000000006 107.36448 24.253871000000007 106.96853 23.610796000000008 C 106.58648 23.08779000000001 106.23949 22.606853000000008 105.65214 21.837488000000008 z" stroke-linecap="round" />
</g>
		<g transform="matrix(5.58 0 0 5.58 2.36 -57.49)" id="path4368-1"  >
<path style="stroke: rgb(246,141,47); stroke-width: 0.05; stroke-dasharray: none; stroke-linecap: butt; stroke-dashoffset: 0; stroke-linejoin: round; stroke-miterlimit: 4; fill: rgb(246,141,47); fill-rule: nonzero; opacity: 1;" vector-effect="non-scaling-stroke"  transform=" translate(-110.98, -18.33)" d="M 110.34468 20.001307 L 110.79178999999999 18.998867 L 111.31130999999999 18.231412 L 112.05094 17.515503 L 112.77223 17.161993 L 112.99879999999999 16.950294 L 113.13113999999999 16.475842 C 113.12913999999999 16.36304 113.02811999999999 16.203117 112.83614999999999 16.000437 L 112.55355999999999 15.840817000000001 L 112.23132 15.802167 L 111.53331 16.171044000000002 L 111.11987 16.473475 L 110.70642000000001 16.775907 L 110.19185 17.29251 L 109.82899 17.802166 L 109.56527 18.323712999999998 L 109.24007999999999 18.938466 L 108.98333 19.611715999999998 L 108.84948999999999 20.098553999999996 L 108.82869 20.272068999999995 L 109.02502 20.521918999999993 L 109.2739 20.752928999999995 L 109.70173 20.854523999999994 L 110.11568 20.652741999999993 L 110.23962999999999 20.353303999999994 z" stroke-linecap="round" />
</g>
</g>
</g>
</svg>