<?xml version="1.0" encoding="UTF-8" standalone="no" ?>
<!DOCTYPE svg PUBLIC "-//W3C//DTD SVG 1.1//EN" "http://www.w3.org/Graphics/SVG/1.1/DTD/svg11.dtd">
<svg xmlns="http://www.w3.org/2000/svg" xmlns:xlink="http://www.w3.org/1999/xlink" version="1.1" width="1080" height="1080" viewBox="0 0 1080 1080" xml:space="preserve">
<desc>Created with Fabric.js 5.2.4</desc>
<defs>
</defs>
<g transform="matrix(1 0 0 1 540 540)" id="a22aca14-bd8b-43f4-95c6-c4dbf1664652"  >
<rect style="stroke: none; stroke-width: 1; stroke-dasharray: none; stroke-linecap: butt; stroke-dashoffset: 0; stroke-linejoin: miter; stroke-miterlimit: 4; fill: rgb(255,255,255); fill-rule: nonzero; opacity: 1; visibility: hidden;" vector-effect="non-scaling-stroke"  x="-540" y="-540" rx="0" ry="0" width="1080" height="1080" />
</g>
<g transform="matrix(1 0 0 1 540 540)" id="1f045698-64a4-4107-b8c5-dded60c8adde"  >
</g>
<g transform="matrix(5 0 0 5 540 540)"  >
<g style="" vector-effect="non-scaling-stroke"   >
		<g transform="matrix(5.8 0 0 5.69 0 0)" id="path3230-2-8"  >
<path style="stroke: rgb(40,66,157); stroke-width: 3; stroke-dasharray: none; stroke-linecap: round; stroke-dashoffset: 0; stroke-linejoin: round; stroke-miterlimit: 4; fill: rgb(40,66,157); fill-rule: nonzero; opacity: 1;" vector-effect="non-scaling-stroke"  transform=" translate(-21.57, -29.29)" d="M 39.936842 29.287827 C 39.936842 39.626815 31.715082 48.008221 21.573027 48.008221 C 11.430972 48.008221 3.2092112999999998 39.626815 3.2092112999999998 29.287827 C 3.2092112999999998 18.948838000000002 11.430972 10.567432 21.573027 10.567432 C 31.715082 10.567432 39.936842 18.948838000000002 39.936842 29.287827 z" stroke-linecap="round" />
</g>
		<g transform="matrix(5.58 0 0 5.58 0 0)" id="path4134"  >
<path style="stroke: rgb(195,234,216); stroke-width: 0.05; stroke-dasharray: none; stroke-linecap: butt; stroke-dashoffset: 0; stroke-linejoin: miter; stroke-miterlimit: 4; fill: rgb(195,234,216); fill-rule: nonzero; opacity: 1;" vector-effect="non-scaling-stroke"  transform=" translate(-154.45, -29.07)" d="M 139.75943 30.792767 L 141.03485 30.193328 L 139.53208 28.973989 C 139.73329 28.64383 139.91831000000002 28.313671 140.20049 27.983512 C 140.77139 27.311339 141.23256 26.632308000000002 142.00941 25.973006 C 142.63803000000001 25.478751000000003 143.24135 24.960063 144.00173 24.614228 C 144.57119 24.322037 145.19847000000001 24.08767 145.83794 23.865492 C 146.749 23.618808 147.81566 23.378109 149.09431 23.145564 C 149.57078 22.999919000000002 150.09054 22.906223 150.50386 22.684806000000002 L 151.29048 21.693574 C 151.7465 21.312088000000003 152.16686 20.921687000000002 152.72883000000002 20.566687 C 153.22157 20.345876 153.54753000000002 20.082177 154.50214000000003 19.980131 C 154.85509000000002 19.909801 155.19926000000004 19.962571 155.53809000000004 20.090015 C 155.75924000000003 20.202663 155.94715000000005 20.339064 155.97232000000005 20.591698 C 155.92882000000006 20.897353000000003 155.82681000000005 21.203009 155.64191000000005 21.508664 L 154.77799000000005 22.963686 C 154.68739000000005 23.170669 154.52998000000005 23.310826 154.51502000000005 23.593435 C 155.25971000000004 23.824186 156.00440000000006 24.038785999999998 156.74908000000005 24.350507 C 157.45712000000006 24.564677 158.00915000000006 24.865513 158.59742000000006 25.14622 C 159.29316000000006 25.414489 159.74096000000006 25.682759 160.23508000000007 25.951028 C 161.03239000000008 26.411027 161.67697000000007 26.871026 162.35395000000005 27.331025 L 163.16559000000007 28.022163 C 163.52634000000006 27.501576999999997 163.77418000000006 27.08688 164.59029000000007 26.458769999999998 C 165.12710000000007 26.095881999999996 165.62391000000008 25.718873999999996 166.39089000000007 25.437222999999996 C 167.00430000000006 25.292472999999998 167.54783000000006 25.099678999999995 168.37335000000007 25.100749999999994 C 168.69376000000008 25.115659999999995 169.25971000000007 25.121019999999994 169.36307000000008 25.362197999999996 L 168.49461000000008 26.063944999999997 C 168.1283200000001 26.361557999999995 167.76204000000007 26.798183999999996 167.39576000000008 27.202194999999996 C 166.98225000000008 27.837748999999995 166.77390000000008 28.268134999999997 166.62732000000008 28.636757999999997 C 166.52422000000007 29.027289999999997 166.38420000000008 29.417820999999996 166.44241000000008 29.808352999999997 C 166.44541000000007 30.236338999999997 166.75300000000007 30.778636999999996 166.96380000000008 31.284594999999996 L 168.05582000000007 32.618362999999995 L 169.36080000000007 33.758891 C 169.13102000000006 34.129987 169.16412000000008 34.028843 168.56584000000007 34.325742 C 168.10761000000008 34.451243999999996 167.64938000000006 34.433491 167.19115000000008 34.376522 L 166.05441000000008 33.967297 C 165.61879000000008 33.652207000000004 165.10249000000007 33.356789 164.84037000000006 33.028352000000005 L 163.75366000000005 31.934813000000005 L 163.14209000000005 31.175474000000005 C 162.90517000000006 31.532968000000004 162.62243000000007 31.864275000000006 162.28651000000005 32.165192000000005 C 161.81669000000005 32.56693800000001 161.31818000000004 32.89691500000001 160.82088000000005 33.229935000000005 L 159.65156000000005 33.834680000000006 L 158.35416000000004 34.406836000000006 C 157.37299000000004 34.80932500000001 156.38016000000005 35.153463 155.38500000000005 35.485975 L 154.10353000000003 35.861099 C 154.08033000000003 36.126827000000006 154.21184000000002 36.315187 154.41423000000003 36.468116 L 155.31832000000003 37.121361 L 156.04659000000004 37.763998 C 155.80637000000004 37.964455 155.46173000000005 38.043097 155.14174000000003 38.150486 C 154.85452000000004 38.225416 154.47288000000003 38.190196 154.10429000000002 38.170196000000004 C 153.52491000000003 37.99904900000001 153.04904000000002 37.75200100000001 152.68185000000003 37.42525200000001 L 152.08922 36.869769000000005 L 151.53071 36.13846600000001 C 151.1662 35.97973900000001 150.80169 35.88932600000001 150.43717 35.82927600000001 L 148.13945 35.558732000000006 C 147.05509 35.48117200000001 145.95745000000002 35.323995000000004 144.83079 34.99264000000001 C 143.97612 34.66368100000001 143.15851 34.260602000000006 142.40272000000002 33.73389100000001 C 141.788 33.20406500000001 141.20602000000002 32.681796000000006 140.7734 32.193993000000006 z" stroke-linecap="round" />
</g>
		<g transform="matrix(7.85 0 0 7.85 -47.32 -7.31)" id="path4140"  >
<path style="stroke: rgb(40,66,157); stroke-width: 0.05; stroke-dasharray: none; stroke-linecap: butt; stroke-dashoffset: 0; stroke-linejoin: miter; stroke-miterlimit: 4; fill: rgb(40,66,157); fill-rule: nonzero; opacity: 1;" vector-effect="non-scaling-stroke"  transform=" translate(-148.47, -30.27)" d="M 149.31198 30.271761 C 149.31198 30.734061 148.93721 31.108829 148.47491 31.108829 C 148.01261 31.108829 147.63785 30.734061 147.63785 30.271761 C 147.63785 29.809461000000002 148.01261 29.434693000000003 148.47491 29.434693000000003 C 148.93721 29.434693000000003 149.31198 29.809461000000002 149.31198 30.271761 z" stroke-linecap="round" />
</g>
		<g transform="matrix(5.58 0 0 5.58 -25.24 1.35)" id="path4142"  >
<path style="stroke: rgb(40,66,157); stroke-width: 0.05; stroke-dasharray: none; stroke-linecap: butt; stroke-dashoffset: 0; stroke-linejoin: miter; stroke-miterlimit: 4; fill: rgb(40,66,157); fill-rule: nonzero; opacity: 1;" vector-effect="non-scaling-stroke"  transform=" translate(-149.92, -29.31)" d="M 148.19466 34.658821 L 148.88105 34.047217 L 149.72527 32.997387 L 150.32704999999999 31.819993000000004 C 150.49591999999998 31.462602000000004 150.64775999999998 31.031346000000003 150.70397999999997 30.589469000000005 L 150.80742999999998 29.588257000000006 C 150.80142999999998 29.151259000000007 150.79552999999999 28.714672000000007 150.70644 28.222400000000007 C 150.62403999999998 27.713807000000006 150.49742999999998 27.190464000000006 150.28780999999998 26.63945900000001 L 149.69911 25.39665400000001 L 148.99267 24.31083600000001 L 148.78336000000002 23.97069900000001 L 149.28745 24.40812400000001 L 150.10386 25.255608000000013 L 150.49101 25.772779000000014 L 151.04657 26.770281000000015 L 151.33438 27.581374000000014 L 151.51753000000002 28.209318000000014 L 151.62219000000002 28.798015000000014 L 151.64839 29.596027000000014 L 151.59609 30.367874000000015 L 151.41294 31.165885000000014 L 151.19992 31.860041000000013 L 150.79808 32.51334700000001 L 150.45795 32.97122300000001 L 149.99636 33.48228000000001 L 149.26953 34.03538900000001 L 148.53487 34.52799900000001 z" stroke-linecap="round" />
</g>
</g>
</g>
</svg>