<?xml version="1.0" encoding="UTF-8" standalone="no" ?>
<!DOCTYPE svg PUBLIC "-//W3C//DTD SVG 1.1//EN" "http://www.w3.org/Graphics/SVG/1.1/DTD/svg11.dtd">
<svg xmlns="http://www.w3.org/2000/svg" xmlns:xlink="http://www.w3.org/1999/xlink" version="1.1" width="1080" height="1080" viewBox="0 0 1080 1080" xml:space="preserve">
<desc>Created with Fabric.js 5.2.4</desc>
<defs>
</defs>
<g transform="matrix(1 0 0 1 540 540)" id="7bf8b9bb-8292-4e1f-9242-285122eb2213"  >
<rect style="stroke: none; stroke-width: 1; stroke-dasharray: none; stroke-linecap: butt; stroke-dashoffset: 0; stroke-linejoin: miter; stroke-miterlimit: 4; fill: rgb(255,255,255); fill-rule: nonzero; opacity: 1; visibility: hidden;" vector-effect="non-scaling-stroke"  x="-540" y="-540" rx="0" ry="0" width="1080" height="1080" />
</g>
<g transform="matrix(1 0 0 1 540 540)" id="22812202-769a-40c0-a274-213e04f90d9b"  >
</g>
<g transform="matrix(4.93 0 0 4.93 540 540)"  >
<g style="" vector-effect="non-scaling-stroke"   >
		<g transform="matrix(5.8 0 0 5.69 0 -1.53)" id="path3230"  >
<path style="stroke: rgb(244,112,57); stroke-width: 3; stroke-dasharray: none; stroke-linecap: round; stroke-dashoffset: 0; stroke-linejoin: round; stroke-miterlimit: 4; fill: rgb(244,112,57); fill-rule: nonzero; opacity: 1;" vector-effect="non-scaling-stroke"  transform=" translate(-21.57, -29.29)" d="M 39.936842 29.287827 C 39.936842 39.626815 31.715082 48.008221 21.573027 48.008221 C 11.430972 48.008221 3.2092112999999998 39.626815 3.2092112999999998 29.287827 C 3.2092112999999998 18.948838000000002 11.430972 10.567432 21.573027 10.567432 C 31.715082 10.567432 39.936842 18.948838000000002 39.936842 29.287827 z" stroke-linecap="round" />
</g>
		<g transform="matrix(5.58 0 0 5.58 21.18 56.88)" id="path3243"  >
<path style="stroke: rgb(255,255,255); stroke-width: 0.05; stroke-dasharray: none; stroke-linecap: round; stroke-dashoffset: 0; stroke-linejoin: round; stroke-miterlimit: 4; fill: rgb(255,255,255); fill-rule: nonzero; opacity: 1;" vector-effect="non-scaling-stroke"  transform=" translate(-25, -39.6)" d="M 14.373857 48.665693 L 15.784821999999998 46.377975 L 17.240031 44.280947 L 16.924856 44.091842 L 16.672717 43.808185 L 16.420578 43.083285000000004 L 16.465148 42.074727 L 17.050924 40.278234000000005 L 17.775824999999998 38.891467000000006 L 18.469208 37.88291 L 18.595277999999997 38.73388 L 18.658317999999998 40.372786 L 18.611838 41.601966 L 18.500736 42.76811 L 19.320189 41.885623 L 20.328746 40.908582 L 20.864542 40.372786000000005 L 20.580886 39.93154200000001 L 20.532816 39.399570000000004 L 20.643918 38.828433000000004 L 20.825703 38.398332 L 21.242749 37.504701000000004 L 21.999168 36.464626 L 22.471929 35.928830000000005 L 22.988205 35.360812 L 23.612218000000002 33.901067000000005 L 24.191659 32.21846000000001 L 23.968797000000002 33.143336000000005 L 23.623361000000003 34.291075000000006 L 23.222210000000004 35.427670000000006 L 23.010491000000005 36.998847000000005 L 22.798772000000007 38.13544100000001 L 22.553624000000006 39.01574600000001 L 24.481379000000008 37.67857500000001 L 24.26966000000001 37.399997000000006 L 24.19166000000001 37.02113200000001 L 24.258520000000008 36.43054800000001 L 24.62624200000001 35.650532000000005 L 25.66255000000001 34.43593500000001 L 26.598569000000012 33.60020300000001 L 26.910576000000013 33.366198000000004 L 27.646020000000014 32.118172 L 28.247747000000015 30.892432 L 27.790880000000016 32.006741 L 27.356300000000015 32.875901999999996 L 27.044293000000014 33.47762899999999 L 26.743430000000014 34.79251399999999 L 26.364565000000013 35.88453699999999 L 25.941127000000012 36.84284299999999 L 27.969170000000013 35.895679999999984 L 27.757451000000014 35.550243999999985 L 27.724021000000015 35.126806999999985 L 27.980312000000016 34.491649999999986 L 28.314605000000014 34.01249699999999 L 29.016619000000013 33.29933999999999 L 29.696348000000015 32.797899999999984 L 30.309218000000016 32.40789199999998 L 30.442935000000016 32.307603999999984 L 30.910945000000016 31.683590999999982 L 31.401241000000017 31.00386299999998 L 31.690961000000016 30.58042499999998 L 31.936109000000016 30.15698799999998 L 31.534958000000017 30.92586099999998 L 31.033519000000016 31.72816399999998 L 30.587795000000018 32.39674899999998 L 30.197787000000016 33.42191399999998 L 29.796636000000017 34.34678999999998 L 29.373198000000016 35.071090999999974 L 29.061192000000016 35.49452899999997 L 30.179441000000015 35.13277399999997 L 31.601817000000015 34.72565499999997 L 31.761760000000013 34.69357499999997 L 31.855520000000013 34.681074999999964 L 31.86925000000001 34.658784999999966 L 31.75129200000001 34.41160899999996 C 31.75144800000001 34.37681899999996 31.74229200000001 34.33658899999996 31.74119200000001 34.30499899999996 C 31.73779200000001 34.20989899999996 31.742992000000008 34.12953399999996 31.78146200000001 34.00201799999996 C 31.87659200000001 33.755173999999954 31.99646700000001 33.56861699999995 32.216043000000006 33.37474099999996 C 32.447897000000005 33.17142699999996 32.67424700000001 32.95160199999996 32.92593600000001 32.807794999999956 L 33.454162000000004 32.472150999999954 L 33.603637000000006 32.383010999999954 L 34.053301000000005 31.817300999999954 L 34.298449000000005 31.494151999999954 L 34.487882000000006 31.215573999999954 L 34.109016000000004 31.817300999999954 L 33.62986300000001 32.485886999999956 L 33.49614600000001 32.664175999999955 L 33.19066700000001 33.277045999999956 L 32.95531000000001 33.74043999999996 L 32.63812800000001 34.24649499999996 L 32.28728500000001 34.606453999999964 L 32.90882700000001 34.47791699999996 L 33.67511200000001 34.35140399999996 L 34.38635700000001 34.26293399999996 L 35.43178000000001 34.14621599999996 L 34.47347400000001 34.29107599999996 C 33.75856100000001 34.36262599999996 33.10173800000001 34.54067599999996 32.44869600000001 34.72565599999996 L 33.16185400000001 34.91508899999996 L 33.77472400000001 35.18252299999996 L 34.097873000000014 35.31623999999996 L 34.733030000000014 35.41652799999996 L 35.62447700000001 35.62824699999996 L 34.62159900000001 35.43881399999996 L 34.12015900000001 35.405383999999955 L 33.49614600000001 35.527957999999956 L 32.56012700000001 35.628245999999955 L 31.947257000000008 35.561385999999956 L 31.62410700000001 35.416525999999955 L 31.39010200000001 35.16023499999996 L 31.34553200000001 35.048803999999954 C 30.82362200000001 35.141283999999956 30.32927800000001 35.35779899999996 29.82680700000001 35.53774799999995 L 28.71576200000001 36.01825299999995 L 29.116913000000007 36.07396299999995 L 30.075219000000008 36.27453899999995 L 30.68808900000001 36.475114999999946 L 31.60182300000001 36.775977999999945 L 31.991831000000012 36.80940799999995 L 32.89442100000001 36.93198199999995 L 33.62986500000001 37.07684199999995 L 34.18702000000001 37.22170199999995 L 33.22871400000001 37.06569899999995 L 32.14783400000001 36.95426799999995 L 31.56839300000001 36.94312799999995 L 30.94438000000001 37.177132999999955 L 29.963788000000008 37.38885099999995 L 28.938624000000008 37.51142499999995 L 28.25889500000001 37.46685499999995 L 27.81317100000001 37.333137999999956 L 27.467736000000013 37.07684699999996 L 27.244874000000014 36.75369699999996 L 26.308854000000014 37.25513599999996 L 25.383977000000016 37.83457699999996 L 26.097135000000016 37.84571699999996 L 27.133443000000014 38.001719999999956 L 28.047176000000015 38.168866999999956 L 28.838336000000016 38.36944199999996 L 29.506921000000016 38.34715199999996 L 30.142078000000016 38.358291999999956 L 30.944380000000017 38.425151999999954 L 31.345532000000016 38.44744199999995 L 31.735540000000018 38.50316199999995 L 30.57665800000002 38.46973199999995 L 28.73804800000002 38.581162999999954 L 28.14746400000002 38.80402499999995 L 27.61259600000002 39.03802999999996 L 26.386856000000023 39.40575199999996 L 25.47312200000002 39.52832599999996 L 24.837966000000023 39.494895999999954 L 24.414528000000022 39.394607999999955 L 24.113665000000022 39.205174999999954 L 23.85737400000002 38.926597999999956 C 23.17002900000002 39.180658999999956 22.77164800000002 39.691575999999955 22.341913000000023 40.17462399999996 L 23.066214000000024 40.11891399999996 L 23.857374000000025 40.107773999999964 L 24.615104000000024 40.141203999999966 L 25.395121000000024 40.208063999999965 L 25.829701000000025 40.297203999999965 L 26.397999000000024 40.208063999999965 L 27.066584000000024 40.13006399999996 L 27.746313000000022 40.06320399999996 L 28.33689700000002 40.01863399999996 L 29.194915000000023 40.007493999999966 L 28.314611000000024 40.09664399999996 L 26.955153000000024 40.28607599999996 L 25.985704000000023 40.49779499999996 L 25.149972000000023 41.01037699999996 L 24.091379000000025 41.534102999999966 L 23.277933000000026 41.85725199999997 L 22.431058000000025 42.09125699999997 L 21.595326000000025 42.13582699999997 L 21.149602000000026 42.03553899999997 L 20.859882000000027 41.91296499999997 L 20.681593000000028 41.779247999999974 C 19.98795900000003 42.34478299999997 19.488096000000027 43.10408999999997 18.93212700000003 43.80728999999997 L 19.64528500000003 43.629000999999974 L 20.54787600000003 43.45071099999998 L 21.39475100000003 43.32813699999998 L 22.018764000000033 43.26127699999998 L 22.587061000000034 43.20555699999998 L 23.099644000000033 43.02726799999998 L 23.901946000000034 42.74869099999998 L 24.693106000000036 42.52582899999998 L 25.439693000000037 42.33639599999998 L 26.097135000000037 42.18039299999998 L 25.239117000000036 42.45896999999998 L 24.358813000000037 42.74869099999998 L 23.445079000000035 43.10526899999998 L 22.709635000000034 43.42841899999998 L 22.475630000000034 43.55099299999998 L 21.372464000000033 44.49815599999998 L 20.547876000000034 45.14445499999998 L 19.567283000000035 45.71275299999998 L 18.876412000000034 46.035902999999976 L 18.374973000000033 46.158476999999976 L 17.851247000000033 46.20304699999998 L 17.550384000000033 46.14733699999998 L 17.327522000000034 46.069336999999976 C 16.569376000000034 47.02235899999997 16.101962000000032 48.033527999999976 15.633772000000034 49.04454199999998 z" stroke-linecap="round" />
</g>
		<g transform="matrix(5.58 0 0 5.58 -15.1 -5.78)" id="path4021"  >
<path style="stroke: rgb(255,255,255); stroke-width: 0.05; stroke-dasharray: none; stroke-linecap: round; stroke-dashoffset: 0; stroke-linejoin: round; stroke-miterlimit: 4; fill: rgb(255,255,255); fill-rule: nonzero; opacity: 1;" vector-effect="non-scaling-stroke"  transform=" translate(-18.49, -28.36)" d="M 9.100656 46.101078 L 10.164369 46.770823 L 10.526819000000001 44.824622 L 11.007460000000002 42.783868999999996 L 11.566894000000001 40.538253 L 11.732361000000001 40.601282999999995 L 12.173605 40.735231999999996 L 12.733039 40.743131999999996 L 13.119128 40.672222 L 13.513095 40.538273 L 13.859787 40.349168 L 14.356186000000001 40.049752999999995 L 14.939259000000002 39.561232999999994 L 15.475055000000001 39.009677999999994 L 15.995092000000001 38.434484999999995 L 16.357543 37.938084999999994 L 16.735751999999998 37.41016799999999 L 17.287307 36.55131899999999 L 17.862499999999997 35.597916999999995 L 18.193433 34.991206 L 18.429813 34.526323999999995 L 19.895374 33.202591999999996 L 20.801499 32.477692 L 21.841574 31.666117999999997 L 22.440406000000003 31.240633 L 21.967644000000004 31.532169 L 21.140312000000005 32.075845 L 20.037202000000004 32.824383000000005 L 19.138955000000003 33.525646 L 18.563762000000004 33.974769 L 18.335261000000003 34.195391 L 18.146157000000002 34.32934 L 18.004328 34.471169 L 17.082444000000002 34.888775 L 16.223594000000002 35.306380000000004 L 15.356865000000003 35.747624 L 14.561050000000003 36.188868 L 13.717959000000004 36.716785 L 13.087610000000003 37.134391 L 12.378468000000003 37.709584 L 13.450060000000004 34.526324 L 13.536730000000004 34.526324 L 13.954336000000003 34.691791 L 14.269510000000004 34.739071 L 14.962894000000004 34.668161000000005 L 15.624760000000004 34.392383 L 16.223591000000003 33.990536000000006 L 16.806663000000004 33.48625700000001 L 17.523684000000003 32.68256300000001 L 18.469207000000004 31.36671100000001 L 18.981365000000004 30.54725700000001 L 19.296540000000004 30.04297900000001 L 19.635352000000005 29.39687200000001 L 20.982722000000006 28.15193300000001 L 21.739140000000006 27.52158500000001 L 22.464041000000005 26.94639200000001 L 23.157424000000006 26.43423400000001 L 23.417443000000006 26.25300900000001 L 22.873767000000004 26.59182100000001 L 21.912486000000005 27.22216900000001 L 21.195464000000005 27.726448000000012 L 20.431167000000006 28.278003000000012 L 19.777180000000005 28.813799000000014 L 19.462006000000006 29.081697000000013 L 18.477087000000004 29.51506200000001 L 17.531564000000003 29.96418500000001 L 16.830301000000002 30.33451500000001 L 16.270867000000003 30.64181000000001 L 15.309585000000002 31.23276100000001 L 14.537409000000002 31.79219600000001 L 14.521649000000002 31.70552600000001 L 15.569603000000003 29.28656400000001 L 15.947812000000003 29.45990900000001 L 16.483608000000004 29.546579000000012 L 17.247906000000004 29.373233000000013 L 17.807340000000003 29.105335000000014 L 18.272222000000003 28.750764000000014 L 18.737104000000002 28.333158000000015 L 19.257142 27.797362000000014 L 19.800817000000002 27.103979000000013 L 20.297217000000003 26.426354000000014 L 20.777857000000004 25.709333000000015 L 21.242739000000004 24.921397000000017 L 22.085830000000005 24.188617000000015 L 22.858007000000004 23.581907000000015 L 23.488356000000003 23.117025000000016 L 23.898082000000002 22.833368000000014 L 24.268412 22.604867000000013 L 24.725415 22.289693000000014 L 24.213257000000002 22.581229000000015 L 23.638064000000004 22.927920000000015 L 23.062871000000005 23.282491000000014 L 22.393125000000005 23.700097000000014 L 21.636707000000005 24.259532000000014 L 21.061514000000006 24.677137000000016 L 19.643230000000006 25.252330000000015 L 18.611035000000005 25.725092000000014 L 17.586718000000005 26.268767000000015 L 16.719989000000005 26.836081000000014 L 18.138273000000005 24.125582000000016 L 18.351016000000005 24.298928000000014 L 18.721346000000004 24.440757000000016 L 19.099555000000002 24.472277000000016 L 19.532919000000003 24.401367000000015 L 20.060836000000002 24.157107000000014 L 20.706943000000003 23.700104000000014 L 21.557914000000004 22.778220000000015 L 22.314332000000004 21.698748000000016 L 22.794973000000002 20.895054000000016 L 23.165302000000004 20.248946000000014 L 23.772013000000005 19.681633000000016 L 24.520551000000005 19.067043000000016 L 25.032710000000005 18.673075000000015 L 25.458195000000003 18.350022000000013 L 26.041267000000005 17.956054000000012 L 25.521230000000006 18.27122800000001 L 24.930278000000005 18.62579900000001 L 24.418120000000005 18.98037000000001 L 23.661702000000005 19.516166000000013 L 23.181061000000007 19.89437500000001 L 22.905284000000005 20.12287700000001 L 22.007037000000004 20.51684400000001 L 21.148187000000004 20.91869200000001 L 20.218423000000005 21.446608000000012 L 19.635351000000004 21.81693800000001 L 19.335935000000003 22.03756000000001 L 20.840892000000004 19.69739100000001 L 20.990600000000004 19.83134100000001 L 21.274257000000006 20.01256600000001 L 21.691863000000005 20.06771600000001 L 22.125227000000006 20.01256600000001 L 22.597989000000005 19.83134100000001 L 23.283493000000007 19.35857900000001 L 23.953238000000006 18.71247200000001 L 24.339326000000007 18.26334900000001 L 24.985433000000008 17.412378000000007 L 25.355763000000007 16.83718500000001 L 25.426673000000008 16.750515000000007 L 25.83640000000001 16.403824000000007 L 26.47462800000001 15.954700000000008 L 27.04982100000001 15.560733000000008 L 27.49106500000001 15.277076000000008 L 27.86139400000001 15.024936000000007 L 28.105654000000012 14.883108000000007 L 27.743204000000013 15.056454000000008 L 27.168011000000014 15.340111000000007 L 26.671612000000014 15.615888000000007 L 26.167333000000013 15.931062000000008 L 25.804882000000013 16.18320200000001 L 25.568502000000013 16.340789000000008 L 25.253328000000014 16.553531000000007 L 24.575703000000015 16.789912000000008 L 23.724733000000015 17.12872400000001 L 22.968314000000014 17.49117500000001 L 22.345845000000015 17.82210800000001 L 21.928239000000016 18.08212700000001 L 24.039907000000014 15.28495500000001 L 24.331443000000014 14.94614300000001 L 23.779888000000014 15.26919600000001 L 21.786411000000015 17.61724500000001 L 21.802171000000016 16.632325000000012 L 21.636704000000016 15.686802000000013 L 21.408203000000015 14.827953000000013 L 21.195460000000015 14.087293000000013 L 20.856648000000014 13.181167000000013 L 20.754216000000014 12.093816000000013 L 20.683306000000012 11.471347000000012 L 20.517840000000014 10.596738000000013 L 20.383891000000013 9.958510600000013 L 20.454801000000014 10.517945000000013 L 20.541471000000016 11.242846000000014 L 20.588751000000016 12.030781000000015 L 20.636031000000017 13.110253000000014 L 20.415409000000018 13.701205000000014 L 20.25782200000002 14.449743000000014 L 20.05295900000002 15.442542000000014 L 19.966289000000017 16.214719000000013 L 19.982049000000018 17.04993100000001 L 20.163275000000016 17.71967600000001 L 20.431173000000015 18.16092000000001 L 20.722709000000016 18.42093900000001 L 20.982728000000016 18.53125000000001 L 21.100918000000014 18.57853000000001 L 19.012889000000015 21.52540900000001 L 18.949849000000015 20.54049000000001 L 18.752865000000014 19.68164000000001 L 18.548002000000015 18.933101000000008 L 18.256466000000014 18.168803000000008 L 17.933412000000015 17.35723000000001 L 17.665514000000016 16.74264000000001 L 17.531565000000015 16.48262100000001 L 17.373978000000015 15.52134000000001 L 17.216391000000016 14.77280100000001 L 17.066683000000015 14.10305600000001 L 16.916975000000015 13.51210400000001 L 16.704232000000015 12.834479000000009 L 16.861820000000016 13.504225000000009 L 17.011527000000015 14.355195000000009 L 17.161235000000016 15.35587300000001 L 17.247905000000017 16.42746600000001 L 17.263665000000017 16.59293200000001 L 17.066681000000017 17.475420000000007 L 16.924852000000016 18.255476000000005 L 16.798783000000014 19.303431000000003 L 16.798783000000014 20.666559000000003 L 16.901214000000014 21.296908000000002 L 17.145474000000014 21.958774000000002 L 17.531563000000013 22.455173000000002 L 17.807340000000014 22.604881000000002 L 18.004324000000015 22.715192000000002 L 18.146153000000016 22.746712000000002 L 18.248584000000015 22.762472000000002 L 16.507247000000014 25.740868000000003 L 16.444217000000013 25.015968 L 16.30238800000001 24.314705 L 16.05024900000001 23.337665 L 15.766592000000012 22.431539 L 15.475056000000011 21.635724 L 15.23079600000001 21.005376 L 15.02593300000001 20.516855 L 14.891984000000011 19.374349 L 14.750155000000012 18.562775 L 14.600447000000011 17.798478 L 14.411343000000011 16.979025 L 14.19072100000001 16.143813 L 14.32467000000001 16.900231 L 14.48225700000001 17.869392 L 14.56892700000001 18.720362 L 14.647717000000009 19.665885000000003 L 14.69499700000001 20.319872000000004 L 14.474375000000009 21.123566000000004 L 14.253753000000009 22.069089000000005 L 14.111924000000009 22.833386000000004 L 13.98585500000001 23.920737000000003 L 13.95433500000001 24.755949 L 14.033125000000009 25.583281 L 14.19859100000001 26.237268 L 14.53740400000001 26.867616 L 14.85257800000001 27.198549000000003 L 15.15199300000001 27.379774000000005 L 15.37261500000001 27.466444000000006 L 15.56959900000001 27.529474000000008 L 14.37981600000001 29.964195000000007 L 14.02524500000001 28.553790000000006 L 13.536725000000011 27.182783000000008 L 13.190034000000011 26.323933000000007 L 12.827583000000011 25.496600000000008 L 12.654238000000012 25.11839100000001 L 12.583318000000013 24.97656300000001 L 12.417852000000012 24.02316100000001 L 12.126316000000012 22.65215300000001 L 11.968729000000012 21.99028700000001 L 11.826900000000013 21.43873200000001 L 11.692951000000013 20.98172900000001 L 11.559002000000014 20.54048600000001 L 11.472332000000014 20.23319100000001 L 11.645678000000014 21.005368000000008 L 11.882059000000014 22.09271900000001 L 12.047525000000014 23.10915600000001 L 12.157836000000014 23.91285000000001 L 12.260268000000014 24.834734000000008 L 12.086922000000014 25.528118000000006 L 11.897817000000014 26.528796000000007 L 11.724472000000015 27.56887100000001 L 11.622040000000014 28.73501600000001 L 11.622040000000014 29.956316000000008 L 11.732351000000014 30.775769000000007 L 12.000249000000014 31.71341200000001 L 12.244509000000015 32.13889700000001 L 12.520286000000015 32.47771000000001 L 12.780305000000014 32.68257300000001 L 12.985168000000014 32.80864300000001 L 13.126997000000014 32.87955300000001 L 12.276026000000014 35.05425500000001 L 12.047525000000014 34.07721500000001 L 11.692954000000015 32.94258800000001 L 11.346262000000014 31.997065000000006 L 10.975933000000014 31.059422000000005 L 10.471654000000013 29.972071000000007 L 10.180118000000013 29.357481000000007 L 10.030410000000012 28.530148000000008 L 9.825546800000012 27.584626000000007 L 9.660080300000011 26.867604000000007 L 9.41582030000001 25.953599000000008 L 9.116404700000011 24.945041000000007 L 8.88002410000001 24.212261000000005 L 9.092766700000011 25.015956000000006 L 9.37642350000001 26.292411000000005 L 9.61280420000001 27.568867000000004 L 9.77827060000001 28.845323000000004 L 9.841305600000009 29.388998000000004 L 9.628563000000009 30.421194000000003 L 9.439458400000008 31.413993000000005 L 9.266112600000008 32.714086 L 9.187318600000008 34.085094000000005 L 9.234594600000008 35.022738000000004 L 9.305508600000008 35.708242000000006 L 9.49461310000001 36.504057 L 9.80190800000001 37.213199 L 10.12496100000001 37.662322 L 10.566205000000009 38.056290000000004 L 10.991690000000009 38.221756000000006 L 11.16503600000001 38.284786000000004 L 10.58196400000001 40.26250400000001 L 10.03040900000001 42.17718800000001 L 9.53400990000001 44.225820000000006 z" stroke-linecap="round" />
</g>
</g>
</g>
</svg>