<?xml version="1.0" encoding="UTF-8" standalone="no" ?>
<!DOCTYPE svg PUBLIC "-//W3C//DTD SVG 1.1//EN" "http://www.w3.org/Graphics/SVG/1.1/DTD/svg11.dtd">
<svg xmlns="http://www.w3.org/2000/svg" xmlns:xlink="http://www.w3.org/1999/xlink" version="1.1" width="1080" height="1080" viewBox="0 0 1080 1080" xml:space="preserve">
<desc>Created with Fabric.js 5.2.4</desc>
<defs>
</defs>
<g transform="matrix(1 0 0 1 540 540)" id="58563837-af97-4a64-ae64-da9685878625"  >
<rect style="stroke: none; stroke-width: 1; stroke-dasharray: none; stroke-linecap: butt; stroke-dashoffset: 0; stroke-linejoin: miter; stroke-miterlimit: 4; fill: rgb(255,255,255); fill-rule: nonzero; opacity: 1; visibility: hidden;" vector-effect="non-scaling-stroke"  x="-540" y="-540" rx="0" ry="0" width="1080" height="1080" />
</g>
<g transform="matrix(1 0 0 1 540 540)" id="2dde6cb2-0623-478e-aa0e-58e6aea30670"  >
</g>
<g transform="matrix(4.69 0 0 4.69 540 540)"  >
<g style="" vector-effect="non-scaling-stroke"   >
		<g transform="matrix(6.2 0 0 6.09 0 0)" id="path3230-0-5"  >
<path style="stroke: rgb(109,53,30); stroke-width: 0.40000001; stroke-dasharray: none; stroke-linecap: round; stroke-dashoffset: 0; stroke-linejoin: round; stroke-miterlimit: 4; fill: rgb(109,53,30); fill-rule: nonzero; opacity: 1;" vector-effect="non-scaling-stroke"  transform=" translate(-21.57, -29.29)" d="M 39.936842 29.287827 C 39.936842 39.626815 31.715082 48.008221 21.573027 48.008221 C 11.430972 48.008221 3.2092112999999998 39.626815 3.2092112999999998 29.287827 C 3.2092112999999998 18.948838000000002 11.430972 10.567432 21.573027 10.567432 C 31.715082 10.567432 39.936842 18.948838000000002 39.936842 29.287827 z" stroke-linecap="round" />
</g>
		<g transform="matrix(5.58 0 0 5.58 0 0)" id="path4240"  >
<path style="stroke: rgb(255,255,255); stroke-width: 0.05; stroke-dasharray: none; stroke-linecap: round; stroke-dashoffset: 0; stroke-linejoin: round; stroke-miterlimit: 4; fill: rgb(255,255,255); fill-rule: nonzero; opacity: 1;" vector-effect="non-scaling-stroke"  transform=" translate(-288.55, -29.2)" d="M 290.7187 17.293747 L 292.8437 16.574997 L 294.4062 16.168747 L 295.4062 16.199997 L 296.1562 16.449997 L 296.7812 17.043747 L 296.8437 17.762497 L 296.7187 18.262497 L 296.18745 18.699997 L 295.2812 19.168747 L 294.62495 19.574997 L 294.24995 20.074997 L 293.99995 21.137497 L 293.81245 22.012497 L 293.99995 23.356247 L 294.68745 24.262497 L 295.62495 25.574997 L 296.6562 27.793747 L 297.0937 29.231247 L 297.49995 31.762497 L 297.62495 33.543746999999996 L 297.53125 35.262496999999996 L 297.1875 37.137496999999996 L 296.625 38.481246999999996 L 295.96875 39.606246999999996 L 295.21875 40.824996999999996 L 294.5 41.543746999999996 L 293.625 42.043746999999996 L 292.03125 42.231246999999996 L 287.71875 42.168746999999996 L 286.34375 42.043746999999996 L 285.6875 41.887496999999996 L 285.15625 41.543746999999996 L 284.46875 40.793746999999996 L 283 38.606246999999996 L 282.4375 37.043746999999996 L 282.0625 35.637496999999996 L 282 34.231246999999996 L 282.0313 33.637496999999996 L 281.56255 32.949996999999996 L 280.87505 31.699996999999996 L 280.25005 30.418746999999996 L 279.68755 28.481246999999996 L 279.4688 27.387496999999996 L 279.62505 25.824996999999996 L 279.9063 24.293746999999996 L 280.50005 23.043746999999996 L 281.6563 21.762496999999996 L 282.8438 21.106246999999996 L 284.12505 20.668746999999996 L 283.5938 19.606246999999996 L 283.43755 18.824996999999996 L 283.56255 18.293746999999996 L 284.25005 17.793746999999996 L 285.62505 17.387496999999996 L 287.0938 17.168746999999996 L 288.2188 17.168746999999996 L 289.31255 17.168746999999996 L 289.9688 17.262496999999996 L 289.8438 17.324996999999996 L 289.2813 17.481246999999996 L 288.5313 17.481246999999996 L 287.62505 17.543746999999996 L 286.3438 17.668746999999996 L 285.37505 17.981246999999996 L 284.81255 18.293746999999996 L 284.9688 18.606246999999996 L 285.5938 18.762496999999996 L 286.5313 18.887496999999996 L 286.93755 18.856246999999996 L 287.81255 18.543746999999996 L 289.2813 17.918746999999996 L 290.3438 17.449996999999996 z" stroke-linecap="round" />
</g>
		<g transform="matrix(5.58 0 0 5.58 -31.98 -14.29)" id="path4253"  >
<path style="stroke: rgb(109,53,30); stroke-width: 0.05; stroke-dasharray: none; stroke-linecap: butt; stroke-dashoffset: 0; stroke-linejoin: round; stroke-miterlimit: 4; fill: rgb(109,53,30); fill-rule: nonzero; opacity: 1;" vector-effect="non-scaling-stroke"  transform=" translate(-282.81, -26.64)" d="M 282.10937 31.153122 L 282.34375 29.684372 L 282.82812 28.028122 L 283.42187 26.512497 L 283.95312 25.528122 L 284.40625 24.840622 L 284.54687 24.590622 L 284.75 24.012497 L 284.7969 23.059372 L 284.68753 22.403122 L 284.5469 22.231247 L 284.32815 22.121872 L 284.15628 22.184372 L 283.25003 22.684372 L 282.6094 23.153122 L 281.71878 24.074997 L 281.25003 24.871872 L 280.9219 25.871872 L 280.8282 26.918747 L 280.93757999999997 27.949997 L 281.12507999999997 28.903122 L 281.42195 29.778122 L 281.73445 30.434372 z" stroke-linecap="round" />
</g>
		<g transform="matrix(5.58 0 0 5.58 -16.51 -18.04)" id="path4255"  >
<path style="stroke: rgb(109,53,30); stroke-width: 0.05; stroke-dasharray: none; stroke-linecap: round; stroke-dashoffset: 0; stroke-linejoin: round; stroke-miterlimit: 4; fill: rgb(109,53,30); fill-rule: nonzero; opacity: 1;" vector-effect="non-scaling-stroke"  transform=" translate(-285.59, -25.97)" d="M 286.125 20.793747 L 286.54687 20.653122 L 287.01562 20.637491999999998 L 287.29687 20.699991999999998 L 287.45312 21.028116999999998 L 287.51562 21.528116999999998 L 287.51562 22.512491999999998 L 287.48432 23.403116999999998 L 287.3437 24.278116999999998 L 287.06245 24.965616999999998 L 286.89057 25.309366999999998 L 286.64057 25.809366999999998 L 286.3437 26.293741999999998 L 285.87495 27.059366999999998 L 285.56245 27.793741999999998 L 285.0312 28.981241999999998 L 284.6562 30.074991999999998 L 284.4062 30.684366999999998 L 284.20307 31.184366999999998 L 283.99995 31.293741999999998 L 283.82807 31.262491999999998 L 283.7187 31.184361999999997 L 283.6562 30.871861999999997 L 283.93745 29.371861999999997 L 284.31245 28.262486999999997 L 284.8437 26.824986999999997 L 285.39057 25.809361999999997 L 285.8437 24.934361999999997 L 286.1562 24.231236999999997 L 286.2499 23.653111999999997 L 286.09365 22.371861999999997 L 286.01555 21.465611999999997 L 286 21.106247 z" stroke-linecap="round" />
</g>
</g>
</g>
</svg>