<?xml version="1.0" encoding="UTF-8" standalone="no" ?>
<!DOCTYPE svg PUBLIC "-//W3C//DTD SVG 1.1//EN" "http://www.w3.org/Graphics/SVG/1.1/DTD/svg11.dtd">
<svg xmlns="http://www.w3.org/2000/svg" xmlns:xlink="http://www.w3.org/1999/xlink" version="1.1" width="1080" height="1080" viewBox="0 0 1080 1080" xml:space="preserve">
<desc>Created with Fabric.js 5.2.4</desc>
<defs>
</defs>
<g transform="matrix(1 0 0 1 540 540)" id="3353908b-4701-4857-85ea-a556bb55fd2c"  >
<rect style="stroke: none; stroke-width: 1; stroke-dasharray: none; stroke-linecap: butt; stroke-dashoffset: 0; stroke-linejoin: miter; stroke-miterlimit: 4; fill: rgb(255,255,255); fill-rule: nonzero; opacity: 1; visibility: hidden;" vector-effect="non-scaling-stroke"  x="-540" y="-540" rx="0" ry="0" width="1080" height="1080" />
</g>
<g transform="matrix(1 0 0 1 540 540)" id="c344b054-e566-4557-874c-1d5119e29a4d"  >
</g>
<g transform="matrix(5 0 0 5 540 540)"  >
<g style="" vector-effect="non-scaling-stroke"   >
		<g transform="matrix(5.8 0 0 5.69 0 0)" id="path3230-2-76"  >
<path style="stroke: rgb(250,221,61); stroke-width: 3; stroke-dasharray: none; stroke-linecap: round; stroke-dashoffset: 0; stroke-linejoin: round; stroke-miterlimit: 4; fill: rgb(250,221,61); fill-rule: nonzero; opacity: 1;" vector-effect="non-scaling-stroke"  transform=" translate(-21.57, -29.29)" d="M 39.936842 29.287827 C 39.936842 39.626815 31.715082 48.008221 21.573027 48.008221 C 11.430972 48.008221 3.2092112999999998 39.626815 3.2092112999999998 29.287827 C 3.2092112999999998 18.948838000000002 11.430972 10.567432 21.573027 10.567432 C 31.715082 10.567432 39.936842 18.948838000000002 39.936842 29.287827 z" stroke-linecap="round" />
</g>
		<g transform="matrix(5.58 0 0 5.58 44.21 -40.03)" id="path4033"  >
<path style="stroke: rgb(255,255,255); stroke-width: 0.05; stroke-dasharray: none; stroke-linecap: round; stroke-dashoffset: 0; stroke-linejoin: round; stroke-miterlimit: 4; fill: rgb(255,255,255); fill-rule: nonzero; opacity: 1;" vector-effect="non-scaling-stroke"  transform=" translate(-564.85, -21.9)" d="M 558.00367 19.972575 L 558.57343 18.704952 L 559.2086400000001 17.568904999999997 L 560.105 16.550310999999997 L 560.7569 15.898409999999997 L 561.89773 15.083533999999997 L 562.87558 14.635351999999997 C 563.2830700000001 14.567231999999997 563.73465 14.416388999999997 564.12715 14.408227999999998 L 564.90107 14.384827999999997 L 566.08242 14.542382999999997 L 567.38059 14.984927999999998 L 568.19504 15.445025999999999 C 568.75424 15.793788999999999 569.11451 16.102767 569.5283 16.422448 L 570.5408399999999 17.533804 L 571.1634799999999 18.482614 C 571.53109 19.229584000000003 571.83265 19.976554 572.05985 20.723523 L 572.24667 22.050729 L 572.14807 23.447935 L 571.63531 25.048217 L 570.88459 26.410102000000002 L 569.77259 27.661457000000002 L 568.4343200000001 28.576017000000004 C 567.8585800000001 28.929812000000005 567.2999100000001 29.092437000000004 566.5018100000001 29.314613000000005 C 565.7769900000001 29.420474000000006 565.0153100000001 29.387403000000006 564.2609000000001 29.419292000000006 L 562.5904000000002 29.140150000000006 C 561.9604300000002 28.962906000000004 561.3747800000002 28.733964000000004 560.8384200000002 28.447506000000004 C 560.1893000000001 28.078958000000004 559.6363300000002 27.646307000000004 559.1271800000002 27.184448000000003 C 558.7771700000002 26.846742000000003 558.5671500000002 26.489039000000002 558.3188000000001 26.136811 C 558.0035000000001 25.621858000000003 557.8536500000001 25.027818000000003 557.6257300000001 24.454613000000002 C 557.4927500000001 23.829875 557.4336400000001 23.205137 557.4566800000001 22.580399000000003 L 557.6491300000001 21.294150000000002 C 557.7382300000002 20.889929000000002 557.8521900000002 20.454739000000004 558.0036800000001 19.972579000000003 z" stroke-linecap="round" />
</g>
		<g transform="matrix(5.58 0 0 5.58 44 -20.52)" id="path4035"  >
<path style="stroke: rgb(250,221,61); stroke-width: 0.05; stroke-dasharray: none; stroke-linecap: round; stroke-dashoffset: 0; stroke-linejoin: round; stroke-miterlimit: 4; fill: rgb(250,221,61); fill-rule: nonzero; opacity: 1;" vector-effect="non-scaling-stroke"  transform=" translate(-564.81, -25.4)" d="M 559.14259 22.400658 C 559.24963 22.81015 559.31249 23.263817 559.4938400000001 23.598988 L 560.0642600000001 24.536095 L 560.7976500000001 25.269483 L 561.6532700000001 25.88064 L 562.5088900000002 26.288078 L 563.6089700000002 26.614029 L 564.3423600000002 26.695518999999997 L 565.4831800000002 26.858494999999998 L 566.8642000000002 26.668900999999998 L 567.8870700000002 26.328823 L 568.7834300000002 25.717666 L 569.7612800000002 24.780559 L 570.2502100000002 23.884195000000002 L 570.6576500000001 23.028576 L 570.5564400000001 23.843451 L 570.41317 24.495352 L 570.12797 25.228741 L 569.5983 26.043617 C 569.30744 26.426162 568.99322 26.761998000000002 568.66119 27.062212000000002 L 568.09078 27.46965 L 566.99069 28.040063 L 566.25172 28.217165 L 565.44243 28.325269000000002 L 564.3015999999999 28.402489000000003 L 562.9163099999998 28.080810000000003 L 561.7797499999998 27.743686000000004 L 560.6852599999999 27.067801000000003 C 560.4151699999999 26.826407000000003 560.1712199999998 26.529197000000003 559.8605299999998 26.206595000000004 C 559.5353799999998 25.826319000000005 559.3801799999998 25.446044000000004 559.1678799999999 25.065768000000002 C 559.0411999999999 24.674138000000003 559.0129399999998 24.233294 558.9641699999999 23.802711000000002 L 558.9641699999999 23.191554000000004 z" stroke-linecap="round" />
</g>
		<g transform="matrix(5.58 0 0 5.58 49.2 -77.04)" id="path4037"  >
<path style="stroke: rgb(250,221,61); stroke-width: 0.05; stroke-dasharray: none; stroke-linecap: round; stroke-dashoffset: 0; stroke-linejoin: round; stroke-miterlimit: 4; fill: rgb(250,221,61); fill-rule: nonzero; opacity: 1;" vector-effect="non-scaling-stroke"  transform=" translate(-565.74, -15.27)" d="M 566.46103 15.653947 L 567.19442 15.490972000000001 L 567.31665 15.450232000000002 C 567.36365 15.415732000000002 567.35165 15.322260000000002 567.31665 15.205769000000002 L 566.74624 15.002050000000002 L 565.52393 14.879819000000003 L 564.83128 14.879819000000003 L 564.26087 15.002050000000002 L 564.13864 15.165025000000002 C 564.31848 15.378318000000002 564.54465 15.394726000000002 564.70905 15.510689000000001 L 565.50849 15.623066000000001 z" stroke-linecap="round" />
</g>
		<g transform="matrix(5.5 -0.92 0.92 5.5 -45.3 -3.77)" id="path4033-7"  >
<path style="stroke: rgb(255,255,255); stroke-width: 0.05; stroke-dasharray: none; stroke-linecap: round; stroke-dashoffset: 0; stroke-linejoin: round; stroke-miterlimit: 4; fill: rgb(255,255,255); fill-rule: nonzero; opacity: 1;" vector-effect="non-scaling-stroke"  transform=" translate(-564.85, -21.9)" d="M 558.00367 19.972575 L 558.57343 18.704952 L 559.2086400000001 17.568904999999997 L 560.105 16.550310999999997 L 560.7569 15.898409999999997 L 561.89773 15.083533999999997 L 562.87558 14.635351999999997 C 563.2830700000001 14.567231999999997 563.73465 14.416388999999997 564.12715 14.408227999999998 L 564.90107 14.384827999999997 L 566.08242 14.542382999999997 L 567.38059 14.984927999999998 L 568.19504 15.445025999999999 C 568.75424 15.793788999999999 569.11451 16.102767 569.5283 16.422448 L 570.5408399999999 17.533804 L 571.1634799999999 18.482614 C 571.53109 19.229584000000003 571.83265 19.976554 572.05985 20.723523 L 572.24667 22.050729 L 572.14807 23.447935 L 571.63531 25.048217 L 570.88459 26.410102000000002 L 569.77259 27.661457000000002 L 568.4343200000001 28.576017000000004 C 567.8585800000001 28.929812000000005 567.2999100000001 29.092437000000004 566.5018100000001 29.314613000000005 C 565.7769900000001 29.420474000000006 565.0153100000001 29.387403000000006 564.2609000000001 29.419292000000006 L 562.5904000000002 29.140150000000006 C 561.9604300000002 28.962906000000004 561.3747800000002 28.733964000000004 560.8384200000002 28.447506000000004 C 560.1893000000001 28.078958000000004 559.6363300000002 27.646307000000004 559.1271800000002 27.184448000000003 C 558.7771700000002 26.846742000000003 558.5671500000002 26.489039000000002 558.3188000000001 26.136811 C 558.0035000000001 25.621858000000003 557.8536500000001 25.027818000000003 557.6257300000001 24.454613000000002 C 557.4927500000001 23.829875 557.4336400000001 23.205137 557.4566800000001 22.580399000000003 L 557.6491300000001 21.294150000000002 C 557.7382300000002 20.889929000000002 557.8521900000002 20.454739000000004 558.0036800000001 19.972579000000003 z" stroke-linecap="round" />
</g>
		<g transform="matrix(5.5 -0.92 0.92 5.5 -42.29 15.52)" id="path4035-7"  >
<path style="stroke: rgb(250,221,61); stroke-width: 0.05; stroke-dasharray: none; stroke-linecap: round; stroke-dashoffset: 0; stroke-linejoin: round; stroke-miterlimit: 4; fill: rgb(250,221,61); fill-rule: nonzero; opacity: 1;" vector-effect="non-scaling-stroke"  transform=" translate(-564.81, -25.4)" d="M 559.14259 22.400658 C 559.24963 22.81015 559.31249 23.263817 559.4938400000001 23.598988 L 560.0642600000001 24.536095 L 560.7976500000001 25.269483 L 561.6532700000001 25.88064 L 562.5088900000002 26.288078 L 563.6089700000002 26.614029 L 564.3423600000002 26.695518999999997 L 565.4831800000002 26.858494999999998 L 566.8642000000002 26.668900999999998 L 567.8870700000002 26.328823 L 568.7834300000002 25.717666 L 569.7612800000002 24.780559 L 570.2502100000002 23.884195000000002 L 570.6576500000001 23.028576 L 570.5564400000001 23.843451 L 570.41317 24.495352 L 570.12797 25.228741 L 569.5983 26.043617 C 569.30744 26.426162 568.99322 26.761998000000002 568.66119 27.062212000000002 L 568.09078 27.46965 L 566.99069 28.040063 L 566.25172 28.217165 L 565.44243 28.325269000000002 L 564.3015999999999 28.402489000000003 L 562.9163099999998 28.080810000000003 L 561.7797499999998 27.743686000000004 L 560.6852599999999 27.067801000000003 C 560.4151699999999 26.826407000000003 560.1712199999998 26.529197000000003 559.8605299999998 26.206595000000004 C 559.5353799999998 25.826319000000005 559.3801799999998 25.446044000000004 559.1678799999999 25.065768000000002 C 559.0411999999999 24.674138000000003 559.0129399999998 24.233294 558.9641699999999 23.802711000000002 L 558.9641699999999 23.191554000000004 z" stroke-linecap="round" />
</g>
		<g transform="matrix(5.5 -0.92 0.92 5.5 -46.5 -41.08)" id="path4037-1"  >
<path style="stroke: rgb(250,221,61); stroke-width: 0.05; stroke-dasharray: none; stroke-linecap: round; stroke-dashoffset: 0; stroke-linejoin: round; stroke-miterlimit: 4; fill: rgb(250,221,61); fill-rule: nonzero; opacity: 1;" vector-effect="non-scaling-stroke"  transform=" translate(-565.74, -15.27)" d="M 566.46103 15.653947 L 567.19442 15.490972000000001 L 567.31665 15.450232000000002 C 567.36365 15.415732000000002 567.35165 15.322260000000002 567.31665 15.205769000000002 L 566.74624 15.002050000000002 L 565.52393 14.879819000000003 L 564.83128 14.879819000000003 L 564.26087 15.002050000000002 L 564.13864 15.165025000000002 C 564.31848 15.378318000000002 564.54465 15.394726000000002 564.70905 15.510689000000001 L 565.50849 15.623066000000001 z" stroke-linecap="round" />
</g>
		<g transform="matrix(5.58 0 0 5.58 30.3 44.43)" id="path4033-2"  >
<path style="stroke: rgb(255,255,255); stroke-width: 0.05; stroke-dasharray: none; stroke-linecap: round; stroke-dashoffset: 0; stroke-linejoin: round; stroke-miterlimit: 4; fill: rgb(255,255,255); fill-rule: nonzero; opacity: 1;" vector-effect="non-scaling-stroke"  transform=" translate(-231.61, -352.29)" d="M 237.46526 349.23303 L 237.91348 350.03036 L 238.17598999999998 351.37406 L 238.06797999999998 352.57518 L 237.48027999999996 354.05601 L 237.07015999999996 354.80281 L 236.74713999999994 355.35616000000005 C 236.56336999999994 355.72619000000003 236.46160999999995 355.75105 236.23805999999993 356.07377 L 235.64022999999995 356.71439000000004 L 234.92017999999996 357.34074000000004 L 234.33956999999995 357.80683000000005 L 233.68988999999996 358.2093100000001 C 233.07947999999996 358.4577700000001 233.19463999999996 358.50574000000006 232.69304999999997 358.6534700000001 L 231.78832999999997 358.8846600000001 L 230.60449999999997 359.0207100000001 C 229.78386999999998 358.88048000000015 229.57867999999996 358.8622600000001 228.84037999999998 358.6082900000001 L 227.53036999999998 357.7682400000001 L 226.80743999999999 357.0947400000001 L 225.96228 355.9792200000001 L 225.47484 354.9361000000001 L 225.05057 353.55231000000015 L 225.03816999999998 352.04170000000016 C 225.08916999999997 351.36787000000015 225.11536999999998 350.88579000000016 225.40379 350.10902000000016 C 225.74305999999999 349.45982000000015 225.97197999999997 348.8622300000002 226.38852999999997 348.23243000000014 L 227.55343999999997 346.7984500000001 C 228.06641999999997 346.3920900000001 228.59528999999998 346.2149300000001 229.14183999999997 345.9484400000001 C 229.82100999999997 345.6387400000001 230.33272999999997 345.7297600000001 231.00539999999998 345.5881500000001 C 231.4842 345.5026500000001 231.97859999999997 345.6645500000001 232.40954 345.6698500000001 C 233.01156 345.7164500000001 233.70287 346.2286100000001 234.30083 346.3801100000001 C 234.88486999999998 346.6387200000001 235.01810999999998 346.8349000000001 235.51063 347.2199500000001 L 236.39892999999998 347.8855800000001 C 236.67410999999998 348.1947800000001 237.16356 348.82753000000014 237.46529999999998 349.2329800000001 z" stroke-linecap="round" />
</g>
		<g transform="matrix(5.58 0 0 5.58 14.31 42.09)" id="path4035-2"  >
<path style="stroke: rgb(250,221,61); stroke-width: 0.05; stroke-dasharray: none; stroke-linecap: round; stroke-dashoffset: 0; stroke-linejoin: round; stroke-miterlimit: 4; fill: rgb(250,221,61); fill-rule: nonzero; opacity: 1;" vector-effect="non-scaling-stroke"  transform=" translate(-559.49, -36.63)" d="M 561.47613 31.977712 C 561.47613 31.977712 561.47613 31.977712 561.16476 32.211656 L 560.84869 32.487887 L 560.50175 32.814937 L 560.20723 33.086945 L 559.83947 33.440789 L 559.51976 33.839791000000005 L 559.18674 34.248132000000005 L 558.49862 35.314938000000005 L 558.0107099999999 36.50476700000001 L 557.7688899999999 37.78594700000001 L 557.7608899999999 38.88132100000001 C 557.7863899999999 39.30484700000001 557.9027199999999 39.754352000000004 558.02848 40.206537000000004 L 558.40235 41.160959000000005 L 558.85651 41.98725900000001 L 558.2175599999999 41.40560700000001 L 557.77351 40.90729000000001 L 557.3139199999999 40.24622200000001 L 556.88799 39.32842200000001 C 556.74867 38.86849800000001 556.5945099999999 38.41542100000001 556.54603 37.97042500000001 L 556.5249299999999 37.281998000000016 L 556.6452499999999 36.03132700000002 L 556.8849499999999 35.07807900000002 L 557.2593899999999 34.30897400000001 L 557.8657999999999 33.30196100000001 C 558.1037699999999 32.93707900000001 558.4206499999999 32.603760000000015 558.8258199999999 32.305754000000015 C 559.0514 31.982144000000016 559.5136499999999 31.847873000000014 559.8907599999999 31.645487000000013 C 560.1805499999999 31.495004000000012 560.5730899999999 31.406169000000013 561.0298799999999 31.355885000000015 C 561.3838 31.278655000000015 560.9900799999999 31.368185000000015 561.4336 31.305685000000015 C 561.9322999999999 31.265285000000013 561.87988 31.249695000000013 562.31241 31.300685000000016 C 562.74713 31.425173000000015 562.00951 31.397895000000016 561.92506 31.638041000000015 L 561.6802200000001 31.845928000000015 z" stroke-linecap="round" />
</g>
		<g transform="matrix(5.58 0 0 5.58 52.12 64.19)" id="path4037-2"  >
<path style="stroke: rgb(250,221,61); stroke-width: 0.05; stroke-dasharray: none; stroke-linecap: round; stroke-dashoffset: 0; stroke-linejoin: round; stroke-miterlimit: 4; fill: rgb(250,221,61); fill-rule: nonzero; opacity: 1;" vector-effect="non-scaling-stroke"  transform=" translate(-566.27, -40.59)" d="M 565.52735 40.926355 L 565.2293199999999 41.615992 L 565.19062 41.738892 C 565.19101 41.797192 565.2737199999999 41.842283 565.38865 41.88224 C 565.56769 41.89833 565.74673 41.734214 565.92576 41.62742900000001 C 566.62758 40.78928200000001 566.4284799999999 41.19380700000001 566.80422 40.596126000000005 L 567.11005 40.060137000000005 L 567.34552 39.526411 L 567.28522 39.331835000000005 C 567.00699 39.20096600000001 566.86108 39.493129 566.67074 39.591195000000006 L 566.11094 40.172873 z" stroke-linecap="round" />
</g>
</g>
</g>
</svg>