<?xml version="1.0" encoding="UTF-8" standalone="no" ?>
<!DOCTYPE svg PUBLIC "-//W3C//DTD SVG 1.1//EN" "http://www.w3.org/Graphics/SVG/1.1/DTD/svg11.dtd">
<svg xmlns="http://www.w3.org/2000/svg" xmlns:xlink="http://www.w3.org/1999/xlink" version="1.1" width="1080" height="1080" viewBox="0 0 1080 1080" xml:space="preserve">
<desc>Created with Fabric.js 5.2.4</desc>
<defs>
</defs>
<g transform="matrix(1 0 0 1 540 540)" id="ef0e704a-1d13-49ef-ab9c-c4a3a6619096"  >
<rect style="stroke: none; stroke-width: 1; stroke-dasharray: none; stroke-linecap: butt; stroke-dashoffset: 0; stroke-linejoin: miter; stroke-miterlimit: 4; fill: rgb(255,255,255); fill-rule: nonzero; opacity: 1; visibility: hidden;" vector-effect="non-scaling-stroke"  x="-540" y="-540" rx="0" ry="0" width="1080" height="1080" />
</g>
<g transform="matrix(1 0 0 1 540 540)" id="97baca65-abe1-4752-a15b-f39542536d32"  >
</g>
<g transform="matrix(5 0 0 5 540 540)"  >
<g style="" vector-effect="non-scaling-stroke"   >
		<g transform="matrix(5.8 0 0 5.69 0 0)" id="path3230-2-1"  >
<path style="stroke: rgb(77,196,213); stroke-width: 3; stroke-dasharray: none; stroke-linecap: round; stroke-dashoffset: 0; stroke-linejoin: round; stroke-miterlimit: 4; fill: rgb(77,196,213); fill-rule: nonzero; opacity: 1;" vector-effect="non-scaling-stroke"  transform=" translate(-21.57, -29.29)" d="M 39.936842 29.287827 C 39.936842 39.626815 31.715082 48.008221 21.573027 48.008221 C 11.430972 48.008221 3.2092112999999998 39.626815 3.2092112999999998 29.287827 C 3.2092112999999998 18.948838000000002 11.430972 10.567432 21.573027 10.567432 C 31.715082 10.567432 39.936842 18.948838000000002 39.936842 29.287827 z" stroke-linecap="round" />
</g>
		<g transform="matrix(5.58 0 0 5.58 0 0)" id="path3192"  >
<path style="stroke: rgb(249,249,249); stroke-width: 0.05; stroke-dasharray: none; stroke-linecap: round; stroke-dashoffset: 0; stroke-linejoin: round; stroke-miterlimit: 4; fill: rgb(249,249,249); fill-rule: nonzero; opacity: 1;" vector-effect="non-scaling-stroke"  transform=" translate(-602.11, -28.75)" d="M 598.75897 15.704842 L 597.69647 15.861092 C 597.15744 15.993926 596.70285 16.225257 596.4292399999999 16.517342 L 595.47772 17.298592 L 594.66522 18.017342 L 593.63076 18.500111999999998 L 592.60272 18.736092 L 591.32147 19.048592 L 590.29022 20.017342 L 589.66522 21.204842 L 589.00897 22.548592 C 588.85217 22.770028 588.50657 22.959996999999998 588.0310999999999 23.128322 C 587.6465 23.347558 587.5680299999999 23.387388 587.0859999999999 23.852984 C 586.8255599999999 24.172839 586.6359099999999 24.563481 586.63988 25.147747 L 586.73318 26.162274 L 586.9298 26.914977 C 586.73794 27.174392 586.892 27.641348 586.9465 28.048592 C 587.042 28.739694 587.19126 29.39053 587.49819 29.923085 C 587.89838 30.720495 588.63298 31.517905 589.28164 32.315315 L 591.37539 34.324436999999996 L 593.79025 36.361092 L 595.634 37.642342 L 595.3215 38.361092 L 594.60275 39.454842 C 594.42573 39.746508999999996 594.31777 40.038175 594.35275 40.329842 C 594.37395 40.968907 594.63251 41.275681 594.91525 41.548592 C 595.4985800000001 41.727374 596.08192 41.852126 596.66525 41.767342 L 608.22775 41.767342 L 609.1965 41.392342 C 609.49843 41.258829 609.7218 41.031034 609.759 40.579842 C 609.8047 40.262541999999996 609.779 39.969003 609.6653 39.704842 C 609.6693 38.960254 608.87363 38.329842 608.4778 37.642342 C 609.37951 37.112431 610.32424 36.648615 611.06885 35.804504 L 613.82155 33.392342 L 615.7278 31.486092 L 616.6028 30.142342 L 617.07155 29.017342 L 617.29571 27.952139 L 617.32151 27.267342 L 617.32151 26.954842 L 617.36141 26.179503999999998 C 617.44471 26.011505999999997 617.48822 25.434368999999997 617.57155 25.111092 C 617.63865 24.736092 617.41645 24.361092 617.2278 23.986092 L 616.85272 23.454842 L 615.96691 23.054503999999998 L 615.16522 22.548592 L 614.87856 22.023253999999998 C 614.94136 21.726456 614.51327 21.237167999999997 614.38397 20.892342 C 614.24553 20.523861 613.80795 19.975899 613.41522 19.454842 L 612.7594799999999 19.008727 L 611.41522 18.579842 L 610.38397 18.329842 L 609.19647 17.767342 L 608.16522 16.829842 C 607.98387 16.538175 607.31611 16.246509 606.79022 15.954842 L 606.07147 15.704842 L 604.88397 15.704842 L 603.19647 16.111092 L 602.47772 16.173592 L 601.28431 16.167692 L 600.00897 15.861104 z" stroke-linecap="round" />
</g>
		<g transform="matrix(5.58 0 0 5.58 -46.93 -2.92)" id="path3964"  >
<path style="stroke: rgb(77,196,213); stroke-width: 0.05; stroke-dasharray: none; stroke-linecap: round; stroke-dashoffset: 0; stroke-linejoin: round; stroke-miterlimit: 4; fill: rgb(77,196,213); fill-rule: nonzero; opacity: 1;" vector-effect="non-scaling-stroke"  transform=" translate(-593.7, -28.23)" d="M 591.15966 23.758062 L 590.94824 23.969476999999998 L 590.7227300000001 24.209080999999998 L 590.5395100000001 24.364119 L 590.3140000000001 24.533251999999997 L 590.0462100000001 24.674194999999997 L 589.8066000000001 24.801043999999997 L 597.5866900000001 32.693884999999995 z" stroke-linecap="round" />
</g>
		<g transform="matrix(5.58 0 0 5.58 -25.47 -16.44)" id="path3966"  >
<path style="stroke: rgb(77,196,213); stroke-width: 0.05; stroke-dasharray: none; stroke-linecap: round; stroke-dashoffset: 0; stroke-linejoin: round; stroke-miterlimit: 4; fill: rgb(77,196,213); fill-rule: nonzero; opacity: 1;" vector-effect="non-scaling-stroke"  transform=" translate(-597.54, -25.8)" d="M 596.65646 19.402905 L 596.43095 19.586132 L 596.2195300000001 19.769358999999998 L 595.9940200000001 19.910301999999998 L 595.7826100000001 20.037150999999998 L 595.71211 20.051240999999997 L 595.5711600000001 20.107620999999998 L 595.3174700000001 20.276753 L 595.0778600000001 20.333133 L 600.0108900000001 32.200582 z" stroke-linecap="round" />
</g>
		<g transform="matrix(5.58 0 0 5.58 3.26 -18.88)" id="path3968"  >
<path style="stroke: rgb(77,196,213); stroke-width: 0.05; stroke-dasharray: none; stroke-linecap: round; stroke-dashoffset: 0; stroke-linejoin: round; stroke-miterlimit: 4; fill: rgb(77,196,213); fill-rule: nonzero; opacity: 1;" vector-effect="non-scaling-stroke"  transform=" translate(-602.7, -25.36)" d="M 601.78681 18.148507 L 602.06869 18.233076999999998 L 602.2660099999999 18.247166999999997 L 602.4210499999999 18.247166999999997 L 602.6888399999999 18.233076999999998 L 602.9425399999999 18.247166999999997 L 603.2103399999999 18.233076999999998 L 603.3512799999999 18.218987 L 603.5345099999998 18.176706999999997 L 603.6050099999999 18.176706999999997 L 602.6606899999999 32.581140999999995 z" stroke-linecap="round" />
</g>
		<g transform="matrix(5.58 0 0 5.58 31.75 -16.28)" id="path3970"  >
<path style="stroke: rgb(77,196,213); stroke-width: 0.05; stroke-dasharray: none; stroke-linecap: round; stroke-dashoffset: 0; stroke-linejoin: round; stroke-miterlimit: 4; fill: rgb(77,196,213); fill-rule: nonzero; opacity: 1;" vector-effect="non-scaling-stroke"  transform=" translate(-607.81, -25.83)" d="M 608.70714 19.402905 L 608.96083 19.614321 L 609.15816 19.783453 L 609.39776 19.924396 L 609.6232699999999 20.008966 L 609.67967 20.037156 L 609.8347 20.1781 L 610.03203 20.26267 L 610.28572 20.375425 L 605.3245099999999 32.256969 z" stroke-linecap="round" />
</g>
		<g transform="matrix(5.58 0 0 5.58 53.13 -2.76)" id="path3972"  >
<path style="stroke: rgb(77,196,213); stroke-width: 0.05; stroke-dasharray: none; stroke-linecap: round; stroke-dashoffset: 0; stroke-linejoin: round; stroke-miterlimit: 4; fill: rgb(77,196,213); fill-rule: nonzero; opacity: 1;" vector-effect="non-scaling-stroke"  transform=" translate(-611.64, -28.25)" d="M 614.23212 23.743968 L 614.42945 23.955382999999998 L 614.61267 24.194986999999998 L 614.90865 24.420496999999997 L 615.23282 24.617817999999996 L 615.5569899999999 24.786949999999997 L 607.7205299999999 32.764357 z" stroke-linecap="round" />
</g>
</g>
</g>
</svg>