<?xml version="1.0" encoding="UTF-8" standalone="no" ?>
<!DOCTYPE svg PUBLIC "-//W3C//DTD SVG 1.1//EN" "http://www.w3.org/Graphics/SVG/1.1/DTD/svg11.dtd">
<svg xmlns="http://www.w3.org/2000/svg" xmlns:xlink="http://www.w3.org/1999/xlink" version="1.1" width="1080" height="1080" viewBox="0 0 1080 1080" xml:space="preserve">
<desc>Created with Fabric.js 5.2.4</desc>
<defs>
</defs>
<g transform="matrix(1 0 0 1 540 540)" id="da2c861d-4ce1-4e7b-9f2c-c1a0881de8a0"  >
<rect style="stroke: none; stroke-width: 1; stroke-dasharray: none; stroke-linecap: butt; stroke-dashoffset: 0; stroke-linejoin: miter; stroke-miterlimit: 4; fill: rgb(255,255,255); fill-rule: nonzero; opacity: 1; visibility: hidden;" vector-effect="non-scaling-stroke"  x="-540" y="-540" rx="0" ry="0" width="1080" height="1080" />
</g>
<g transform="matrix(1 0 0 1 540 540)" id="a390fa9b-c0d1-4c6b-8ae5-8d6683cfc733"  >
</g>
<g transform="matrix(4.71 0 0 4.71 540 540)"  >
<g style="" vector-effect="non-scaling-stroke"   >
		<g transform="matrix(6.2 0 0 6.09 0 0)" id="path3230-0-5-2"  >
<path style="stroke: rgb(192,147,40); stroke-width: 0.40000001; stroke-dasharray: none; stroke-linecap: round; stroke-dashoffset: 0; stroke-linejoin: round; stroke-miterlimit: 4; fill: rgb(192,147,40); fill-rule: nonzero; opacity: 1;" vector-effect="non-scaling-stroke"  transform=" translate(-21.57, -29.29)" d="M 39.936842 29.287827 C 39.936842 39.626815 31.715082 48.008221 21.573027 48.008221 C 11.430972 48.008221 3.2092112999999998 39.626815 3.2092112999999998 29.287827 C 3.2092112999999998 18.948838000000002 11.430972 10.567432 21.573027 10.567432 C 31.715082 10.567432 39.936842 18.948838000000002 39.936842 29.287827 z" stroke-linecap="round" />
</g>
		<g transform="matrix(5.48 0 0 5.48 33.63 -65.24)" id="path4377"  >
<path style="stroke: rgb(0,0,0); stroke-opacity: 0; stroke-width: 0.05; stroke-dasharray: none; stroke-linecap: round; stroke-dashoffset: 0; stroke-linejoin: round; stroke-miterlimit: 4; fill: rgb(0,0,0); fill-opacity: 0; fill-rule: nonzero; opacity: 1;" vector-effect="non-scaling-stroke"  transform=" translate(-239.99, -348.55)" d="M 231.23733 348.81192 L 238.92711999999997 356.50171 L 248.73823 346.60221 L 246.88207 344.74606 L 244.45139 342.8899 L 242.33007 341.65246 L 240.87166000000002 340.94536 L 239.45745000000002 340.5918 z" stroke-linecap="round" />
</g>
		<g transform="matrix(5.48 0 0 5.48 -1.79 39.22)" id="path4361"  >
<path style="stroke: rgb(255,255,255); stroke-width: 0.05; stroke-dasharray: none; stroke-linecap: round; stroke-dashoffset: 0; stroke-linejoin: round; stroke-miterlimit: 4; fill: rgb(255,255,255); fill-rule: nonzero; opacity: 1;" vector-effect="non-scaling-stroke"  transform=" translate(-422.8, -35.45)" d="M 435.0625 39.887497 C 434.94793 39.595825000000005 434.88706 39.275835 434.71875 39.016403000000004 L 434.21875 38.543747 L 433.375 37.981247 L 432.34375 37.574997 L 430.875 37.168747 L 429.65625 36.949997 L 428.03125 36.824997 L 427.03125 36.887497 L 425.8125 37.324997 L 424.4375 37.824997 L 423.375 38.012497 L 421.6875 38.043747 L 420.40625 37.887497 L 419.0625 37.668747 L 417.75 37.481247 L 416.59375 37.387497 L 415.21875 37.231247 L 413.875 37.293747 L 413.75 36.918747 L 413.5625 36.074997 L 413.6562 35.449997 L 413.81245 35.231247 L 414.74995 34.637497 L 415.62495 33.824997 L 416.0312 33.231247 L 416.0625 32.418747 L 416 31.637497000000003 L 415.875 31.074997000000003 L 415.6875 30.574997000000003 L 415.6875 30.074997000000003 L 416.03125 29.731247000000003 L 416.59375 29.512497000000003 L 417.15625 29.199997000000003 L 417.59375 28.762497000000003 L 417.96875 28.168747000000003 L 418.15625 27.543747000000003 L 418.375 27.137497000000003 L 418.3125 26.793747000000003 L 417.875 26.387497000000003 L 417.46875 26.387497000000003 L 417.15625 26.574997000000003 L 416.90625 27.106247000000003 L 416.6875 27.699997000000003 L 416.4375 28.106247000000003 L 415.84375 28.387497000000003 L 415.15625 28.668747000000003 L 414.6875 29.168747000000003 L 414.375 29.793747000000003 L 414.3437 30.449997000000003 L 414.5312 31.231247000000003 L 414.68745 32.012497 L 414.81245 32.606247 L 414.68745 32.949997 L 414.12495 33.387497 L 413.6562 33.762497 L 413.12495 34.137497 L 412.74995 34.449997 L 412.43745 35.012497 L 412.24995 35.856247 L 412.31245 36.762497 L 412.43745 37.262497 L 412.53115 37.731247 L 411.8124 38.012497 L 411.09365 38.574997 L 410.71865 39.137497 L 410.53115 39.918747 L 410.7499 40.762497 L 411.46865 41.574997 L 412.5624 42.574997 L 413.6249 43.168747 L 414.96865 43.668747 L 416.2499 43.949997 L 418.28115 44.168747 L 420.46865 44.293747 L 422.9999 44.512497 L 425.2499 44.449997 L 427.4374 44.262497 L 429.15615 43.949997 L 430.7499 43.512497 L 432.40615 42.793747 L 433.65615 42.074997 L 434.5624 41.231247 L 434.9999 40.543747 L 435.0663 39.903122" stroke-linecap="round" />
</g>
		<g transform="matrix(5.48 0 0 5.48 44.65 68.32)" id="path4363"  >
<path style="stroke: rgb(192,147,40); stroke-width: 0.05; stroke-dasharray: none; stroke-linecap: round; stroke-dashoffset: 0; stroke-linejoin: round; stroke-miterlimit: 4; fill: rgb(192,147,40); fill-rule: nonzero; opacity: 1;" vector-effect="non-scaling-stroke"  transform=" translate(-431.27, -40.76)" d="M 428.79397 42.420604 L 429.63366 42.265924999999996 L 430.27448000000004 42.089147999999994 L 431.10312000000005 41.74664299999999 L 431.65554000000003 41.44833199999999 L 432.07539 41.19421599999999 L 432.41789 40.94009899999999 L 432.80459 40.59759499999999 L 433.09185 40.19984699999999 L 433.32387 39.72475999999999 L 433.41227 39.33806099999999 L 433.42337 39.072895999999986 L 433.41227 38.962409999999984 L 433.578 39.18338099999998 L 433.69953 39.48169199999998 L 433.74372999999997 39.72475999999998 L 433.71063 40.01202199999998 L 433.65542999999997 40.23299299999998 L 433.54493999999994 40.45396399999998 L 433.3792199999999 40.70807999999998 L 433.2024399999999 40.91800199999998 L 432.88202999999993 41.16106999999998 L 432.5505799999999 41.426234999999984 L 432.1970199999999 41.65825499999998 L 431.7329799999999 41.95656499999998 L 431.4457199999999 42.12229399999998 L 431.1253099999999 42.26592499999998 L 430.7717599999999 42.37640999999998 L 430.41820999999993 42.497943999999976 L 430.08674999999994 42.531093999999975 L 429.71109999999993 42.553193999999976 L 429.3354499999999 42.52004399999998 L 429.09237999999993 42.497943999999976 z" stroke-linecap="round" />
</g>
		<g transform="matrix(5.48 0 0 5.48 -1.57 -34.22)" id="path4369"  >
<path style="stroke: rgb(254,254,254); stroke-width: 0.05; stroke-dasharray: none; stroke-linecap: round; stroke-dashoffset: 0; stroke-linejoin: round; stroke-miterlimit: 4; fill: rgb(254,254,254); fill-rule: nonzero; opacity: 1;" vector-effect="non-scaling-stroke"  transform=" translate(-422.84, -22.06)" d="M 419.15964 25.328508 L 421.63451000000003 21.572003 L 419.68997 19.693749999999998 L 421.0158 18.367925 L 426.51797 23.848003 L 425.19214999999997 25.173828 L 423.2476 23.251381000000002 L 419.64578 25.748352 z" stroke-linecap="round" />
</g>
		<g transform="matrix(5.48 0 0 5.48 35.2 -66.03)" id="path4406"  >
<path style="stroke: rgb(255,255,255); stroke-width: 0.05; stroke-dasharray: none; stroke-linecap: round; stroke-dashoffset: 0; stroke-linejoin: round; stroke-miterlimit: 4; fill: rgb(255,255,255); fill-rule: nonzero; opacity: 1;" vector-effect="non-scaling-stroke"  transform=" translate(-240.28, -348.4)" d="M 231.28153 348.76772 L 239.0597 356.5459 L 249.26855999999998 346.18237 C 248.55237999999997 345.22841999999997 247.57413999999997 344.44918 246.50642 343.72959 C 246.15556999999998 343.34169999999995 245.37893 342.89297999999997 244.62816999999998 342.44795999999997 C 244.03674999999998 341.76352999999995 243.23752 341.36589 242.08701 341.03374999999994 C 241.79831 340.67976999999996 240.73873999999998 340.5560499999999 239.63423 340.26034999999996 z" stroke-linecap="round" />
</g>
</g>
</g>
</svg>