<?xml version="1.0" encoding="UTF-8" standalone="no" ?>
<!DOCTYPE svg PUBLIC "-//W3C//DTD SVG 1.1//EN" "http://www.w3.org/Graphics/SVG/1.1/DTD/svg11.dtd">
<svg xmlns="http://www.w3.org/2000/svg" xmlns:xlink="http://www.w3.org/1999/xlink" version="1.1" width="1080" height="1080" viewBox="0 0 1080 1080" xml:space="preserve">
<desc>Created with Fabric.js 5.2.4</desc>
<defs>
</defs>
<rect x="0" y="0" width="100%" height="100%" fill="transparent"></rect>
<g transform="matrix(1 0 0 1 540 540)" id="53e3c1ec-372b-4452-9fbe-6b051c3c9b36"  >
<rect style="stroke: none; stroke-width: 1; stroke-dasharray: none; stroke-linecap: butt; stroke-dashoffset: 0; stroke-linejoin: miter; stroke-miterlimit: 4; fill: rgb(255,255,255); fill-rule: nonzero; opacity: 1; visibility: hidden;" vector-effect="non-scaling-stroke"  x="-540" y="-540" rx="0" ry="0" width="1080" height="1080" />
</g>
<g transform="matrix(1 0 0 1 540 540)" id="39ef64a9-a6ec-4fee-977a-b94df460b588"  >
</g>
<g transform="matrix(5.02 0 0 5.02 540.79 540.79)"  >
<g style="" vector-effect="non-scaling-stroke"   >
		<g transform="matrix(5.8 0 0 5.69 0 0)" id="path3230-2-55"  >
<path style="stroke: rgb(218,71,82); stroke-width: 3; stroke-dasharray: none; stroke-linecap: round; stroke-dashoffset: 0; stroke-linejoin: round; stroke-miterlimit: 4; fill: rgb(218,71,82); fill-rule: nonzero; opacity: 1;" vector-effect="non-scaling-stroke"  transform=" translate(-21.57, -29.29)" d="M 39.936842 29.287827 C 39.936842 39.626815 31.715082 48.008221 21.573027 48.008221 C 11.430972 48.008221 3.2092112999999998 39.626815 3.2092112999999998 29.287827 C 3.2092112999999998 18.948838000000002 11.430972 10.567432 21.573027 10.567432 C 31.715082 10.567432 39.936842 18.948838000000002 39.936842 29.287827 z" stroke-linecap="round" />
</g>
		<g transform="matrix(5.58 0 0 5.58 23.41 0)" id="path4080"  >
<path style="stroke: rgb(254,254,254); stroke-width: 0.05; stroke-dasharray: none; stroke-linecap: butt; stroke-dashoffset: 0; stroke-linejoin: miter; stroke-miterlimit: 4; fill: rgb(254,254,254); fill-rule: nonzero; opacity: 1;" vector-effect="non-scaling-stroke"  transform=" translate(-337.37, -28.3)" d="M 333.21677 15.245587 L 332.49163 17.430167 C 331.99399999999997 19.257170000000002 331.66078999999996 21.248586 331.30476 23.217192 C 331.21425999999997 23.927809 331.17287999999996 24.622075000000002 330.94452 25.378658 L 330.64432 26.999758 L 330.57502 28.177459 L 330.47339999999997 29.913988999999997 L 330.46439999999996 32.403423999999994 L 330.71372999999994 34.81886599999999 L 331.00476999999995 36.726355999999996 L 331.60517999999996 39.067944999999995 L 332.26563 40.629003999999995 L 332.44588 41.058727999999995 L 332.80599 41.34949399999999 L 332.50579 39.668352999999996 L 331.72526 37.326764999999995 L 331.12485 34.985175999999996 L 330.87088 33.33645 L 330.77838 30.426731 C 330.76398 29.39074 330.84958 28.604877000000002 330.93088 27.808053 L 331.15257 25.683513 L 331.78526000000005 22.676826000000002 L 332.4457100000001 20.395278 L 332.9722700000001 18.857333 C 333.3124900000001 18.224626 333.5913000000001 17.600621 333.8820400000001 17.065411 C 333.6353400000001 17.630752 333.4239300000001 18.301967 333.2262400000001 19.014341 C 333.0885200000001 19.557089 332.95526000000007 20.104284000000003 332.86599000000007 20.695482000000002 L 332.4179500000001 23.332623 L 332.1362000000001 25.669562000000003 L 331.9376200000001 27.299962000000004 L 331.6651800000001 28.861021000000004 L 331.5544000000001 30.362040000000004 L 331.6098000000001 32.09857 L 331.66520000000014 33.604239 L 331.7852800000001 35.165298 L 332.0254400000001 36.90648 L 332.44573000000014 38.647661 L 332.81978000000015 39.640727 L 332.99540000000013 40.111751999999996 L 333.42949000000016 39.382101 L 334.06683000000015 39.248067999999996 L 334.81508000000014 39.68681599999999 L 335.9280900000001 40.596728999999996 L 336.9487800000001 41.04929 L 337.60923000000014 41.04929 L 337.18895000000015 40.328801 C 337.1181500000001 39.786884 336.9772600000002 39.244968 337.04110000000014 38.703051 C 337.11830000000015 37.554853 337.2084800000001 36.419661000000005 337.3828800000001 35.368672000000004 L 337.60923000000014 37.506887000000006 L 337.7293100000001 39.188028 L 337.9694800000001 41.109331000000005 C 338.4567500000001 40.956169 338.9679700000001 40.826955000000005 339.4104500000001 40.62900500000001 L 340.6205700000001 40.04241100000001 C 340.9406700000001 39.29940900000001 341.3670600000001 38.598923000000006 341.4611400000001 37.765513000000006 L 341.692 36.96652 C 341.83101 37.314147000000006 341.88067 37.721338 341.87212 38.167335 L 341.90902 38.874149 L 341.87212 39.36815 L 342.83278 38.527579 C 343.21248 38.091505000000005 343.41874 37.724807000000006 343.55326 37.386806 C 343.83004 36.83342 343.94235000000003 36.321154 344.02443 35.816446 C 344.18234 35.152296 344.2682 34.416095 344.2784 33.604239 L 344.21369999999996 30.482121 C 344.08755999999994 29.444515 343.93648999999994 28.40691 343.66418 27.369304 C 343.45529999999997 26.498101 343.09747 25.577251 342.74496 24.65817 C 342.332 23.94999 341.93939 23.241811 341.33639999999997 22.533631 C 340.74186999999995 21.749546 340.04574999999994 20.982393 339.15646999999996 20.247432 L 338.02950999999996 19.434626 L 337.08732 18.848032 L 335.92807999999997 18.233812 L 334.73191999999995 17.402542 L 333.82665999999995 16.492630000000002 L 333.46640999999994 15.892223000000001 z" stroke-linecap="round" />
</g>
		<g transform="matrix(5.58 0 0 5.58 8.39 -43.99)" id="path4082"  >
<path style="stroke: rgb(218,71,82); stroke-width: 0.05; stroke-dasharray: none; stroke-linecap: butt; stroke-dashoffset: 0; stroke-linejoin: miter; stroke-miterlimit: 4; fill: rgb(218,71,82); fill-rule: nonzero; opacity: 1;" vector-effect="non-scaling-stroke"  transform=" translate(-334.68, -20.41)" d="M 335.24129 22.338108 L 335.24129 21.821130999999998 L 335.14898999999997 21.230299 L 335.00127999999995 20.768712999999998 L 334.77971999999994 19.974783 L 334.42891999999995 19.199316999999997 L 334.29966999999994 18.774656999999998 L 334.1519599999999 18.479242 L 334.1150599999999 19.088535999999998 L 334.1150599999999 19.568586999999997 L 334.17045999999993 20.104027999999996 L 334.33662999999996 20.750248999999997 L 334.56042999999994 21.359543999999996 L 334.89052999999996 21.858056999999995 z" stroke-linecap="round" />
</g>
		<g transform="matrix(5.58 0 0 5.58 35.71 -30.91)" id="path4084"  >
<path style="stroke: rgb(218,71,82); stroke-width: 0.05; stroke-dasharray: none; stroke-linecap: butt; stroke-dashoffset: 0; stroke-linejoin: miter; stroke-miterlimit: 4; fill: rgb(218,71,82); fill-rule: nonzero; opacity: 1;" vector-effect="non-scaling-stroke"  transform=" translate(-339.58, -22.75)" d="M 337.78876 19.94716 L 338.18043 20.364941 L 338.63738 20.848000000000003 L 339.21183 21.435504 L 339.56433000000004 21.892451 L 339.89072000000004 22.297177 L 340.16489000000007 22.688846 L 340.4912800000001 23.158849 L 340.70017000000007 23.589686 L 340.89601000000005 24.007466 L 341.07879 24.438303 L 341.17019000000005 24.764694000000002 L 341.28769000000005 25.156363000000002 L 341.36599000000007 25.561088 L 340.96127000000007 24.960529 L 340.12570000000005 23.889965 L 339.61653000000007 23.198016 L 339.14653000000004 22.545234 L 338.71569000000005 21.892451 L 338.28486000000004 21.161335 L 337.93236 20.469386 z" stroke-linecap="round" />
</g>
		<g transform="matrix(5.58 0 0 5.58 36.08 -2.12)" id="path4086"  >
<path style="stroke: rgb(218,71,82); stroke-width: 0.05; stroke-dasharray: none; stroke-linecap: butt; stroke-dashoffset: 0; stroke-linejoin: miter; stroke-miterlimit: 4; fill: rgb(218,71,82); fill-rule: nonzero; opacity: 1;" vector-effect="non-scaling-stroke"  transform=" translate(-339.64, -27.92)" d="M 338.71571 25.508866 L 338.96377 26.161648 L 339.30322 27.101655 L 339.53822 27.871938 L 339.8385 28.589999 L 340.09961 29.321115 L 340.37378 29.947786 L 340.56962 30.3264 L 340.46517 29.373337 L 340.33461 28.093884 L 340.21711 27.362768 L 339.98211 26.723041 L 339.73404999999997 26.174704 L 339.486 25.939701999999997 L 338.98987999999997 25.587199999999996 L 338.84626999999995 25.534979999999997 z" stroke-linecap="round" />
</g>
		<g transform="matrix(5.58 0 0 5.58 17.98 -1.94)" id="path4088"  >
<path style="stroke: rgb(218,71,82); stroke-width: 0.05; stroke-dasharray: none; stroke-linecap: butt; stroke-dashoffset: 0; stroke-linejoin: miter; stroke-miterlimit: 4; fill: rgb(218,71,82); fill-rule: nonzero; opacity: 1;" vector-effect="non-scaling-stroke"  transform=" translate(-336.4, -27.95)" d="M 336.06542 25.508866 L 336.05232 26.331372 L 336.05232 27.193044 L 336.11762 28.028606 L 336.24818 29.164447 L 336.33958 29.751951 L 336.48319000000004 30.391678 L 336.58763000000005 29.255837 L 336.71819000000005 28.354997 L 336.74429000000003 27.728326000000003 L 336.73129000000006 27.127766 L 336.6659900000001 26.579429 L 336.5615400000001 26.148592 L 336.3657100000001 25.809146000000002 z" stroke-linecap="round" />
</g>
		<g transform="matrix(5.58 0 0 5.58 4.11 7.49)" id="path4090"  >
<path style="stroke: rgb(218,71,82); stroke-width: 0.05; stroke-dasharray: none; stroke-linecap: butt; stroke-dashoffset: 0; stroke-linejoin: miter; stroke-miterlimit: 4; fill: rgb(218,71,82); fill-rule: nonzero; opacity: 1;" vector-effect="non-scaling-stroke"  transform=" translate(-333.91, -29.64)" d="M 334.49874 31.671131 L 334.32902 31.175017 L 334.19846 30.456956 L 334.08096 29.751951000000002 L 333.97651 29.073057000000002 L 333.91121000000004 28.681388000000002 L 333.80676000000005 28.10694 L 333.68926000000005 27.610825000000002 L 333.55870000000004 27.884994000000003 L 333.41509 28.368053000000003 L 333.33679 28.825000000000003 L 333.32369 29.203614 L 333.33679 29.699729 L 333.45429 30.300288000000002 L 333.66318 30.809459 L 333.91124 31.188072000000002 L 334.13318000000004 31.462241000000002 z" stroke-linecap="round" />
</g>
		<g transform="matrix(5.58 0 0 5.58 28.72 19.4)" id="path4092"  >
<path style="stroke: rgb(218,71,82); stroke-width: 0.05; stroke-dasharray: none; stroke-linecap: butt; stroke-dashoffset: 0; stroke-linejoin: miter; stroke-miterlimit: 4; fill: rgb(218,71,82); fill-rule: nonzero; opacity: 1;" vector-effect="non-scaling-stroke"  transform=" translate(-338.32, -31.78)" d="M 338.38932 33.877536 L 338.50682 33.498922 L 338.58512 33.172531 L 338.63732000000005 32.75475 L 338.67652000000004 32.402248 L 338.68952 31.997522 L 338.66342000000003 31.658076 L 338.59812000000005 31.201128 L 338.51982000000004 30.652791 L 338.37621 30.013064 L 338.2326 29.673617 L 338.10204 30.078342 L 338.02374 30.574457 L 337.95844 31.214184 L 337.95844 32.062801 L 338.03674 32.611138 L 338.15424 33.146418999999995 L 338.25869 33.51197799999999 z" stroke-linecap="round" />
</g>
		<g transform="matrix(5.58 0 0 5.58 51.33 15.9)" id="path4094"  >
<path style="stroke: rgb(218,71,82); stroke-width: 0.05; stroke-dasharray: none; stroke-linecap: butt; stroke-dashoffset: 0; stroke-linejoin: miter; stroke-miterlimit: 4; fill: rgb(218,71,82); fill-rule: nonzero; opacity: 1;" vector-effect="non-scaling-stroke"  transform=" translate(-342.38, -31.15)" d="M 342.81519 34.125593 L 342.97186 33.290032000000004 L 343.10241 31.775576000000004 L 343.06321 30.874737000000003 L 342.94571 29.947786000000004 L 342.65849000000003 29.125280000000004 L 342.34515000000005 28.616110000000003 L 341.97960000000006 28.302774000000003 L 341.6532000000001 28.172218000000004 L 341.8621000000001 28.589999000000006 L 342.0318200000001 29.060002000000004 L 342.1623700000001 29.582228000000004 L 342.2668200000001 30.208899000000002 L 342.3973800000001 31.201128000000004 L 342.4626800000001 31.945300000000003 L 342.52798000000007 32.571971000000005 L 342.6062800000001 33.09419700000001 L 342.6584800000001 33.36836500000001 z" stroke-linecap="round" />
</g>
		<g transform="matrix(5.58 0 0 5.58 37.42 45.61)" id="path4096"  >
<path style="stroke: rgb(218,71,82); stroke-width: 0.05; stroke-dasharray: none; stroke-linecap: butt; stroke-dashoffset: 0; stroke-linejoin: miter; stroke-miterlimit: 4; fill: rgb(218,71,82); fill-rule: nonzero; opacity: 1;" vector-effect="non-scaling-stroke"  transform=" translate(-339.88, -36.48)" d="M 339.57739 38.51229 L 339.82543999999996 38.212011 L 340.06044999999995 37.859508 L 340.20405999999997 37.206725999999996 L 340.23015999999996 36.527832 L 340.16486 35.914216999999994 L 340.0343 35.104766999999995 L 339.94289999999995 34.63476299999999 L 339.8776 34.37364999999999 L 339.72092999999995 34.79143099999999 L 339.62952999999993 35.37893499999999 L 339.5512299999999 36.08393999999999 L 339.5381299999999 36.61922199999999 L 339.5381299999999 37.11533599999999 L 339.5381299999999 37.91173099999999 L 339.5381299999999 38.44701199999999 L 339.5381299999999 38.57756899999999 z" stroke-linecap="round" />
</g>
		<g transform="matrix(5.58 0 0 5.58 7.25 42.58)" id="path4098"  >
<path style="stroke: rgb(218,71,82); stroke-width: 0.05; stroke-dasharray: none; stroke-linecap: butt; stroke-dashoffset: 0; stroke-linejoin: miter; stroke-miterlimit: 4; fill: rgb(218,71,82); fill-rule: nonzero; opacity: 1;" vector-effect="non-scaling-stroke"  transform=" translate(-334.47, -35.93)" d="M 333.63707 33.342254 L 333.72847 33.916703 L 333.84597 34.504207 L 334.08097000000004 35.104767 L 334.39430000000004 35.888105 L 334.66847000000007 36.423387000000005 L 334.9557000000001 36.971724 L 335.1776400000001 37.389505 L 335.33431000000013 37.728952 L 335.4387600000001 37.977009 L 335.66070000000013 38.525346 L 335.0862500000001 37.911730999999996 L 334.38125000000014 37.141448 L 333.87208000000015 36.345053 L 333.4804100000002 35.666159 L 333.2845700000002 34.739208 L 333.2976700000002 34.347539 L 333.3629700000002 33.929758 L 333.5065800000002 33.5642 z" stroke-linecap="round" />
</g>
		<g transform="matrix(5.58 0 0 5.58 -33.98 4.03)" id="path3303"  >
<path style="stroke: rgb(254,254,254); stroke-width: 0.05; stroke-dasharray: none; stroke-linecap: butt; stroke-dashoffset: 0; stroke-linejoin: miter; stroke-miterlimit: 4; fill: rgb(254,254,254); fill-rule: nonzero; opacity: 1;" vector-effect="non-scaling-stroke"  transform=" translate(-327.08, -29.02)" d="M 331.9595 41.242347 L 330.98589 39.885306 L 330.43019 38.636010999999996 C 329.97695999999996 37.656456999999996 329.79607999999996 36.586121 329.61165 35.516965 C 329.23829 33.482139 329.12945 31.447313 329.02574 29.412487 L 329.22821999999996 26.504596 C 329.32581999999996 25.416079 329.53842 24.350566 329.86580999999995 23.308009 L 330.71880999999996 20.628435 L 331.84748999999994 17.647268 L 332.09304999999995 16.798603 L 331.25300999999996 17.397379 L 329.86580999999995 18.267615 L 328.23304999999993 19.223989 C 327.5733599999999 19.552425 327.04239999999993 19.977406 326.56584999999995 20.443186999999998 C 325.82631 21.179855 325.32014999999996 21.916524 324.80387999999994 22.653191999999997 C 324.28748999999993 23.633706999999998 323.8119499999999 24.747611999999997 323.38652999999994 25.910081999999996 C 323.11294999999996 26.778859999999995 322.87893999999994 27.647638999999995 322.6972399999999 28.516416999999997 C 322.5013799999999 29.210046 322.3784899999999 30.268513 322.22336999999993 31.165857999999997 L 322.06825999999995 33.729161 C 322.11915999999997 34.250423 322.00755999999996 34.771685 322.26213999999993 35.292947 C 322.2882399999999 35.702213 322.65977999999996 36.111478 322.8910899999999 36.520744 L 323.9853399999999 37.701135 L 324.4592399999999 38.136304 L 323.92932999999994 37.197091 L 323.80868999999996 36.382859 L 323.89698999999996 35.894036 C 324.38419999999996 36.528685 324.66653999999994 37.142847 325.03650999999996 37.765771 L 325.83351 38.933227 L 326.84159 39.941306000000004 C 327.42528 40.259925 328.02581 40.645855000000005 328.52172 40.613358000000005 L 329.24978000000004 40.716768 C 329.08451 40.107861 328.78686000000005 39.395545 329.00853000000006 38.786638 L 329.97783000000004 40.277332 L 330.42153 39.863730000000004 C 330.6859 40.15379600000001 330.92667 40.633447000000004 331.39945 40.92351300000001 C 331.44795 41.00676300000001 331.63524 41.113136000000004 331.95954 41.24234700000001 z" stroke-linecap="round" />
</g>
		<g transform="matrix(5.58 0 0 5.58 -27.66 -41.99)" id="path4073"  >
<path style="stroke: rgb(218,71,82); stroke-width: 0.05; stroke-dasharray: none; stroke-linecap: butt; stroke-dashoffset: 0; stroke-linejoin: miter; stroke-miterlimit: 4; fill: rgb(218,71,82); fill-rule: nonzero; opacity: 1;" vector-effect="non-scaling-stroke"  transform=" translate(-328.21, -20.77)" d="M 327.90963 21.557197 L 328.23966 21.077368 L 328.58436 20.474145 L 329.11864 19.664102 C 329.27719 19.485412 329.41163 19.270564 329.61845000000005 19.164288 L 329.11864 19.233228 C 328.92955 19.271958 328.75917000000004 19.350417 328.61186000000004 19.442613 C 328.42493 19.562403 328.36058 19.682192 328.27413 19.801981 L 328.0156 20.284560000000003 L 327.75708000000003 20.818844000000002 L 327.37791000000004 21.249717 L 326.96427000000006 21.680591 L 326.82639000000006 22.05976 L 326.80919000000006 22.369989 L 327.10218000000003 22.249345 L 327.46411 22.008055000000002 L 327.68817 21.766766000000004 z" stroke-linecap="round" />
</g>
		<g transform="matrix(5.58 0 0 5.58 -28.89 -12.57)" id="path4075"  >
<path style="stroke: rgb(218,71,82); stroke-width: 0.05; stroke-dasharray: none; stroke-linecap: butt; stroke-dashoffset: 0; stroke-linejoin: miter; stroke-miterlimit: 4; fill: rgb(218,71,82); fill-rule: nonzero; opacity: 1;" vector-effect="non-scaling-stroke"  transform=" translate(-327.99, -26.04)" d="M 327.84069 29.249666 L 327.91219 27.437065 L 328.10178 25.61016 L 328.20519 24.731178 L 328.39477 23.679846 L 328.60654 22.838264000000002 C 328.33295 22.988837000000004 328.20729 23.223947000000003 328.0156 23.421321000000002 L 327.60214 24.40133 L 327.42961 25.403341 L 327.37791000000004 26.351263 L 327.46411000000006 27.333655 L 327.56752000000006 28.126463 L 327.82408000000004 29.181375000000003 z" stroke-linecap="round" />
</g>
		<g transform="matrix(5.58 0 0 5.58 -43.56 -10.76)" id="path4077"  >
<path style="stroke: rgb(218,71,82); stroke-width: 0.05; stroke-dasharray: none; stroke-linecap: butt; stroke-dashoffset: 0; stroke-linejoin: miter; stroke-miterlimit: 4; fill: rgb(218,71,82); fill-rule: nonzero; opacity: 1;" vector-effect="non-scaling-stroke"  transform=" translate(-325.36, -26.37)" d="M 325.46721 28.471527 C 325.56341000000003 28.196202999999997 325.63845000000003 27.931198 325.65680000000003 27.629216 C 325.69120000000004 27.272657 325.7465 26.930009 325.7062 26.523613 L 325.7062 25.696335 L 325.55108 24.731178 L 325.36150000000004 24.265833999999998 L 325.03404000000006 25.420575999999997 L 325.01684000000006 26.368497999999995 C 324.97814000000005 26.644256999999996 325.03494000000006 26.920016999999994 325.08574000000004 27.195775999999995 L 325.17194000000006 27.643883999999996 L 325.37858000000006 28.239773999999997 z" stroke-linecap="round" />
</g>
		<g transform="matrix(5.58 0 0 5.58 -54.27 16.65)" id="path4079"  >
<path style="stroke: rgb(218,71,82); stroke-width: 0.05; stroke-dasharray: none; stroke-linecap: butt; stroke-dashoffset: 0; stroke-linejoin: miter; stroke-miterlimit: 4; fill: rgb(218,71,82); fill-rule: nonzero; opacity: 1;" vector-effect="non-scaling-stroke"  transform=" translate(-323.44, -31.28)" d="M 323.6647 28.035886 L 323.6379 28.712451 L 323.6207 30.849586000000002 L 323.7069 32.193912000000005 L 323.82755000000003 33.296949000000005 L 323.95314 34.530531 L 323.51732000000004 33.624413000000004 C 323.31717000000003 33.130344 323.17326 32.636276 323.05198 32.142207000000006 L 322.93133 30.987465000000007 L 322.93133 30.280832000000007 C 322.95883 29.91390700000001 322.99793 29.548911000000007 323.10368 29.195030000000006 C 323.17268 28.930761000000007 323.27889 28.666491000000008 323.41391 28.402222000000005 C 323.46281 28.262752000000006 323.56441 28.149654000000005 323.6647 28.035886000000005 z" stroke-linecap="round" />
</g>
		<g transform="matrix(5.58 0 0 5.58 -38.09 31.34)" id="path4081"  >
<path style="stroke: rgb(218,71,82); stroke-width: 0.05; stroke-dasharray: none; stroke-linecap: butt; stroke-dashoffset: 0; stroke-linejoin: miter; stroke-miterlimit: 4; fill: rgb(218,71,82); fill-rule: nonzero; opacity: 1;" vector-effect="non-scaling-stroke"  transform=" translate(-326.34, -33.92)" d="M 325.93017 31.259187 C 326.05321999999995 31.616737 326.10987 31.907899 326.16871999999995 32.201246 L 326.30936999999994 33.193538999999994 L 326.49895999999995 34.38275099999999 L 326.62970999999993 34.83342499999999 L 326.9126299999999 35.46855299999999 L 327.0160399999999 35.77878199999999 L 327.10223999999994 36.15795099999999 L 327.08743999999996 36.66729999999999 L 326.89804 36.54922099999999 L 326.74805 36.35981999999999 L 326.64205 36.02960699999999 C 326.62924999999996 35.85858999999999 326.44696 35.66874399999999 326.32669 35.48578799999999 L 325.87858 34.96873899999999 L 325.67176 34.52062999999999 L 325.58556 33.76229199999999 L 325.58556 33.21077399999999 L 325.84409 31.573452999999986 L 325.87869 31.167513999999986 z" stroke-linecap="round" />
</g>
</g>
</g>
</svg>