<?xml version="1.0" encoding="UTF-8" standalone="no" ?>
<!DOCTYPE svg PUBLIC "-//W3C//DTD SVG 1.1//EN" "http://www.w3.org/Graphics/SVG/1.1/DTD/svg11.dtd">
<svg xmlns="http://www.w3.org/2000/svg" xmlns:xlink="http://www.w3.org/1999/xlink" version="1.1" width="1080" height="1080" viewBox="0 0 1080 1080" xml:space="preserve">
<desc>Created with Fabric.js 5.2.4</desc>
<defs>
</defs>
<rect x="0" y="0" width="100%" height="100%" fill="transparent"></rect>
<g transform="matrix(1 0 0 1 540 540)" id="45c6d048-12fc-4860-a27d-26eed42720eb"  >
<rect style="stroke: none; stroke-width: 1; stroke-dasharray: none; stroke-linecap: butt; stroke-dashoffset: 0; stroke-linejoin: miter; stroke-miterlimit: 4; fill: rgb(255,255,255); fill-rule: nonzero; opacity: 1; visibility: hidden;" vector-effect="non-scaling-stroke"  x="-540" y="-540" rx="0" ry="0" width="1080" height="1080" />
</g>
<g transform="matrix(1 0 0 1 540 540)" id="69f35028-c793-4919-8d5a-0a4083b63708"  >
</g>
<g transform="matrix(28.7 0 0 28.15 540 540)" id="path3230-0"  >
<path style="stroke: rgb(194,115,68); stroke-width: 3; stroke-dasharray: none; stroke-linecap: round; stroke-dashoffset: 0; stroke-linejoin: round; stroke-miterlimit: 4; fill: rgb(194,115,68); fill-rule: nonzero; opacity: 1;" vector-effect="non-scaling-stroke"  transform=" translate(-21.57, -29.29)" d="M 39.936842 29.287827 C 39.936842 39.626815 31.715082 48.008221 21.573027 48.008221 C 11.430972 48.008221 3.2092112999999998 39.626815 3.2092112999999998 29.287827 C 3.2092112999999998 18.948838000000002 11.430972 10.567432 21.573027 10.567432 C 31.715082 10.567432 39.936842 18.948838000000002 39.936842 29.287827 z" stroke-linecap="round" />
</g>
<g transform="matrix(27.58 0 0 27.58 842.6 557.86)" id="path4108"  >
<path style="stroke: rgb(255,255,255); stroke-width: 0.05; stroke-dasharray: none; stroke-linecap: round; stroke-dashoffset: 0; stroke-linejoin: round; stroke-miterlimit: 4; fill: rgb(255,255,255); fill-rule: nonzero; opacity: 1;" vector-effect="non-scaling-stroke"  transform=" translate(-211.96, -28.85)" d="M 207.50668 28.541766 L 207.9595 27.55678 L 208.53502999999998 26.709983 L 209.08658999999997 26.174187 L 209.66965999999996 25.717184 L 210.37879999999996 25.354734 L 211.32431999999994 25.071077 L 212.25408999999993 24.881973 L 212.94746999999992 24.787422999999997 L 213.60933999999992 24.740142999999996 L 214.3815099999999 24.818932999999998 L 214.8542799999999 24.960760999999998 L 215.1536899999999 25.165623999999998 L 215.4215899999999 25.417764 L 215.5949399999999 25.669902999999998 L 215.6894399999999 26.079629999999998 L 215.70523999999992 26.489355999999997 L 215.66583999999992 26.654822999999997 L 210.79245999999992 29.424415999999997 L 215.81160999999992 26.918780999999996 L 215.94949999999992 27.064548999999996 L 216.1149599999999 27.218196999999996 L 216.3158899999999 27.482154999999995 L 216.4577099999999 27.750052999999994 L 216.5365099999999 27.958855999999994 L 216.59160999999992 28.207055999999994 L 216.6152099999999 28.463134999999994 L 216.5601099999999 28.821645999999994 L 216.4892099999999 29.069844999999994 L 216.3670799999999 29.357441999999995 L 216.2134299999999 29.629279999999994 L 216.0203899999999 29.916875999999995 L 215.8470399999999 30.141437999999994 L 215.5436899999999 30.472370999999995 L 215.33488999999992 30.661474999999996 L 214.90545999999992 31.031804999999995 L 214.51542999999992 31.327280999999996 L 213.86932999999993 31.740946999999995 L 213.29806999999994 32.06399999999999 L 212.80560999999994 32.31219999999999 L 212.21859999999995 32.56827899999999 L 211.54491999999996 32.80071999999999 L 211.02881999999997 32.918910999999994 L 210.77273999999997 32.942550999999995 L 210.52453999999997 32.958310999999995 L 210.20542999999998 32.934670999999994 L 209.96116999999998 32.899210999999994 L 209.70114999999998 32.840120999999996 L 209.47659 32.761331 L 209.28748 32.682541 L 208.86594 32.438281 L 208.61774 32.253116000000006 L 208.31832 31.977339000000004 L 208.12134 31.748837000000005 L 207.88102 31.449422000000006 L 207.62888 31.039695000000005 L 207.48705 30.767857000000006 L 207.41215 30.574813000000006 L 207.35305 30.350252000000005 L 207.32545 30.149328000000004 L 207.29784999999998 29.842033000000004 L 207.30964999999998 29.530799000000005 L 207.34515 29.164409000000006 L 207.43574999999998 28.789872000000006 z" stroke-linecap="round" />
</g>
<g transform="matrix(27.58 0 0 27.58 653.74 790.7)" id="path4108-5"  >
<path style="stroke: rgb(255,255,255); stroke-width: 0.05; stroke-dasharray: none; stroke-linecap: round; stroke-dashoffset: 0; stroke-linejoin: round; stroke-miterlimit: 4; fill: rgb(255,255,255); fill-rule: nonzero; opacity: 1;" vector-effect="non-scaling-stroke"  transform=" translate(-205.11, -37.29)" d="M 203.74167 41.816475 L 202.74753 41.152899 L 202.17972 40.27307 L 201.87986 39.543927999999994 L 201.63237 38.800369999999994 L 201.42549 38.031313 L 201.34489 37.047456999999994 L 201.26019 36.09869 L 201.31208999999998 35.353943 L 201.43483999999998 34.618606 L 201.73514999999998 34.004756 L 201.97229 33.571869 L 202.23499999999999 33.321667 L 202.53737999999998 33.112125999999996 L 202.82008 32.995062999999995 L 203.24051 32.98796299999999 L 203.64455 33.05780299999999 L 203.79819 33.130782999999994 L 205.41445000000002 39.317708999999994 L 204.08671 33.043156999999994 L 204.24237000000002 32.829257999999996 L 204.45833000000002 32.683783999999996 L 204.75834 32.495332 L 205.01865 32.443642 L 205.27052 32.410031999999994 L 205.50914 32.40783199999999 L 205.81139 32.48494199999999 L 206.11932 32.66034299999999 L 206.40982 32.82823399999999 L 206.58758 33.00755999999999 L 206.82147 33.21443399999999 L 207.06258 33.46311499999999 L 207.24613 33.67941599999999 L 207.50666999999999 34.04501299999999 L 207.64816 34.28860499999999 L 207.92098 34.78572099999999 L 208.12878999999998 35.22871699999999 L 208.47700999999998 35.91552799999999 L 208.72093999999998 36.63527399999999 L 208.81434 37.15298999999999 L 208.92699 37.74919899999999 L 208.95158999999998 38.44088299999999 L 208.95959 38.970279999999995 L 208.92938999999998 39.225671 L 208.89308999999997 39.471714 L 208.80358999999999 39.778912 L 208.71809 40.010438 L 208.60616 40.25246 L 208.48235 40.455698 L 208.36592 40.624263 L 208.03924999999998 40.985718 L 207.86897 41.236807999999996 L 207.63065999999998 41.472258 L 207.38177 41.679854 L 207.05452 41.915077 L 206.66378 42.060772 L 206.30587 42.111652 L 206.00772 42.144722 L 205.77577 42.171412000000004 L 205.511 42.172207 L 205.22030999999998 42.166507 L 204.93399 42.137057000000006 L 204.62987999999999 42.08855700000001 L 204.17304 41.95322200000001 z" stroke-linecap="round" />
</g>
<g transform="matrix(27.58 0 0 27.58 451.9 487.8)" id="path4151"  >
<path style="stroke: rgb(255,255,255); stroke-width: 25; stroke-dasharray: none; stroke-linecap: round; stroke-dashoffset: 0; stroke-linejoin: round; stroke-miterlimit: 4; fill: none; fill-rule: nonzero; opacity: 1;" vector-effect="non-scaling-stroke"  transform=" translate(-197.37, -25.89)" d="M 194.73822 24.089918 L 195.50294000000002 22.17809 L 196.38488 20.520561 L 197.34495 18.865594 L 198.20124 17.595558 L 199.41621 16.380581 L 200.33466 15.75356 L 201.70847 15.329563 L 203.3141 15.118847 L 205.02352 15.280242000000001 L 206.47289999999998 16.076349 L 207.6488 16.997348 L 208.2995 18.098298 L 208.50253 19.287638 L 208.45833000000002 20.690257000000003 L 208.21624000000003 21.928918000000003 L 207.62828000000002 23.104827000000004 L 207.04802 23.765788000000004 L 205.94769 24.569588000000003 L 204.98443 25.308682000000005 L 203.51969 26.352008000000005 L 202.08374 27.476031000000006 L 201.34720000000002 28.503977000000006 L 200.34807 30.291524000000006 L 199.5206 32.302608000000006 L 198.5759 33.75967500000001 L 197.47813 34.72999700000001 L 196.27853 35.575426000000014 L 194.28283 36.24664100000001 L 192.28713 36.56686600000001 L 190.45282999999998 36.66294600000001 L 188.95412999999996 36.49642400000001 L 187.99917999999997 36.21526400000001 L 187.25495999999995 35.72595100000001 L 186.58632999999995 34.82802600000001 L 186.24557999999993 32.37243800000001 L 186.58888999999994 30.93075300000001 L 187.33821999999992 29.22646600000001 L 188.1785299999999 28.01661600000001 L 189.50814999999992 26.61143300000001 L 191.2566199999999 25.44578000000001 L 192.4305999999999 24.84439400000001 L 193.57315999999992 24.43578100000001 z" stroke-linecap="round" />
</g>
<g transform="matrix(27.58 0 0 27.58 603.38 320.91)" id="path4153"  >
<path style="stroke: rgb(255,255,255); stroke-width: 6; stroke-dasharray: none; stroke-linecap: round; stroke-dashoffset: 0; stroke-linejoin: round; stroke-miterlimit: 4; fill: none; fill-rule: nonzero; opacity: 1;" vector-effect="non-scaling-stroke"  transform=" translate(-203.18, -20.16)" d="M 198.78539 17.948081 L 200.46477000000002 18.25744 L 202.40932 18.876158 L 204.13289 19.760042 L 205.94485 21.041673 L 207.58003 22.367497999999998 L 207.58003 22.367497999999998" stroke-linecap="round" />
</g>
<g transform="matrix(27.58 0 0 27.58 532.56 399.43)" id="path4155"  >
<path style="stroke: rgb(255,255,255); stroke-width: 7; stroke-dasharray: none; stroke-linecap: butt; stroke-dashoffset: 0; stroke-linejoin: miter; stroke-miterlimit: 4; fill: none; fill-rule: nonzero; opacity: 1;" vector-effect="non-scaling-stroke"  transform=" translate(-200.6, -22.99)" d="M 196.70827 20.953284 L 199.05056 21.130061 L 200.90671 21.74878 L 202.76287 23.162993 L 204.48644 25.019148" stroke-linecap="round" />
</g>
<g transform="matrix(27.58 0 0 27.58 461.35 495.85)" id="path4157"  >
<path style="stroke: rgb(255,255,255); stroke-width: 6; stroke-dasharray: none; stroke-linecap: butt; stroke-dashoffset: 0; stroke-linejoin: miter; stroke-miterlimit: 4; fill: none; fill-rule: nonzero; opacity: 1;" vector-effect="non-scaling-stroke"  transform=" translate(-198.03, -26.5)" d="M 195.02889 24.798178 L 196.04534999999998 24.798178 L 196.84085 25.019148 L 198.34345 25.770449000000003 L 199.35992 26.433362000000002 L 199.97863999999998 27.052080000000004 L 201.0393 28.201129000000005" stroke-linecap="round" />
</g>
<g transform="matrix(27.58 0 0 27.58 353.14 595.48)" id="path4159"  >
<path style="stroke: rgb(255,255,255); stroke-width: 9; stroke-dasharray: none; stroke-linecap: butt; stroke-dashoffset: 0; stroke-linejoin: miter; stroke-miterlimit: 4; fill: none; fill-rule: nonzero; opacity: 1;" vector-effect="non-scaling-stroke"  transform=" translate(-194.06, -30.06)" d="M 189.68139 27.05208 L 191.13979999999998 27.273051 L 192.95175999999998 27.759186999999997 L 194.58694999999997 28.422099999999997 L 196.00115999999997 29.438565999999998 L 196.97342999999998 30.455032 L 197.45956999999999 31.250526999999998 L 198.43184 33.062487999999995" stroke-linecap="round" />
</g>
<g transform="matrix(27.58 0 0 27.58 286.31 666.41)" id="path4161"  >
<path style="stroke: rgb(255,255,255); stroke-width: 7; stroke-dasharray: none; stroke-linecap: butt; stroke-dashoffset: 0; stroke-linejoin: miter; stroke-miterlimit: 4; fill: none; fill-rule: nonzero; opacity: 1;" vector-effect="non-scaling-stroke"  transform=" translate(-191.67, -32.66)" d="M 187.29491 29.924702 L 189.85817 30.499226 L 191.184 31.029556 L 192.77499 31.869245 L 194.10081 33.062488 L 194.80792 33.857983000000004 L 196.04534999999998 35.404779000000005" stroke-linecap="round" />
</g>
<g transform="matrix(28.06 0 0 27.58 355.61 455.01)" id="path4163"  >
<path style="stroke: rgb(255,255,255); stroke-width: 6; stroke-dasharray: none; stroke-linecap: butt; stroke-dashoffset: 0; stroke-linejoin: miter; stroke-miterlimit: 4; fill: none; fill-rule: nonzero; opacity: 1;" vector-effect="non-scaling-stroke"  transform=" translate(-193.68, -25.02)" d="M 200.64155 16.445479 L 200.55315 18.169051 L 199.89023999999998 19.671653 L 198.87376999999998 21.74878 L 196.75244999999998 25.019148 L 193.61467 28.068546 L 191.93528999999998 29.615342000000002 L 190.34429999999998 30.764391000000003 L 188.70910999999998 32.090216000000005 L 188.04619999999997 32.66474 L 186.72036999999997 33.592818 L 186.94133999999997 33.416041" stroke-linecap="round" />
</g>
<g transform="matrix(27.61 0 0 27.58 406.02 471.25)" id="path4165"  >
<path style="stroke: rgb(255,255,255); stroke-width: 8; stroke-dasharray: none; stroke-linecap: butt; stroke-dashoffset: 0; stroke-linejoin: miter; stroke-miterlimit: 4; fill: none; fill-rule: nonzero; opacity: 1;" vector-effect="non-scaling-stroke"  transform=" translate(-195.56, -25.57)" d="M 187.91363 35.62575 L 188.66493 35.228002999999994 L 192.02367999999998 32.62054599999999 L 193.87983999999997 30.98536199999999 L 195.38243999999997 29.43856599999999 L 197.37117999999998 27.140468999999992 L 198.7412 25.240118999999993 L 200.15541 23.38396399999999 L 201.30445999999998 21.306837999999992 L 201.79059999999998 20.246177999999993 L 202.45351 18.787769999999995 L 202.98384 16.887419999999995 L 203.20480999999998 15.517400999999996" stroke-linecap="round" />
</g>
<g transform="matrix(26.8 0 0 27.58 477.39 483.44)" id="path4167"  >
<path style="stroke: rgb(255,255,255); stroke-width: 8; stroke-dasharray: none; stroke-linecap: butt; stroke-dashoffset: 0; stroke-linejoin: miter; stroke-miterlimit: 4; fill: none; fill-rule: nonzero; opacity: 1;" vector-effect="non-scaling-stroke"  transform=" translate(-198.06, -26.01)" d="M 205.37033 15.782566 L 204.70740999999998 17.72711 L 203.95611 20.113595 L 203.11642 22.455886 L 201.7464 24.577207 L 200.55316 26.124003000000002 L 199.80186 27.052080000000004 L 198.56442 28.952430000000003 L 197.68054 30.057284000000003 L 197.01763 30.808585000000004 L 195.78019 32.178605000000005 L 194.54275 33.106682000000006 L 190.74205 36.24446900000001" stroke-linecap="round" />
</g>
<g transform="matrix(27.58 0 0 27.58 667.99 338.58)" id="path4169"  >
<path style="stroke: rgb(255,255,255); stroke-width: 6; stroke-dasharray: none; stroke-linecap: butt; stroke-dashoffset: 0; stroke-linejoin: miter; stroke-miterlimit: 4; fill: none; fill-rule: nonzero; opacity: 1;" vector-effect="non-scaling-stroke"  transform=" translate(-205.53, -20.8)" d="M 206.65196 16.710644 L 206.25421 18.743575999999997 L 206.07743 19.936818 L 205.72387999999998 21.218449 L 205.01676999999998 23.162993 L 204.39804999999998 24.886566000000002" stroke-linecap="round" />
</g>
</svg>