<?xml version="1.0" encoding="UTF-8" standalone="no" ?>
<!DOCTYPE svg PUBLIC "-//W3C//DTD SVG 1.1//EN" "http://www.w3.org/Graphics/SVG/1.1/DTD/svg11.dtd">
<svg xmlns="http://www.w3.org/2000/svg" xmlns:xlink="http://www.w3.org/1999/xlink" version="1.1" width="1080" height="1080" viewBox="0 0 1080 1080" xml:space="preserve">
<desc>Created with Fabric.js 5.2.4</desc>
<defs>
</defs>
<g transform="matrix(1 0 0 1 540 540)" id="6c4a6d59-176a-443c-ac20-519fcf6b88b2"  >
<rect style="stroke: none; stroke-width: 1; stroke-dasharray: none; stroke-linecap: butt; stroke-dashoffset: 0; stroke-linejoin: miter; stroke-miterlimit: 4; fill: rgb(255,255,255); fill-rule: nonzero; opacity: 1; visibility: hidden;" vector-effect="non-scaling-stroke"  x="-540" y="-540" rx="0" ry="0" width="1080" height="1080" />
</g>
<g transform="matrix(1 0 0 1 540 540)" id="32bbea7c-776d-47ee-b832-386e2648a163"  >
</g>
<g transform="matrix(28.97 0 0 28.42 540 544.81)" id="path3230-2-6"  >
<path style="stroke: rgb(154,142,108); stroke-width: 3; stroke-dasharray: none; stroke-linecap: round; stroke-dashoffset: 0; stroke-linejoin: round; stroke-miterlimit: 4; fill: rgb(154,142,108); fill-rule: nonzero; opacity: 1;" vector-effect="non-scaling-stroke"  transform=" translate(-21.57, -29.29)" d="M 39.936842 29.287827 C 39.936842 39.626815 31.715082 48.008221 21.573027 48.008221 C 11.430972 48.008221 3.2092112999999998 39.626815 3.2092112999999998 29.287827 C 3.2092112999999998 18.948838000000002 11.430972 10.567432 21.573027 10.567432 C 31.715082 10.567432 39.936842 18.948838000000002 39.936842 29.287827 z" stroke-linecap="round" />
</g>
<g transform="matrix(27.85 0 0 27.85 718.14 512.52)" id="path4248"  >
<path style="stroke: rgb(255,255,255); stroke-width: 0.05; stroke-dasharray: none; stroke-linecap: round; stroke-dashoffset: 0; stroke-linejoin: round; stroke-miterlimit: 4; fill: rgb(255,255,255); fill-rule: nonzero; opacity: 1;" vector-effect="non-scaling-stroke"  transform=" translate(-227.68, -332.44)" d="M 224.05263 331.42229 L 224.33109 331.051 L 224.82613999999998 330.58689 L 225.50682999999998 330.09184 L 226.55880999999997 329.28739 L 227.44061999999997 328.71502000000004 L 228.22960999999998 328.23545 L 229.04954999999998 327.77133000000003 L 230.16337 327.27624000000003 L 231.32368 326.88950000000006 L 231.88061 326.8122000000001 L 232.28282 326.84310000000005 L 232.48393 326.98233000000005 C 230.69043 328.96409000000006 228.85664 330.93577000000005 226.89917 332.87653000000006 C 226.97017 333.01680000000005 226.86997 333.30689000000007 227.23951 333.18593000000004 C 229.12932999999998 331.26236000000006 230.98044 329.31300000000005 232.74693 327.30721000000005 L 232.79333 327.83317000000005 C 232.77582999999998 328.12602000000004 232.74373 328.4480300000001 232.68506 328.82320000000004 L 232.43753999999998 330.09176 L 231.97341999999998 331.26761000000005 L 230.79767999999999 333.77380000000005 L 230.11697999999998 334.98048000000006 L 229.65286999999998 335.72305000000006 L 229.15780999999998 336.2954700000001 L 228.47713 336.8988000000001 L 227.67267999999999 337.4866700000001 L 226.51239999999999 337.9043800000001 C 226.10501 338.02676000000014 225.69762999999998 338.1272600000001 225.29025 338.0435900000001 L 224.36203999999998 337.7651700000001 L 223.6504 337.3629100000001 C 223.34896999999998 337.0661500000001 223.11066 336.7062800000001 222.84593999999998 336.37281000000013 C 222.65061999999998 335.91927000000015 222.55658 335.5062400000001 222.56748 335.13519000000014 L 222.62938 334.0213200000001 C 222.83049 333.40221000000014 223.18086 332.6638200000001 223.40288999999999 332.3505300000001 z" stroke-linecap="round" />
</g>
<g transform="matrix(27.85 0 0 27.85 340.09 518.54)" id="path4248-0"  >
<path style="stroke: rgb(255,255,255); stroke-width: 0.04238347; stroke-dasharray: none; stroke-linecap: round; stroke-dashoffset: 0; stroke-linejoin: round; stroke-miterlimit: 4; fill: rgb(255,255,255); fill-rule: nonzero; opacity: 1;" vector-effect="non-scaling-stroke"  transform=" translate(-214.1, -332.66)" d="M 217.132 333.61727 L 216.89329 333.93188000000004 L 216.47216 334.32264000000004 L 215.89548 334.73685000000006 L 215.00359 335.41087000000005 L 214.25767 335.88817000000006 L 213.5908 336.2872300000001 L 212.89836 336.67248000000006 L 211.95997 337.07937000000004 L 210.98456 337.39228 L 210.51817 337.44938 L 210.1828 337.41598000000005 L 210.01717 337.29281000000003 C 211.54787 335.61882 213.11205999999999 333.95418 214.77901 332.31822000000005 C 214.72201 332.19637000000006 214.81061 331.9485700000001 214.49993 332.04633000000007 C 212.88976 333.6686400000001 211.31149 335.31380000000007 209.80294 337.00892000000005 L 209.77284 336.55577000000005 C 209.79234 336.30419000000006 209.82454 336.02778000000006 209.87971 335.70610000000005 L 210.1075 334.6192300000001 L 210.51463999999999 333.6158000000001 L 211.53816999999998 331.48025000000007 L 212.12668 330.4539700000001 L 212.5266 329.8231800000001 L 212.94955 329.3392600000001 L 213.52802 328.8319200000001 L 214.20959 328.3399800000001 L 215.18549 328.0004200000001 C 215.52775 327.9021200000001 215.86961 327.8225800000001 216.20843 327.9014200000001 L 216.97895 328.1566600000001 L 217.56656 328.5147300000001 C 217.81335 328.7750900000001 218.00639 329.0886600000001 218.22192 329.37997000000007 C 218.37749000000002 329.77337000000006 218.44916 330.13020000000006 218.43389000000002 330.44916000000006 L 218.36369000000002 331.40612000000004 C 218.18545000000003 331.93519000000003 217.88058 332.56432000000007 217.68995 332.82999000000007 z" stroke-linecap="round" />
</g>
<g transform="matrix(27.85 0 0 27.85 559.58 238.18)" id="path4248-5"  >
<path style="stroke: rgb(255,255,255); stroke-width: 0.03568314; stroke-dasharray: none; stroke-linecap: round; stroke-dashoffset: 0; stroke-linejoin: round; stroke-miterlimit: 4; fill: rgb(255,255,255); fill-rule: nonzero; opacity: 1;" vector-effect="non-scaling-stroke"  transform=" translate(-221.99, -322.59)" d="M 220.01263 325.03413 L 219.87241 324.71687000000003 L 219.73992 324.2189 L 219.64302 323.58241000000004 L 219.46981 322.58547000000004 L 219.38541 321.78416000000004 L 219.32931000000002 321.07817000000006 L 219.29141 320.35603000000003 L 219.32061000000002 319.42068 L 219.42789000000002 318.48977 L 219.54392 318.07945 L 219.67944000000003 317.81236 L 219.82095000000004 317.72056000000003 C 220.47996000000003 319.62587 221.12124000000003 321.5556 221.70808000000005 323.56023000000005 C 221.81234000000006 323.55823000000004 221.95607000000004 323.72541000000007 221.99155000000005 323.42968 C 221.39527000000004 321.47751 220.77233000000004 319.54336 220.09114000000005 317.64858000000004 L 220.41811000000004 317.79382000000004 C 220.58755000000005 317.90458000000007 220.77012000000005 318.03525 220.97664000000003 318.20217 L 221.66063000000003 318.80046000000004 L 222.22632000000002 319.51696000000004 L 223.37771 321.17278000000005 L 223.89872 322.04910000000007 L 224.20618 322.61957000000007 L 224.40322999999998 323.15405000000004 L 224.56464999999997 323.82702000000006 L 224.68083999999996 324.58018000000004 L 224.59203999999997 325.52151000000003 C 224.54643999999996 325.84384000000006 224.48767999999995 326.15878000000004 224.31921999999997 326.41166000000004 L 223.88307999999998 326.95827 L 223.43618999999998 327.31371 C 223.17157999999998 327.42168000000004 222.88771999999997 327.46482000000003 222.61191999999997 327.53509 C 222.28475999999998 327.51699 222.01121999999998 327.44269 221.79324999999997 327.31013 L 221.14741999999998 326.89204 C 220.83699 326.54464 220.4989 326.05405 220.37681999999998 325.79528 z" stroke-linecap="round" />
</g>
<g transform="matrix(27.85 0 0 27.85 621.07 75.91)" id="path4248-1"  >
<path style="stroke: rgb(255,255,255); stroke-width: 0.02677974; stroke-dasharray: none; stroke-linecap: round; stroke-dashoffset: 0; stroke-linejoin: round; stroke-miterlimit: 4; fill: rgb(255,255,255); fill-rule: nonzero; opacity: 1;" vector-effect="non-scaling-stroke"  transform=" translate(-222.99, -314.55)" d="M 223.17006 316.66457 L 222.96121 316.55219000000005 L 222.67998 316.3259100000001 L 222.35907 315.9954400000001 L 221.84501 315.4900300000001 L 221.46097 315.0526000000001 L 221.13231 314.6568100000001 L 220.80651999999998 314.2408600000001 L 220.42616999999998 313.6575300000001 L 220.08921999999998 313.0324200000001 L 219.97727999999998 312.71775000000014 L 219.93658 312.47873000000016 L 219.97297999999998 312.3425100000002 C 221.12986999999998 313.12169000000017 222.28767 313.92575000000016 223.44819999999999 314.8062100000002 C 223.50289999999998 314.7458100000002 223.65000999999998 314.7651100000002 223.54369999999997 314.5657000000002 C 222.40034999999997 313.7224200000002 221.25043999999997 312.9052200000002 220.08621999999997 312.1450600000002 L 220.32158999999996 312.0468600000002 C 220.45857999999996 312.0174600000002 220.61099999999996 311.9927600000002 220.79147999999995 311.9762600000002 L 221.40847999999994 311.9492600000002 L 222.01258999999993 312.0612800000002 L 223.32576999999992 312.4089400000002 L 223.9737599999999 312.6432400000002 L 224.3787299999999 312.8138200000002 L 224.7097399999999 313.0254600000002 L 225.08039999999988 313.3412900000002 L 225.4609599999999 313.7314700000002 L 225.81213999999989 314.35238000000015 C 225.92422999999988 314.57367000000016 226.0263399999999 314.7979100000002 226.04376999999988 315.0470500000001 L 226.0431699999999 315.62656000000015 L 225.9559699999999 316.0963800000002 C 225.8609699999999 316.3124700000002 225.7282199999999 316.50023000000016 225.6112699999999 316.69984000000017 C 225.4296099999999 316.87517000000014 225.25268999999992 316.98589000000015 225.0806399999999 317.02968000000016 L 224.5601999999999 317.1440900000002 C 224.2480399999999 317.11039000000017 223.8605999999999 317.00563000000017 223.68614999999988 316.9183500000002 z" stroke-linecap="round" />
</g>
<g transform="matrix(27.85 0 0 27.85 560.58 833.93)" id="path4248-19"  >
<path style="stroke: rgb(255,255,255); stroke-width: 0.03993879; stroke-dasharray: none; stroke-linecap: round; stroke-dashoffset: 0; stroke-linejoin: round; stroke-miterlimit: 4; fill: rgb(255,255,255); fill-rule: nonzero; opacity: 1;" vector-effect="non-scaling-stroke"  transform=" translate(-222.02, -343.98)" d="M 219.94484 346.55265 L 219.72261 346.26045000000005 L 219.48405 345.79012000000006 L 219.27034 345.17933000000005 L 218.90861 344.22548000000006 L 218.68682 343.45151000000004 L 218.51440000000002 342.76717 L 218.36257000000003 342.06458000000003 L 218.26447000000005 341.14412000000004 L 218.26538000000005 340.21760000000006 L 218.35238000000004 339.8000400000001 L 218.48445000000004 339.52024000000006 L 218.64935000000003 339.41138000000007 C 219.75354000000002 341.1906200000001 220.83891000000003 342.99613000000005 221.86658000000003 344.88232000000005 C 221.99757000000002 344.86672000000004 222.20259000000001 345.01104000000004 222.20460000000003 344.7166 C 221.17261000000002 342.8831 220.10968000000003 341.07079000000004 218.97909000000004 339.30484 L 219.41161000000005 339.40354 C 219.64090000000004 339.48944 219.88952000000006 339.59321 220.17356000000007 339.72922 L 221.12080000000006 340.22433 L 221.93616000000006 340.85105 L 223.62420000000006 342.32016 L 224.40636000000006 343.10945 L 224.87562000000005 343.62748999999997 L 225.20070000000007 344.12498 L 225.50091000000006 344.76293 L 225.75572000000005 345.48548999999997 L 225.77952000000005 346.41976 C 225.76842000000005 346.74169 225.74012000000005 347.05815 225.56443000000004 347.32841 L 225.09420000000006 347.92217 L 224.58288000000005 348.33004999999997 C 224.26534000000004 348.47112 223.91425000000004 348.55123999999995 223.57718000000006 348.65686 C 223.16275000000005 348.68276 222.80771000000004 348.64636 222.51423000000005 348.54554 L 221.64100000000005 348.22193000000004 C 221.20014000000006 347.92288 220.70385000000005 347.48719000000006 220.51288000000005 347.24989000000005 z" stroke-linecap="round" />
</g>
</svg>