<?xml version="1.0" encoding="UTF-8" standalone="no" ?>
<!DOCTYPE svg PUBLIC "-//W3C//DTD SVG 1.1//EN" "http://www.w3.org/Graphics/SVG/1.1/DTD/svg11.dtd">
<svg xmlns="http://www.w3.org/2000/svg" xmlns:xlink="http://www.w3.org/1999/xlink" version="1.1" width="1080" height="1080" viewBox="0 0 1080 1080" xml:space="preserve">
<desc>Created with Fabric.js 5.2.4</desc>
<defs>
</defs>
<g transform="matrix(1 0 0 1 540 540)" id="2a326f9f-ff74-45bc-8cb2-809d2a851f2d"  >
<rect style="stroke: none; stroke-width: 1; stroke-dasharray: none; stroke-linecap: butt; stroke-dashoffset: 0; stroke-linejoin: miter; stroke-miterlimit: 4; fill: rgb(255,255,255); fill-rule: nonzero; opacity: 1; visibility: hidden;" vector-effect="non-scaling-stroke"  x="-540" y="-540" rx="0" ry="0" width="1080" height="1080" />
</g>
<g transform="matrix(1 0 0 1 540 540)" id="df28ba86-7bdb-451f-98bb-5ed247acf02c"  >
</g>
<g transform="matrix(5 0 0 5 540 540)"  >
<g style="" vector-effect="non-scaling-stroke"   >
		<g transform="matrix(5.8 0 0 5.69 0 0)" id="path3230-2-5"  >
<path style="stroke: rgb(2,167,91); stroke-width: 3; stroke-dasharray: none; stroke-linecap: round; stroke-dashoffset: 0; stroke-linejoin: round; stroke-miterlimit: 4; fill: rgb(2,167,91); fill-rule: nonzero; opacity: 1;" vector-effect="non-scaling-stroke"  transform=" translate(-21.57, -29.29)" d="M 39.936842 29.287827 C 39.936842 39.626815 31.715082 48.008221 21.573027 48.008221 C 11.430972 48.008221 3.2092112999999998 39.626815 3.2092112999999998 29.287827 C 3.2092112999999998 18.948838000000002 11.430972 10.567432 21.573027 10.567432 C 31.715082 10.567432 39.936842 18.948838000000002 39.936842 29.287827 z" stroke-linecap="round" />
</g>
		<g transform="matrix(5.58 0 0 5.58 2.56 69.41)" id="path4005"  >
<path style="stroke: rgb(254,254,254); stroke-width: 0.05; stroke-dasharray: none; stroke-linecap: round; stroke-dashoffset: 0; stroke-linejoin: round; stroke-miterlimit: 4; fill: rgb(254,254,254); fill-rule: nonzero; opacity: 1;" vector-effect="non-scaling-stroke"  transform=" translate(-245.51, -40.88)" d="M 231.98828 37.742966 L 232.8125 38.324997 L 233.65234 38.699997 L 234.6875 39.012497 L 235.5625 39.231247 L 236.9375 39.449997 L 237.84375 39.58281 L 238.67578 39.602340000000005 L 239.71875 39.54375 L 241.34375 39.2625 L 242.65625 39.04375 L 243.72656 38.778125 L 245.64063000000002 38.297656 L 246.71875000000003 37.98125 L 248.27344000000002 37.45 L 249.51563000000002 37.071094 C 249.91523 36.937185 250.26938 36.871449000000005 250.62891000000002 36.797656 C 251.01257 36.70897600000001 251.42644 36.67315000000001 251.85156 36.657031 C 252.45611 36.64793100000001 252.90911 36.683581000000004 253.45313000000002 36.801563 C 253.79167 36.875093 254.13021 37.002291 254.46875000000003 37.1375 C 254.81248000000002 37.319978000000006 255.15837000000002 37.4851 255.49219000000002 37.746875 C 255.82323000000002 37.94979 256.07013 38.208803 256.34375 38.45 L 257.34375 39.48125 C 257.68317 39.906811000000005 258.07832 40.318441 258.34375 40.7625 L 258.69141 41.141406 C 258.73031000000003 41.131406000000005 258.76821 41.113836000000006 258.79688000000004 41.032031 C 258.91662 41.134469 258.97213000000005 41.247613 259.03125000000006 41.360156 C 258.91667000000007 41.357156 258.80208000000005 41.369156000000004 258.68750000000006 41.387496000000006 L 258.28906000000006 41.297656 L 257.47656000000006 41.160938 L 256.28125000000006 41.149218000000005 L 255.08984000000007 41.23124800000001 L 253.53125000000006 41.51249800000001 C 252.97328000000005 41.64180100000001 252.39013000000006 41.83404900000001 251.81250000000006 42.01249800000001 L 248.95703000000006 42.98124800000001 C 247.75913000000006 43.490989000000006 246.47221000000005 43.84808900000001 245.23828000000006 44.29374800000001 L 243.43750000000006 44.63749800000001 L 241.77344000000005 44.93437300000001 L 240.56250000000006 45.07499800000001 L 238.59375000000006 45.10624800000001 L 237.03125000000006 44.88749800000001 C 236.60417000000007 44.75786300000001 236.17708000000005 44.62958600000001 235.75000000000006 44.41874800000001 C 235.16028000000006 44.17922300000001 234.73972000000006 43.82008300000001 234.28125000000006 43.48124800000001 C 233.78716000000006 42.96999500000001 233.26551000000006 42.439268000000006 233.01172000000005 41.83671700000001 L 232.59766000000005 41.03984200000001 L 232.25000000000006 39.98124800000001 L 232.14063000000004 39.32109200000001 L 232.09373000000005 38.51249800000001 L 232.06243000000006 38.26249800000001 z" stroke-linecap="round" />
</g>
		<g transform="matrix(5.58 0 0 5.58 -50.04 75.26)" id="path4011"  >
<path style="stroke: rgb(2,167,91); stroke-width: 0.05; stroke-dasharray: none; stroke-linecap: round; stroke-dashoffset: 0; stroke-linejoin: round; stroke-miterlimit: 4; fill: rgb(2,167,91); fill-rule: nonzero; opacity: 1;" vector-effect="non-scaling-stroke"  transform=" translate(-236.08, -41.93)" d="M 234.15178 41.823983 L 234.09008 41.486055 L 234.06978 41.327469 L 234.13738 40.973916 L 234.28425000000001 40.531303 L 234.41684 40.321381 L 234.65990000000002 40.144604 L 234.96926000000002 39.978876 L 235.31177000000002 39.901536 L 235.62113000000002 39.890486 L 236.07412000000002 39.978876 L 236.49396000000002 40.169382 L 236.94695000000002 40.431866 L 237.35575000000003 40.796468 L 237.66511000000003 41.271556 L 237.98552000000004 41.890274 L 238.08492000000004 42.475846999999995 L 238.07382000000004 42.91778899999999 L 237.86390000000003 43.47021599999999 C 237.81230000000002 43.535005999999996 237.76078000000004 43.591955999999996 237.70922000000002 43.635943999999995 L 237.64102000000003 43.61384399999999 L 237.35565000000003 43.82376599999999 L 237.11258000000004 43.96739699999999 L 236.33918000000003 43.956346999999994 L 235.77571000000003 43.77956999999999 L 235.28957000000003 43.503356999999994 L 234.86973000000003 43.138754999999996 L 234.54932000000002 42.752055999999996 L 234.3394 42.343258999999996 L 234.24 42.111239999999995 z" stroke-linecap="round" />
</g>
		<g transform="matrix(5.58 0 0 5.58 -25.9 76.4)" id="path4011-1"  >
<path style="stroke: rgb(2,167,91); stroke-width: 0.05; stroke-dasharray: none; stroke-linecap: round; stroke-dashoffset: 0; stroke-linejoin: round; stroke-miterlimit: 4; fill: rgb(2,167,91); fill-rule: nonzero; opacity: 1;" vector-effect="non-scaling-stroke"  transform=" translate(-240.41, -42.13)" d="M 238.38661 42.127935 L 238.32101 41.911101 C 238.30521 41.815431000000004 238.24011 41.733859 238.28901 41.619703 L 238.29401 41.20365 C 238.30001 41.003104 238.39777999999998 40.790964 238.46042 40.628224 C 238.51922 40.528824 238.61633 40.434396 238.73754 40.355802000000004 L 238.90247 40.19465 C 238.95937 40.136430000000004 239.06476 40.10727 239.17276999999999 40.079703 C 239.2892 40.049423000000004 239.28473 40.026253000000004 239.55825 39.986743000000004 L 239.94182999999998 39.99134300000001 L 240.33231999999998 40.064113000000006 C 240.51914 40.130543 240.70595999999998 40.168600000000005 240.89278 40.281963000000005 L 241.38483 40.587416000000005 L 241.72723 40.893424 L 242.07565 41.329449000000004 C 242.22211 41.540897 242.34108 41.79140700000001 242.43903 42.002855000000004 C 242.48623 42.158983000000006 242.50203 42.315112000000006 242.53063 42.47124 C 242.54603 42.718674 242.54293 42.95994 242.49613 43.186620000000005 C 242.47243 43.40522300000001 242.38146 43.566158 242.28620999999998 43.72342200000001 C 242.23460999999998 43.78821200000001 242.19090999999997 43.84906800000001 242.13933999999998 43.89305600000001 L 242.02817 43.99986300000001 L 241.77405 44.12775300000001 L 241.43723 44.24404000000001 C 241.18204 44.31325000000001 240.92684 44.25666000000001 240.67164 44.26033000000001 L 240.09255 44.06402200000001 C 239.92978 43.97303200000001 239.71180999999999 43.912121000000006 239.58687999999998 43.76437100000001 C 239.46791 43.72674100000001 239.32653 43.49791700000001 239.18657 43.37633200000001 L 238.84662999999998 43.01307100000001 L 238.65623999999997 42.70974200000001 L 238.50214999999997 42.39959800000001 z" stroke-linecap="round" />
</g>
		<g transform="matrix(5.58 0 0 5.58 -1 73.9)" id="path4011-3"  >
<path style="stroke: rgb(2,167,91); stroke-width: 0.05; stroke-dasharray: none; stroke-linecap: round; stroke-dashoffset: 0; stroke-linejoin: round; stroke-miterlimit: 4; fill: rgb(2,167,91); fill-rule: nonzero; opacity: 1;" vector-effect="non-scaling-stroke"  transform=" translate(-244.87, -41.68)" d="M 242.78917 41.722375 L 242.70797000000002 41.462572 L 242.68377 41.190705 C 242.62187 40.965704 242.67477000000002 40.838734 242.67677 40.669183000000004 L 242.83145000000002 40.273445 L 243.01482000000001 40.032273 C 243.09062 39.937323000000006 243.16644000000002 39.837619000000004 243.24226000000002 39.792996 C 243.36787 39.729216 243.50355000000002 39.645312000000004 243.61021000000002 39.619455 L 243.96834 39.553835 L 244.32458000000003 39.534975 C 244.51191000000003 39.565155000000004 244.70719000000003 39.591355 244.87523000000002 39.631175000000006 C 245.03252 39.685565000000004 245.22047 39.73995000000001 245.31069000000002 39.794337000000006 C 245.46588000000003 39.890797000000006 245.65928000000002 39.968163000000004 245.77540000000002 40.084165000000006 C 245.97362 40.224022000000005 246.09513 40.354291 246.21154 40.483923000000004 C 246.34762 40.61977 246.46952000000002 40.708353 246.63418000000001 40.93948 C 246.79391 41.241601 246.99380000000002 41.547069 247.03663 41.839448000000004 C 247.06293 42.054317000000005 247.10953 42.31327400000001 247.07743 42.40158400000001 C 247.07143 42.589231000000005 247.00923 42.72131100000001 246.94133 42.847432000000005 C 246.84613 43.037544000000004 246.75235 43.229179 246.60640999999998 43.368609000000006 C 246.55480999999997 43.43339900000001 246.48376 43.49425500000001 246.4322 43.53824300000001 L 246.3328 43.61380300000001 L 246.05915 43.68700300000001 L 245.80435999999997 43.80719700000001 C 245.54655999999997 43.86308700000001 245.28875999999997 43.81901700000001 245.03095999999996 43.79614700000001 L 244.46748999999997 43.61937000000001 L 243.98134999999996 43.34315700000001 L 243.56150999999997 42.978555000000014 L 243.24109999999996 42.591856000000014 L 243.03117999999995 42.183059000000014 L 242.93177999999995 41.95104000000001 z" stroke-linecap="round" />
</g>
		<g transform="matrix(5.58 0 0 5.58 21.75 65.38)" id="path4011-8"  >
<path style="stroke: rgb(2,167,91); stroke-width: 0.05; stroke-dasharray: none; stroke-linecap: round; stroke-dashoffset: 0; stroke-linejoin: round; stroke-miterlimit: 4; fill: rgb(2,167,91); fill-rule: nonzero; opacity: 1;" vector-effect="non-scaling-stroke"  transform=" translate(-248.95, -40.16)" d="M 246.79253 40.174469 C 246.73803 40.024082 246.73023 39.864363000000004 246.72693 39.703728000000005 L 246.71793000000002 39.334205000000004 L 246.77773000000002 39.148621000000006 C 246.84883000000002 38.947196000000005 246.91992000000002 38.85824100000001 246.99101000000002 38.721633000000004 L 247.17438 38.50389800000001 L 247.41744000000003 38.327121000000005 L 247.72680000000003 38.161393000000004 L 248.06931000000003 38.084053000000004 L 248.37867000000003 38.07300300000001 L 248.83166000000003 38.161393000000004 L 249.25150000000002 38.305024 L 249.7084 38.501102 L 250.16407 38.818829 L 250.57109 39.262667 C 250.78331 39.506929 250.85261 39.671786 250.98134 39.869666 C 251.06824 40.077915000000004 251.17522 40.288174000000005 251.16277 40.486489 C 251.19337 40.710116 251.18077 40.861672999999996 251.18296999999998 41.037805999999996 C 251.11836999999997 41.249790999999995 251.05321999999998 41.44204 250.92618 41.633202 C 250.87457999999998 41.697992 250.784 41.821348 250.73244 41.865336 L 250.54704999999998 42.007298999999996 L 250.38277 42.111751999999996 L 249.90922999999998 42.220226 C 249.64833 42.248816 249.38227999999998 42.254245999999995 249.10067999999998 42.189645999999996 L 248.47860999999997 41.993337999999994 L 247.93388 41.689780999999996 C 247.75355 41.605830999999995 247.66058999999998 41.471959 247.54919999999998 41.348617 L 247.25222 40.981449 L 247.0384 40.650777 L 246.90775 40.422664 z" stroke-linecap="round" />
</g>
		<g transform="matrix(5.58 0 0 5.58 44.75 59.8)" id="path4011-0"  >
<path style="stroke: rgb(2,167,91); stroke-width: 0.05; stroke-dasharray: none; stroke-linecap: round; stroke-dashoffset: 0; stroke-linejoin: round; stroke-miterlimit: 4; fill: rgb(2,167,91); fill-rule: nonzero; opacity: 1;" vector-effect="non-scaling-stroke"  transform=" translate(-253.07, -39.16)" d="M 251.08596 39.147394 L 251.00086 38.821185 L 250.98056 38.631349 C 250.98256 38.51358 250.98656 38.397013 251.00906 38.289515 C 251.02446 38.136907 251.12167 37.951584000000004 251.18328 37.780495 L 251.36665 37.586198 L 251.64096 37.409421 C 251.7558 37.359391 251.87064 37.309353 251.98548 37.259318 L 252.30845 37.240568 L 252.62563 37.22170800000001 L 253.11768 37.310098 C 253.2478 37.371148000000005 253.28936000000002 37.366108000000004 253.49455 37.445917 C 253.70641 37.574358000000004 253.94836 37.689427 254.07254 37.856839 C 254.18441 37.902339 254.26735 37.991225 254.36025 38.06519 L 254.73211 38.430903 C 254.88307 38.636366 254.97002 38.895173 255.06033 39.151184 C 255.10913 39.359396000000004 255.16834 39.567608 255.16754 39.775819 C 255.13624000000002 39.932533 255.12884 40.065278 255.11734 40.202135999999996 L 254.96211000000002 40.516282 C 254.91051000000002 40.581072 254.74961000000002 40.75521 254.69805000000002 40.799198 L 254.53220000000002 40.913816 L 254.36792000000003 40.975296 L 254.05844000000002 41.060336 L 253.44520000000003 41.092256 L 252.84657000000004 40.950635 L 252.37215000000003 40.701766 L 251.91325000000003 40.368414 L 251.42096000000004 39.864527 L 251.28137000000004 39.654949 L 251.18587000000005 39.419024 z" stroke-linecap="round" />
</g>
		<g transform="matrix(5.58 0 0 5.58 -11.05 -53.42)" id="path4068"  >
<path style="stroke: rgb(255,255,255); stroke-opacity: 0.94; stroke-width: 0.05; stroke-dasharray: none; stroke-linecap: round; stroke-dashoffset: 0; stroke-linejoin: round; stroke-miterlimit: 4; fill: rgb(255,255,255); fill-rule: nonzero; opacity: 1;" vector-effect="non-scaling-stroke"  transform=" translate(-243.07, -18.85)" d="M 238.38337 17.903886 L 238.73693 16.688547 L 239.02419 15.870954 L 239.44403 15.031265 L 239.90807 14.169478999999999 L 240.50469 13.329788999999998 L 240.99083000000002 12.711070999999999 L 241.34438000000003 12.313322999999999 L 241.85262000000003 11.760895999999999 L 242.62601000000004 12.180741 L 243.48780000000005 12.799458999999999 L 244.50427000000005 13.572856999999999 L 245.23347000000004 14.346255 L 245.83009000000004 14.964974 L 246.40462000000005 15.782566 L 246.91285000000005 16.489673 L 247.33269000000004 17.218877 L 247.61996000000005 17.925984 L 247.86302000000006 18.699382 L 247.99561000000006 19.450683 L 248.03981000000005 20.290371 L 247.99561000000006 21.06377 L 247.73044000000004 21.837168000000002 L 247.44318000000004 22.610566000000002 L 247.00124000000005 23.33977 L 246.55930000000006 23.892197000000003 L 245.98477000000005 24.577207 L 245.41025000000005 25.151731 L 244.30539000000005 25.947226 C 243.75305000000006 22.338035 243.30585000000005 18.728844000000002 242.53763000000004 15.119653000000001 C 242.81172000000004 18.554143 243.31480000000005 22.293957000000002 243.75297000000003 25.947226 L 243.15634000000003 25.748352 L 242.64811000000003 25.637867 L 242.00730000000004 25.350605 L 241.16761000000005 24.908663 L 240.76986000000005 24.665595 L 240.39421000000004 24.378333 L 239.88598000000005 23.980585 L 239.48823000000004 23.560741 L 239.09048000000004 23.096702 L 238.69273000000004 22.433789 L 238.29498000000004 21.306838 L 238.20658000000003 20.842799 L 238.09609000000003 19.936818 L 238.18449000000004 19.141323 L 238.29497000000003 18.367925 z" stroke-linecap="round" />
</g>
		<g transform="matrix(5.58 0 0 5.58 -43.16 1.23)" id="path4070"  >
<path style="stroke: rgb(255,255,255); stroke-opacity: 0.94; stroke-width: 0.05; stroke-dasharray: none; stroke-linecap: round; stroke-dashoffset: 0; stroke-linejoin: round; stroke-miterlimit: 4; fill: rgb(255,255,255); fill-rule: nonzero; opacity: 1;" vector-effect="non-scaling-stroke"  transform=" translate(-237.31, -28.65)" d="M 243.55409 29.151304 L 234.93623 28.289517 L 236.83658 28.687265 L 238.60434 28.974527 L 239.97436000000002 29.151304 L 241.87471000000002 29.460663 L 243.42151 29.63744 L 243.00166000000002 30.322449000000002 L 242.49343000000002 31.007459 L 241.85262000000003 31.670372 L 241.25599000000003 32.156507 L 240.57098000000002 32.598448999999995 L 239.79759 32.863614 L 239.11258 32.996196999999995 L 238.1845 32.996196999999995 L 237.36691000000002 32.841516999999996 L 236.54932000000002 32.598448999999995 L 235.40027000000003 32.068118999999996 L 234.18493000000004 31.294720999999996 L 233.27895000000004 30.543419999999994 L 232.59394000000003 29.814215999999995 L 231.88683000000003 28.930332999999994 L 231.44489000000004 28.311613999999995 L 231.06924000000004 27.737089999999995 L 231.62166000000005 27.250953999999997 L 232.50555000000006 26.477555999999996 L 233.10217000000006 26.035613999999995 L 233.69879000000006 25.659963999999995 L 234.86994000000007 25.085439999999995 L 235.66543000000007 24.709788999999994 L 236.59351000000007 24.488817999999995 L 237.72046000000006 24.334138999999993 L 238.64854000000005 24.312038999999995 L 239.51032000000006 24.466717999999997 L 240.23953000000006 24.643494999999998 L 241.07922000000005 25.107533999999998 L 241.83052000000004 25.858835 L 242.53763000000004 26.786912 L 243.13425000000004 27.759184 L 243.39941000000005 28.687262 z" stroke-linecap="round" />
</g>
		<g transform="matrix(5.58 0 0 5.58 34.23 -6.96)" id="path4072"  >
<path style="stroke: rgb(255,255,255); stroke-opacity: 0.94; stroke-width: 0.05; stroke-dasharray: none; stroke-linecap: round; stroke-dashoffset: 0; stroke-linejoin: round; stroke-miterlimit: 4; fill: rgb(255,255,255); fill-rule: nonzero; opacity: 1;" vector-effect="non-scaling-stroke"  transform=" translate(-251.19, -27.18)" d="M 245.10089 28.864041 L 245.18929 28.134838000000002 L 245.18929 27.516119000000003 L 245.32187 26.963692 L 245.54283999999998 26.1461 L 245.98477999999997 25.218022 L 246.55930999999998 24.378333 L 247.46528999999998 23.538644 L 248.34917 23.074605000000002 L 249.03418 22.809440000000002 L 250.00645 22.676857000000002 L 250.77985 22.588467 L 251.77422 22.610567 L 252.6802 22.676857 L 253.69666 22.853634 L 254.66894000000002 23.140895999999998 L 255.55282000000003 23.472351999999997 L 256.39251 23.781712 L 257.27639 24.334139 L 257.14381 24.93076 L 256.81235 25.682061 L 256.30411999999995 26.897401000000002 L 255.75168999999997 27.781284000000003 L 255.28764999999996 28.400003 L 254.64683999999997 29.283886000000003 L 254.07231999999996 29.946798 C 253.83744999999996 30.204598 253.58324999999996 30.329814000000002 253.23261999999997 30.587614000000002 L 252.43712999999997 31.117944 L 251.73001999999997 31.449401 L 250.97871999999998 31.692469000000003 L 250.20531999999997 31.780859000000003 L 249.27724999999998 31.736669000000003 L 248.41545999999997 31.471504000000003 L 247.37689999999998 31.007465000000003 L 246.47091999999998 30.410844000000004 L 245.69751999999997 29.792125000000006 L 245.29976999999997 29.283892000000005 L 248.79110999999997 27.913873000000006 L 250.53677999999996 27.228863000000008 L 252.68019999999996 26.36707700000001 L 254.40376999999995 25.63787300000001 L 256.59137999999996 24.79656000000001 L 254.47005999999996 25.50529000000001 L 252.54761999999997 26.190300000000008 L 250.97871999999995 26.74272700000001 L 249.49821999999995 27.20676600000001 L 247.79673999999994 27.86967900000001 L 246.73607999999993 28.22323200000001 z" stroke-linecap="round" />
</g>
		<g transform="matrix(5.58 0 0 5.58 -6.06 17.19)" id="path3231"  >
<path style="stroke: rgb(255,255,255); stroke-opacity: 0.94; stroke-width: 0.05; stroke-dasharray: none; stroke-linecap: round; stroke-dashoffset: 0; stroke-linejoin: round; stroke-miterlimit: 4; fill: rgb(255,255,255); fill-rule: nonzero; opacity: 1;" vector-effect="non-scaling-stroke"  transform=" translate(-243.96, -31.52)" d="M 243.77506 25.925129 L 244.30539 25.947228999999997 L 244.39428999999998 26.433905999999997 L 244.43798999999999 26.853209999999997 L 244.46008999999998 27.471928 L 244.52688999999998 28.223229 L 244.65893999999997 29.040821 L 245.10087999999996 28.819850000000002 L 245.27764999999997 29.261792000000003 L 244.68102999999996 29.526957000000003 L 244.74732999999998 30.123578000000002 L 244.76942999999997 30.587617 L 244.76942999999997 31.073753 L 244.76942999999997 31.581986 L 244.72522999999998 32.222802 L 244.65892999999997 32.753132 L 244.59262999999996 33.305559 L 244.46003999999996 33.946374000000006 L 244.23906999999997 34.697675000000004 L 244.01809999999998 35.294297 L 243.73083999999997 35.868821 L 243.33308999999997 36.575928 L 243.02372999999997 37.106258 L 242.64807999999996 36.951578 L 242.93533999999997 36.553830999999995 L 243.28889999999996 35.913014999999994 L 243.66454999999996 35.073325999999994 L 243.90761999999995 34.34412199999999 L 244.08438999999996 33.81379199999999 L 244.19487999999996 33.28346199999999 L 244.30535999999995 32.753131999999994 C 244.36915999999994 32.244730999999994 244.41020999999995 31.668183999999993 244.41584999999995 30.985364999999994 L 244.39374999999995 30.057286999999995 L 244.28326999999996 29.703733999999994 L 244.28326999999996 29.703733999999994 L 243.44357999999997 29.659543999999993 L 243.57615999999996 29.173407999999995 L 244.21696999999995 29.239697999999994 L 244.06228999999993 28.488396999999992 L 243.97388999999993 27.60451399999999 L 243.95258999999993 27.05316899999999 z" stroke-linecap="round" />
</g>
</g>
</g>
</svg>